{
DisplayStrings = (
"abcdfghijklmnopqrstuvwxyz\012ABCDEFGHIJKLMNOPQRSTUVWXYZT \012HH/Placeholder HH/Placeholder OO\012OO/Placeholder OO/Placeholder HH ",
"Quebec\012Galleta\012Onomatopeya\012\012Quien Oiher"
);
copyright = "Copyright \U00A9 2015 by Vaishnavi Murthy. All rights reserved.";
customParameters = (
{
name = license;
value = "http://scripts.sil.org/OFL";
},
{
name = glyphOrder;
value = (
    tlA,
    tlAA,
    tlI,
    tlII,
    tlU,
    tlUU,
    tlvR,
    tlvRR,
    tlvL,
    tlvLL,
    tlE,
    tlEE,
    tlAI,
    tlO,
    tlOO,
    tlAU,
    tlmAA,
    tlmI,
    tlmII,
    tlmU,
    tlmUU,
    tlmvR,
    tlmvRR,
    tlmvL,
    tlmvLL,
    tlmE,
    tlmEE,
    tlmAI,
    tlmO,
    tlmOO,
    tlmAU,
    tlLengthmark,
    tlAIlengthmark,
    tlKA,
    tlKHA,
    tlGA,
    tlGHA,
    tlNGA,
    tlCA,
    tlCHA,
    tlJA,
    tlJHA,
    tlNYA,
    tlTTA,
    tlTTHA,
    tlDDA,
    tlDDHA,
    tlNNA,
    tlTA,
    tlTHA,
    tlDA,
    tlDHA,
    tlNA,
    tlPA,
    tlPHA,
    tlBA,
    tlBHA,
    tlMA,
    tlYA,
    tlRA,
    tlLA,
    tlVA,
    tlSHA,
    tlSSA,
    tlSA,
    tlHA,
    tlRRA,
    tlRRRA,
    tlLLA,
    tlLLLA,
    tlTSA,
    tlDZA,
    tlKSSA,
    tlAnusvara,
    tlArasunna,
    tlCandrabindu,
    tlVisarga,
    tlVirama,
    tlAvagraha,
    tlZero,
    tlOne,
    tlTwo,
    tlThree,
    tlFour,
    tlFive,
    tlSix,
    tlSeven,
    tlEight,
    tlNine,
    tlZeroforodd,
    tlOneforodd,
    tlTwoforodd,
    tlThreeforodd,
    tlOneforeven,
    tlTwoforeven,
    tlThreeforeven,
    tlTuumu,
    tlTick,
    tlTeardrop,
    "tlTAc2.above",
    tlKAc2,
    tlKHAc2,
    tlGAc2,
    tlGHAc2,
    tlNGAc2,
    tlCAc2,
    tlCHAc2,
    tlJAc2,
    tlJHAc2,
    tlNYAc2,
    tlTTAc2,
    tlTTHAc2,
    tlDDAc2,
    tlDDHAc2,
    tlNNAc2,
    tlTAc2,
    tlTHAc2,
    tlDAc2,
    tlDHAc2,
    tlNAc2,
    tlPAc2,
    tlPHAc2,
    tlBAc2,
    tlBHAc2,
    tlMAc2,
    tlYAc2,
    tlRAc2,
    "tlRAc2.01",
    tlLAc2,
    tlVAc2,
    tlSHAc2,

glyphs = (
{
color = 6;
glyphname = tlAA;
lastChange = "2015-10-30 12:45:06 +0000";
layers = (
{
layerId = "59118767-2CA9-48AA-9373-694D24C960D8";
name = Regular;
paths = (
{
closed = 1;
nodes = (
"520 271 LINE",
"605 327 OFFCURVE",
"645 399 OFFCURVE",
"645 447 CURVE SMOOTH",
"645 492 OFFCURVE",
"611 524 OFFCURVE",
"551 524 CURVE SMOOTH",
"452 524 OFFCURVE",
"366 439 OFFCURVE",
"366 355 CURVE SMOOTH",
"366 242 OFFCURVE",
"512 244 OFFCURVE",
"512 172 CURVE SMOOTH",
"512 118 OFFCURVE",
"432 84 OFFCURVE",
"339 84 CURVE SMOOTH",
"239 84 OFFCURVE",
"115 124 OFFCURVE",
"115 238 CURVE SMOOTH",
"115 311 OFFCURVE",
"164 320 OFFCURVE",
"190 324 CURVE SMOOTH",
"235 331 OFFCURVE",
"278 416 OFFCURVE",
"278 445 CURVE SMOOTH",
"278 453 OFFCURVE",
"274 459 OFFCURVE",
"257 459 CURVE SMOOTH",
"180 459 OFFCURVE",
"37 330 OFFCURVE",
"37 181 CURVE SMOOTH",
"37 45 OFFCURVE",
"155 -13 OFFCURVE",
"285 -13 CURVE SMOOTH",
"487 -13 OFFCURVE",
"600 126 OFFCURVE",
"600 206 CURVE SMOOTH",
"600 299 OFFCURVE",
"447 317 OFFCURVE",
"447 397 CURVE SMOOTH",
"447 431 OFFCURVE",
"474 455 OFFCURVE",
"504 455 CURVE SMOOTH",
"535 455 OFFCURVE",
"553 431 OFFCURVE",
"553 400 CURVE SMOOTH",
"553 371 OFFCURVE",
"537 336 OFFCURVE",
"499 310 CURVE"
);
},
{
closed = 1;
nodes = (
"165 37 LINE",
"283 115 OFFCURVE",
"402 193 OFFCURVE",
"520 271 CURVE",
"499 320 LINE",
"361 223 OFFCURVE",
"206 131 OFFCURVE",
"110 68 CURVE"
);
},
{
closed = 1;
nodes = (
"110 68 LINE",
"26 14 OFFCURVE",
"-18 -10 OFFCURVE",
"-72 -47 CURVE SMOOTH",
"-75 -49 OFFCURVE",
"-77 -53 OFFCURVE",
"-77 -57 CURVE SMOOTH",
"-77 -66 OFFCURVE",
"-62 -95 OFFCURVE",
"-58 -100 CURVE SMOOTH",
"-55 -104 OFFCURVE",
"-52 -106 OFFCURVE",
"-46 -106 CURVE SMOOTH",
"-41 -106 OFFCURVE",
"-38 -105 OFFCURVE",
"-36 -104 CURVE SMOOTH",
"32 -57 OFFCURVE",
"89 -19 OFFCURVE",
"165 37 CURVE"
);
}
);
width = 666;
},
{
associatedMasterId = "59118767-2CA9-48AA-9373-694D24C960D8";
layerId = "F04F0291-4C3A-4F34-8706-66E80826560E";
name = "Regular Aug 30 15, 16:48";
paths = (
{
closed = 1;
nodes = (
"461 243 LINE",
"436 158 OFFCURVE",
"390 97 OFFCURVE",
"283 97 CURVE SMOOTH",
"174 97 OFFCURVE",
"113 170 OFFCURVE",
"113 246 CURVE SMOOTH",
"113 326 OFFCURVE",
"181 331 OFFCURVE",
"205 331 CURVE SMOOTH",
"239 331 OFFCURVE",
"298 409 OFFCURVE",
"298 446 CURVE SMOOTH",
"298 453 OFFCURVE",
"293 459 OFFCURVE",
"277 459 CURVE SMOOTH",
"179 459 OFFCURVE",
"57 336 OFFCURVE",
"57 195 CURVE SMOOTH",
"57 68 OFFCURVE",
"135 -13 OFFCURVE",
"261 -13 CURVE SMOOTH",
"465 -13 OFFCURVE",
"511 133 OFFCURVE",
"534 257 CURVE"
);
},
{
closed = 1;
nodes = (
"535 283 LINE",
"534 324 OFFCURVE",
"540 363 OFFCURVE",
"554 391 CURVE SMOOTH",
"565 415 OFFCURVE",
"584 428 OFFCURVE",
"604 428 CURVE SMOOTH",
"628 428 OFFCURVE",
"654 414 OFFCURVE",
"654 380 CURVE SMOOTH",
"654 337 OFFCURVE",
"562 285 OFFCURVE",
"59 228 CURVE SMOOTH",
"53 227 OFFCURVE",
"46 226 OFFCURVE",
"39 226 CURVE SMOOTH",
"-9 221 OFFCURVE",
"25 229 OFFCURVE",
"-33 224 CURVE",
"-55 213 OFFCURVE",
"-68 158 OFFCURVE",
"-54 148 CURVE SMOOTH",
"-47 142 OFFCURVE",
"-30 144 OFFCURVE",
"-25 145 CURVE SMOOTH",
"12 148 OFFCURVE",
"-1 144 OFFCURVE",
"33 148 CURVE SMOOTH",
"40 148 OFFCURVE",
"48 149 OFFCURVE",
"55 150 CURVE SMOOTH",
"547 211 OFFCURVE",
"742 298 OFFCURVE",
"742 434 CURVE SMOOTH",
"742 494 OFFCURVE",
"696 518 OFFCURVE",
"651 518 CURVE SMOOTH",
"551 518 OFFCURVE",
"474 383 OFFCURVE",
"461 262 CURVE"
);
}
);
width = 762;
},
{
associatedMasterId = "59118767-2CA9-48AA-9373-694D24C960D8";
background = {
paths = (
{
closed = 1;
nodes = (
"321 81 LINE",
"408 138 OFFCURVE",
"482 195 OFFCURVE",
"519 247 CURVE",
"542 275 OFFCURVE",
"493 296 OFFCURVE",
"475 253 CURVE",
"354 162 LINE",
"322 139 OFFCURVE",
"285 110 OFFCURVE",
"248 95 CURVE",
"169 33 LINE",
"110 -2 OFFCURVE",
"73 -25 OFFCURVE",
"30 -54 CURVE",
"20 -60 OFFCURVE",
"26 -79 OFFCURVE",
"39 -100 CURVE SMOOTH",
"44 -108 OFFCURVE",
"56 -107 OFFCURVE",
"61 -104 CURVE",
"222 7 LINE"
);
}
);
};
layerId = "9C51FB1E-2B16-4901-8ED6-8024E11A9C79";
name = "Regular Aug 30 15, 16:51";
paths = (
{
closed = 1;
nodes = (
"283 97 LINE",
"175 113 OFFCURVE",
"113 170 OFFCURVE",
"113 246 CURVE SMOOTH",
"113 326 OFFCURVE",
"181 331 OFFCURVE",
"205 331 CURVE SMOOTH",
"239 331 OFFCURVE",
"298 409 OFFCURVE",
"298 446 CURVE SMOOTH",
"298 453 OFFCURVE",
"293 459 OFFCURVE",
"277 459 CURVE SMOOTH",
"179 459 OFFCURVE",
"57 336 OFFCURVE",
"57 195 CURVE SMOOTH",
"57 121 OFFCURVE",
"92 50 OFFCURVE",
"168 15 CURVE"
);
},
{
closed = 1;
nodes = (
"321 81 LINE",
"408 138 OFFCURVE",
"662 330 OFFCURVE",
"699 382 CURVE",
"722 410 OFFCURVE",
"673 431 OFFCURVE",
"655 388 CURVE",
"354 162 LINE",
"322 139 OFFCURVE",
"285 110 OFFCURVE",
"248 95 CURVE",
"169 33 LINE",
"110 -2 OFFCURVE",
"73 -25 OFFCURVE",
"30 -54 CURVE",
"20 -60 OFFCURVE",
"26 -79 OFFCURVE",
"39 -100 CURVE SMOOTH",
"44 -108 OFFCURVE",
"56 -107 OFFCURVE",
"61 -104 CURVE",
"222 7 LINE"
);
},
{
closed = 1;
nodes = (
"454 489 OFFCURVE",
"368 423 OFFCURVE",
"348 327 CURVE SMOOTH",
"329 237 OFFCURVE",
"352 155 OFFCURVE",
"405 94 CURVE",
"388 93 OFFCURVE",
"371 92 OFFCURVE",
"353 92 CURVE SMOOTH",
"321 92 LINE",
"198 1 LINE",
"227 -8 OFFCURVE",
"262 -13 OFFCURVE",
"325 -13 CURVE SMOOTH",
"410 -13 OFFCURVE",
"490 13 OFFCURVE",
"554 56 CURVE",
"505 105 LINE",
"513 112 LINE",
"445 136 OFFCURVE",
"407 183 OFFCURVE",
"423 259 CURVE SMOOTH",
"443 353 OFFCURVE",
"540 390 OFFCURVE",
"604 390 CURVE SMOOTH",
"634 390 OFFCURVE",
"660 382 OFFCURVE",
"678 367 CURVE",
"716 405 LINE",
"676 452 OFFCURVE",
"618 489 OFFCURVE",
"556 489 CURVE SMOOTH"
);
}
);
width = 762;
},
{
associatedMasterId = "59118767-2CA9-48AA-9373-694D24C960D8";
background = {
paths = (
{
closed = 1;
nodes = (
"321 81 LINE",
"408 138 OFFCURVE",
"482 195 OFFCURVE",
"519 247 CURVE",
"542 275 OFFCURVE",
"493 296 OFFCURVE",
"475 253 CURVE",
"354 162 LINE",
"322 139 OFFCURVE",
"285 110 OFFCURVE",
"248 95 CURVE",
"169 33 LINE",
"110 -2 OFFCURVE",
"73 -25 OFFCURVE",
"30 -54 CURVE",
"20 -60 OFFCURVE",
"26 -79 OFFCURVE",
"39 -100 CURVE SMOOTH",
"44 -108 OFFCURVE",
"56 -107 OFFCURVE",
"61 -104 CURVE",
"222 7 LINE"
);
}
);
};
layerId = "D20FF163-501E-423C-9760-2C85AEE3684F";
name = "Regular Aug 31 15, 14:14";
paths = (
{
closed = 1;
nodes = (
"153 -12 OFFCURVE",
"302 -12 CURVE SMOOTH",
"485 -12 OFFCURVE",
"678 158 OFFCURVE",
"626 296 CURVE SMOOTH",
"611 336 OFFCURVE",
"545 413 OFFCURVE",
"624 413 CURVE SMOOTH",
"727 413 OFFCURVE",
"650 278 OFFCURVE",
"577 305 CURVE",
"565 238 LINE",
"700 239 OFFCURVE",
"887 489 OFFCURVE",
"666 489 CURVE SMOOTH",
"608 489 OFFCURVE",
"570 474 OFFCURVE",
"547 450 CURVE SMOOTH",
"467 366 OFFCURVE",
"620 224 OFFCURVE",
"510 134 CURVE SMOOTH",
"477 107 OFFCURVE",
"431 92 OFFCURVE",
"383 92 CURVE SMOOTH",
"212 93 OFFCURVE",
"113 137 OFFCURVE",
"113 246 CURVE SMOOTH",
"113 326 OFFCURVE",
"181 331 OFFCURVE",
"205 331 CURVE SMOOTH",
"239 331 OFFCURVE",
"298 409 OFFCURVE",
"298 446 CURVE SMOOTH",
"298 453 OFFCURVE",
"293 459 OFFCURVE",
"277 459 CURVE SMOOTH",
"179 459 OFFCURVE",
"57 336 OFFCURVE",
"57 195 CURVE SMOOTH",
"57 64 OFFCURVE"
);
},
{
closed = 1;
nodes = (
"550 285 LINE",
"299 128 OFFCURVE",
"317 137 OFFCURVE",
"30 -54 CURVE",
"20 -60 OFFCURVE",
"26 -79 OFFCURVE",
"39 -100 CURVE SMOOTH",
"44 -108 OFFCURVE",
"56 -107 OFFCURVE",
"61 -104 CURVE",
"136 -51 OFFCURVE",
"35 -119 OFFCURVE",
"565 238 CURVE"
);
}
);
width = 762;
},
{
associatedMasterId = "59118767-2CA9-48AA-9373-694D24C960D8";
background = {
paths = (
{
closed = 1;
nodes = (
"386 81 LINE",
"473 138 OFFCURVE",
"547 195 OFFCURVE",
"584 247 CURVE",
"607 275 OFFCURVE",
"558 296 OFFCURVE",
"540 253 CURVE",
"419 162 LINE",
"387 139 OFFCURVE",
"350 110 OFFCURVE",
"313 95 CURVE",
"234 33 LINE",
"175 -2 OFFCURVE",
"138 -25 OFFCURVE",
"95 -54 CURVE",
"85 -60 OFFCURVE",
"91 -79 OFFCURVE",
"104 -100 CURVE SMOOTH",
"109 -108 OFFCURVE",
"121 -107 OFFCURVE",
"126 -104 CURVE",
"287 7 LINE"
);
}
);
};
layerId = "5A2D294D-8BD7-4C95-B14D-E2B02C8FFDDF";
name = "Regular Sep 5 15, 09:37";
paths = (
{
closed = 1;
nodes = (
"228 -12 OFFCURVE",
"377 -12 CURVE SMOOTH",
"607 -12 OFFCURVE",
"663 188 OFFCURVE",
"611 326 CURVE SMOOTH",
"603 348 OFFCURVE",
"585 388 OFFCURVE",
"584 419 CURVE SMOOTH",
"581 499 OFFCURVE",
"729 467 OFFCURVE",
"669 401 CURVE SMOOTH",
"650 381 OFFCURVE",
"617 360 OFFCURVE",
"574 343 CURVE",
"570 288 LINE",
"618 302 OFFCURVE",
"674 339 OFFCURVE",
"710 367 CURVE SMOOTH",
"861 489 OFFCURVE",
"693 634 OFFCURVE",
"562 497 CURVE SMOOTH",
"509 442 OFFCURVE",
"508 340 OFFCURVE",
"546 261 CURVE SMOOTH",
"590 170 OFFCURVE",
"573 92 OFFCURVE",
"458 92 CURVE SMOOTH",
"287 92 OFFCURVE",
"188 137 OFFCURVE",
"188 246 CURVE SMOOTH",
"188 326 OFFCURVE",
"256 331 OFFCURVE",
"280 331 CURVE SMOOTH",
"314 331 OFFCURVE",
"373 409 OFFCURVE",
"373 446 CURVE SMOOTH",
"373 453 OFFCURVE",
"368 459 OFFCURVE",
"352 459 CURVE SMOOTH",
"254 459 OFFCURVE",
"132 336 OFFCURVE",
"132 195 CURVE SMOOTH",
"132 64 OFFCURVE"
);
},
{
closed = 1;
nodes = (
"555 335 LINE",
"304 178 OFFCURVE",
"322 167 OFFCURVE",
"35 -24 CURVE",
"25 -30 OFFCURVE",
"31 -49 OFFCURVE",
"44 -70 CURVE SMOOTH",
"49 -78 OFFCURVE",
"61 -77 OFFCURVE",
"66 -74 CURVE",
"141 -21 OFFCURVE",
"40 -89 OFFCURVE",
"570 288 CURVE"
);
}
);
width = 800;
},
{
associatedMasterId = "59118767-2CA9-48AA-9373-694D24C960D8";
background = {
paths = (
{
closed = 1;
nodes = (
"512 275 LINE",
"607 336 OFFCURVE",
"640 399 OFFCURVE",
"640 453 CURVE SMOOTH",
"640 509 OFFCURVE",
"599 524 OFFCURVE",
"547 524 CURVE SMOOTH",
"452 524 OFFCURVE",
"348 451 OFFCURVE",
"348 362 CURVE SMOOTH",
"348 255 OFFCURVE",
"511 246 OFFCURVE",
"511 172 CURVE SMOOTH",
"511 54 OFFCURVE",
"102 32 OFFCURVE",
"102 246 CURVE SMOOTH",
"102 314 OFFCURVE",
"153 331 OFFCURVE",
"177 331 CURVE SMOOTH",
"211 331 OFFCURVE",
"270 409 OFFCURVE",
"270 446 CURVE SMOOTH",
"270 453 OFFCURVE",
"265 459 OFFCURVE",
"249 459 CURVE SMOOTH",
"166 459 OFFCURVE",
"29 314 OFFCURVE",
"29 195 CURVE SMOOTH",
"29 45 OFFCURVE",
"123 -13 OFFCURVE",
"303 -13 CURVE SMOOTH",
"428 -13 OFFCURVE",
"592 96 OFFCURVE",
"592 210 CURVE SMOOTH",
"592 295 OFFCURVE",
"439 318 OFFCURVE",
"439 398 CURVE SMOOTH",
"439 430 OFFCURVE",
"466 455 OFFCURVE",
"496 455 CURVE SMOOTH",
"521 455 OFFCURVE",
"543 438 OFFCURVE",
"543 411 CURVE SMOOTH",
"543 379 OFFCURVE",
"535 348 OFFCURVE",
"491 318 CURVE"
);
},
{
closed = 1;
nodes = (
"217 77 LINE",
"316 142 OFFCURVE",
"416 208 OFFCURVE",
"472 248 CURVE",
"454 302 LINE",
"311 209 OFFCURVE",
"259 167 OFFCURVE",
"163 104 CURVE"
);
},
{
closed = 1;
nodes = (
"107 61 LINE",
"23 7 OFFCURVE",
"-22 -18 OFFCURVE",
"-75 -54 CURVE SMOOTH",
"-85 -60 OFFCURVE",
"-79 -79 OFFCURVE",
"-66 -100 CURVE SMOOTH",
"-61 -108 OFFCURVE",
"-49 -107 OFFCURVE",
"-44 -104 CURVE SMOOTH",
"24 -57 OFFCURVE",
"81 -19 OFFCURVE",
"157 37 CURVE"
);
}
);
};
layerId = "708025F2-49C0-44F8-A7BC-D2477B3EE870";
name = "Regular Sep 15 15, 14:04";
paths = (
{
closed = 1;
nodes = (
"512 275 LINE",
"607 336 OFFCURVE",
"640 399 OFFCURVE",
"640 453 CURVE SMOOTH",
"640 509 OFFCURVE",
"599 524 OFFCURVE",
"547 524 CURVE SMOOTH",
"452 524 OFFCURVE",
"348 451 OFFCURVE",
"348 362 CURVE SMOOTH",
"348 255 OFFCURVE",
"511 246 OFFCURVE",
"511 172 CURVE SMOOTH",
"511 54 OFFCURVE",
"102 32 OFFCURVE",
"102 246 CURVE SMOOTH",
"102 314 OFFCURVE",
"153 331 OFFCURVE",
"177 331 CURVE SMOOTH",
"211 331 OFFCURVE",
"270 409 OFFCURVE",
"270 446 CURVE SMOOTH",
"270 453 OFFCURVE",
"265 459 OFFCURVE",
"249 459 CURVE SMOOTH",
"166 459 OFFCURVE",
"29 314 OFFCURVE",
"29 195 CURVE SMOOTH",
"29 45 OFFCURVE",
"123 -13 OFFCURVE",
"303 -13 CURVE SMOOTH",
"428 -13 OFFCURVE",
"592 96 OFFCURVE",
"592 210 CURVE SMOOTH",
"592 295 OFFCURVE",
"439 318 OFFCURVE",
"439 398 CURVE SMOOTH",
"439 430 OFFCURVE",
"466 455 OFFCURVE",
"496 455 CURVE SMOOTH",
"521 455 OFFCURVE",
"543 438 OFFCURVE",
"543 411 CURVE SMOOTH",
"543 379 OFFCURVE",
"535 348 OFFCURVE",
"491 318 CURVE"
);
},
{
closed = 1;
nodes = (
"217 77 LINE",
"316 142 OFFCURVE",
"416 208 OFFCURVE",
"472 248 CURVE",
"454 302 LINE",
"311 209 OFFCURVE",
"259 167 OFFCURVE",
"163 104 CURVE"
);
},
{
closed = 1;
nodes = (
"107 61 LINE",
"23 7 OFFCURVE",
"-22 -18 OFFCURVE",
"-75 -54 CURVE SMOOTH",
"-85 -60 OFFCURVE",
"-79 -79 OFFCURVE",
"-66 -100 CURVE SMOOTH",
"-61 -108 OFFCURVE",
"-49 -107 OFFCURVE",
"-44 -104 CURVE SMOOTH",
"24 -57 OFFCURVE",
"81 -19 OFFCURVE",
"157 37 CURVE"
);
}
);
width = 650;
}
);
unicode = 0C06;
},
{
color = 6;
glyphname = tlI;
lastChange = "2015-10-30 12:45:06 +0000";
layers = (
{
components = (
{
name = "CC-I-Telugu";
transform = "{1, 0, 0, 1, 22, 0}";
},
{
name = "CC-I-Telugu";
transform = "{1, 0, 0, 1, 22, 0}";
}
);
layerId = "59118767-2CA9-48AA-9373-694D24C960D8";
name = Regular;
paths = (
{
closed = 1;
nodes = (
"526 -13 OFFCURVE",
"550 -1 OFFCURVE",
"566 13 CURVE SMOOTH",
"586 31 OFFCURVE",
"595 52 OFFCURVE",
"595 78 CURVE SMOOTH",
"595 182 OFFCURVE",
"446 251 OFFCURVE",
"307 251 CURVE SMOOTH",
"148 251 OFFCURVE",
"42 161 OFFCURVE",
"42 79 CURVE SMOOTH",
"42 20 OFFCURVE",
"96 -11 OFFCURVE",
"169 -11 CURVE SMOOTH",
"260 -11 OFFCURVE",
"384 37 OFFCURVE",
"455 118 CURVE",
"409 156 LINE",
"358 110 OFFCURVE",
"268 78 OFFCURVE",
"207 78 CURVE SMOOTH",
"165 78 OFFCURVE",
"137 93 OFFCURVE",
"137 119 CURVE SMOOTH",
"137 157 OFFCURVE",
"194 188 OFFCURVE",
"264 188 CURVE SMOOTH",
"342 188 OFFCURVE",
"460 148 OFFCURVE",
"497 -2 CURVE SMOOTH",
"498 -7 OFFCURVE",
"500 -13 OFFCURVE",
"511 -13 CURVE SMOOTH"
);
}
);
width = 627;
},
{
associatedMasterId = "59118767-2CA9-48AA-9373-694D24C960D8";
layerId = "007C980B-D4B8-4034-9C99-C0930771A6D3";
name = "Regular Aug 30 15, 15:19";
paths = (
{
closed = 1;
nodes = (
"-96 190 OFFCURVE",
"-50 142 OFFCURVE",
"-14 142 CURVE SMOOTH",
"34 142 OFFCURVE",
"91 232 OFFCURVE",
"50 237 CURVE SMOOTH",
"-6 245 OFFCURVE",
"-26 249 OFFCURVE",
"-26 288 CURVE SMOOTH",
"-26 344 OFFCURVE",
"38 369 OFFCURVE",
"97 367 CURVE",
"150 464 LINE",
"27 475 OFFCURVE",
"-96 376 OFFCURVE",
"-96 245 CURVE SMOOTH"
);
},
{
closed = 1;
nodes = (
"319 56 LINE",
"532 366 OFFCURVE",
"476 464 OFFCURVE",
"458 483 CURVE SMOOTH",
"436 505 OFFCURVE",
"399 510 OFFCURVE",
"356 488 CURVE SMOOTH",
"320 470 OFFCURVE",
"279 439 OFFCURVE",
"246 401 CURVE",
"220 446 OFFCURVE",
"166 471 OFFCURVE",
"123 464 CURVE",
"76 367 LINE",
"81 367 LINE",
"121 370 OFFCURVE",
"159 349 OFFCURVE",
"174 294 CURVE",
"178 276 OFFCURVE",
"200 277 OFFCURVE",
"220 300 CURVE SMOOTH",
"246 330 OFFCURVE",
"271 364 OFFCURVE",
"301 383 CURVE SMOOTH",
"316 392 OFFCURVE",
"330 397 OFFCURVE",
"340 397 CURVE SMOOTH",
"404 397 OFFCURVE",
"398 207 OFFCURVE",
"268 90 CURVE"
);
},
{
closed = 1;
nodes = (
"12 99 LINE",
"-14 62 OFFCURVE",
"-30 21 OFFCURVE",
"-30 -20 CURVE SMOOTH",
"-30 -167 OFFCURVE",
"228 -128 OFFCURVE",
"329 75 CURVE",
"268 91 LINE",
"223 -19 OFFCURVE",
"32 -38 OFFCURVE",
"32 30 CURVE SMOOTH",
"32 48 OFFCURVE",
"39 62 OFFCURVE",
"48 72 CURVE"
);
},
{
closed = 1;
nodes = (
"90 140 OFFCURVE",
"367 93 OFFCURVE",
"380 -1 CURVE SMOOTH",
"385 -42 OFFCURVE",
"478 15 OFFCURVE",
"478 63 CURVE SMOOTH",
"478 223 OFFCURVE",
"116 218 OFFCURVE",
"-1 80 CURVE",
"37 56 LINE"
);
}
);
width = 555;
},
{
associatedMasterId = "59118767-2CA9-48AA-9373-694D24C960D8";
background = {
paths = (
{
closed = 1;
nodes = (
"468 217 LINE",
"420 240 OFFCURVE",
"360 251 OFFCURVE",
"303 251 CURVE SMOOTH",
"28 251 OFFCURVE",
"-86 -12 OFFCURVE",
"185 -12 CURVE SMOOTH",
"265 -12 OFFCURVE",
"355 37 OFFCURVE",
"431 107 CURVE",
"462 73 OFFCURVE",
"481 35 OFFCURVE",
"485 -2 CURVE SMOOTH",
"487 -24 OFFCURVE",
"526 -11 OFFCURVE",
"554 13 CURVE SMOOTH",
"617 70 OFFCURVE",
"569 159 OFFCURVE",
"494 202 CURVE"
);
},
{
closed = 1;
nodes = (
"305 188 OFFCURVE",
"349 171 OFFCURVE",
"386 146 CURVE",
"339 106 OFFCURVE",
"281 78 OFFCURVE",
"220 78 CURVE SMOOTH",
"62 78 OFFCURVE",
"120 188 OFFCURVE",
"259 188 CURVE SMOOTH"
);
}
);
};
components = (
{
name = "CC-I-Telugu";
transform = "{1, 0, 0, 1, 10, 0}";
}
);
layerId = "603699CE-138D-49FA-ACE3-B3693CAAB250";
name = "Regular Sep 17 15, 11:21";
paths = (
{
closed = 1;
nodes = (
"468 217 LINE",
"420 240 OFFCURVE",
"360 251 OFFCURVE",
"303 251 CURVE SMOOTH",
"28 251 OFFCURVE",
"-86 -12 OFFCURVE",
"185 -12 CURVE SMOOTH",
"265 -12 OFFCURVE",
"355 37 OFFCURVE",
"431 107 CURVE",
"462 73 OFFCURVE",
"481 35 OFFCURVE",
"485 -2 CURVE SMOOTH",
"487 -24 OFFCURVE",
"526 -11 OFFCURVE",
"554 13 CURVE SMOOTH",
"617 70 OFFCURVE",
"569 159 OFFCURVE",
"494 202 CURVE"
);
},
{
closed = 1;
nodes = (
"305 188 OFFCURVE",
"349 171 OFFCURVE",
"386 146 CURVE",
"339 106 OFFCURVE",
"281 78 OFFCURVE",
"220 78 CURVE SMOOTH",
"62 78 OFFCURVE",
"120 188 OFFCURVE",
"259 188 CURVE SMOOTH"
);
}
);
width = 619;
}
);
unicode = 0C07;
},
{
color = 6;
glyphname = tlII;
lastChange = "2015-10-30 12:45:06 +0000";
layers = (
{
components = (
{
name = tlRA;
transform = "{1, 0, 0, 1, 44, 0}";
}
);
layerId = "59118767-2CA9-48AA-9373-694D24C960D8";
name = Regular;
paths = (
{
closed = 1;
nodes = (
"544 269 OFFCURVE",
"448 275 OFFCURVE",
"518 269 CURVE",
"508 268 OFFCURVE",
"477 268 OFFCURVE",
"467 267 CURVE",
"274 258 OFFCURVE",
"90 248 OFFCURVE",
"77 244 CURVE",
"37 229 OFFCURVE",
"21 173 OFFCURVE",
"22 162 CURVE",
"22 160 OFFCURVE",
"23 153 OFFCURVE",
"34 155 CURVE",
"47 155 OFFCURVE",
"120 165 OFFCURVE",
"252 174 CURVE SMOOTH",
"298 177 OFFCURVE",
"377 182 OFFCURVE",
"461 187 CURVE",
"471 188 OFFCURVE",
"500 188 OFFCURVE",
"510 189 CURVE",
"457 198 OFFCURVE",
"576 197 OFFCURVE",
"594 196 CURVE",
"625 272 LINE"
);
},
{
closed = 1;
nodes = (
"597 246 LINE",
"556 192 OFFCURVE",
"534 136 OFFCURVE",
"534 88 CURVE SMOOTH",
"534 30 OFFCURVE",
"568 -13 OFFCURVE",
"645 -13 CURVE SMOOTH",
"740 -13 OFFCURVE",
"846 84 OFFCURVE",
"846 176 CURVE SMOOTH",
"846 283 OFFCURVE",
"745 282 OFFCURVE",
"625 272 CURVE",
"594 196 LINE",
"607 196 OFFCURVE",
"600 195 OFFCURVE",
"613 196 CURVE SMOOTH",
"689 200 OFFCURVE",
"754 187 OFFCURVE",
"754 134 CURVE SMOOTH",
"754 95 OFFCURVE",
"720 75 OFFCURVE",
"686 75 CURVE SMOOTH",
"650 75 OFFCURVE",
"608 97 OFFCURVE",
"608 142 CURVE SMOOTH",
"608 168 OFFCURVE",
"616 206 OFFCURVE",
"648 232 CURVE"
);
},
{
closed = 1;
nodes = (
"630 232 LINE",
"708 393 OFFCURVE",
"679 523 OFFCURVE",
"617 523 CURVE SMOOTH",
"581 523 OFFCURVE",
"542 471 OFFCURVE",
"542 438 CURVE SMOOTH",
"542 424 OFFCURVE",
"549 420 OFFCURVE",
"555 414 CURVE SMOOTH",
"616 356 OFFCURVE",
"601 287 OFFCURVE",
"578 240 CURVE"
);
}
);
width = 863;
},
{
associatedMasterId = "59118767-2CA9-48AA-9373-694D24C960D8";
background = {
components = (
{
name = tlRA;
transform = "{1, 0, 0, 1, 79, 0}";
}
);
paths = (
{
closed = 1;
nodes = (
"661 213 LINE",
"739 290 OFFCURVE",
"814 470 OFFCURVE",
"654 470 CURVE SMOOTH",
"607 470 OFFCURVE",
"576 425 OFFCURVE",
"576 381 CURVE SMOOTH",
"576 359 OFFCURVE",
"590 372 OFFCURVE",
"615 372 CURVE SMOOTH",
"641 372 OFFCURVE",
"654 353 OFFCURVE",
"654 329 CURVE SMOOTH",
"654 301 OFFCURVE",
"641 258 OFFCURVE",
"612 222 CURVE"
);
},
{
closed = 1;
nodes = (
"577 269 OFFCURVE",
"436 275 OFFCURVE",
"506 269 CURVE",
"496 268 OFFCURVE",
"485 268 OFFCURVE",
"475 267 CURVE",
"282 258 OFFCURVE",
"98 248 OFFCURVE",
"85 244 CURVE",
"45 229 OFFCURVE",
"29 173 OFFCURVE",
"30 162 CURVE",
"30 160 OFFCURVE",
"31 153 OFFCURVE",
"42 155 CURVE",
"55 155 OFFCURVE",
"128 165 OFFCURVE",
"260 174 CURVE SMOOTH",
"306 177 OFFCURVE",
"385 182 OFFCURVE",
"469 187 CURVE",
"479 188 OFFCURVE",
"488 188 OFFCURVE",
"498 189 CURVE",
"445 198 OFFCURVE",
"609 197 OFFCURVE",
"627 196 CURVE",
"658 272 LINE"
);
},
{
closed = 1;
nodes = (
"630 246 LINE",
"589 192 OFFCURVE",
"567 136 OFFCURVE",
"567 88 CURVE SMOOTH",
"567 30 OFFCURVE",
"601 -13 OFFCURVE",
"678 -13 CURVE SMOOTH",
"773 -13 OFFCURVE",
"879 84 OFFCURVE",
"879 176 CURVE SMOOTH",
"879 283 OFFCURVE",
"778 282 OFFCURVE",
"658 272 CURVE",
"627 196 LINE",
"640 196 OFFCURVE",
"633 195 OFFCURVE",
"646 196 CURVE SMOOTH",
"722 200 OFFCURVE",
"787 187 OFFCURVE",
"787 134 CURVE SMOOTH",
"787 95 OFFCURVE",
"753 75 OFFCURVE",
"719 75 CURVE SMOOTH",
"683 75 OFFCURVE",
"641 97 OFFCURVE",
"641 142 CURVE SMOOTH",
"641 168 OFFCURVE",
"649 206 OFFCURVE",
"681 232 CURVE"
);
}
);
};
components = (
{
name = tlRA;
transform = "{1, 0, 0, 1, 54, 0}";
}
);
layerId = "FA26842A-F43F-4DCA-A3AE-B4AF1D724CEC";
name = "Regular Sep 21 15, 14:18";
paths = (
{
closed = 1;
nodes = (
"643 267 LINE",
"662 314 OFFCURVE",
"692 387 OFFCURVE",
"692 452 CURVE SMOOTH",
"692 481 OFFCURVE",
"686 503 OFFCURVE",
"672 508 CURVE SMOOTH",
"633 522 OFFCURVE",
"563 489 OFFCURVE",
"563 462 CURVE SMOOTH",
"563 449 OFFCURVE",
"592 433 OFFCURVE",
"592 360 CURVE SMOOTH",
"592 332 OFFCURVE",
"590 298 OFFCURVE",
"583 267 CURVE"
);
},
{
closed = 1;
nodes = (
"532 269 OFFCURVE",
"436 275 OFFCURVE",
"506 269 CURVE",
"496 268 OFFCURVE",
"485 268 OFFCURVE",
"475 267 CURVE",
"282 258 OFFCURVE",
"98 248 OFFCURVE",
"85 244 CURVE",
"45 229 OFFCURVE",
"29 173 OFFCURVE",
"30 162 CURVE",
"30 160 OFFCURVE",
"31 153 OFFCURVE",
"42 155 CURVE",
"55 155 OFFCURVE",
"128 165 OFFCURVE",
"260 174 CURVE SMOOTH",
"306 177 OFFCURVE",
"385 182 OFFCURVE",
"469 187 CURVE",
"479 188 OFFCURVE",
"488 188 OFFCURVE",
"498 189 CURVE",
"445 198 OFFCURVE",
"564 197 OFFCURVE",
"582 196 CURVE",
"613 272 LINE"
);
},
{
closed = 1;
nodes = (
"585 246 LINE",
"544 192 OFFCURVE",
"522 136 OFFCURVE",
"522 88 CURVE SMOOTH",
"522 30 OFFCURVE",
"556 -13 OFFCURVE",
"633 -13 CURVE SMOOTH",
"728 -13 OFFCURVE",
"834 84 OFFCURVE",
"834 176 CURVE SMOOTH",
"834 283 OFFCURVE",
"733 282 OFFCURVE",
"613 272 CURVE",
"582 196 LINE",
"595 196 OFFCURVE",
"588 195 OFFCURVE",
"601 196 CURVE SMOOTH",
"677 200 OFFCURVE",
"742 187 OFFCURVE",
"742 134 CURVE SMOOTH",
"742 95 OFFCURVE",
"708 75 OFFCURVE",
"674 75 CURVE SMOOTH",
"638 75 OFFCURVE",
"596 97 OFFCURVE",
"596 142 CURVE SMOOTH",
"596 168 OFFCURVE",
"604 206 OFFCURVE",
"636 232 CURVE"
);
}
);
width = 834;
}
);
leftMetricsKey = knII;
unicode = 0C08;
},
{
color = 6;
glyphname = tlU;
lastChange = "2015-10-30 12:45:06 +0000";
layers = (
{
components = (
{
name = "CC-u-telugu";
transform = "{1, 0, 0, 1, 49, 0}";
},
{
name = "CC-topdash";
transform = "{0.994, 0, 0, 1.217, 398, -57}";
}
);
layerId = "59118767-2CA9-48AA-9373-694D24C960D8";
name = Regular;
paths = (
{
closed = 1;
nodes = (
"351 406 OFFCURVE",
"92 397 OFFCURVE",
"75 392 CURVE SMOOTH",
"35 377 OFFCURVE",
"19 321 OFFCURVE",
"20 310 CURVE SMOOTH",
"20 308 OFFCURVE",
"21 301 OFFCURVE",
"32 303 CURVE SMOOTH",
"45 303 OFFCURVE",
"118 316 OFFCURVE",
"210 322 CURVE SMOOTH",
"342 331 OFFCURVE",
"416 324 OFFCURVE",
"431 324 CURVE SMOOTH",
"467 326 OFFCURVE",
"504 382 OFFCURVE",
"502 398 CURVE SMOOTH",
"502 405 OFFCURVE",
"495 409 OFFCURVE",
"490 409 CURVE"
);
}
);
width = 645;
},
{
associatedMasterId = "59118767-2CA9-48AA-9373-694D24C960D8";
background = {
paths = (
{
closed = 1;
nodes = (
"523 246 LINE",
"534 153 OFFCURVE",
"464 87 OFFCURVE",
"401 87 CURVE SMOOTH",
"365 87 OFFCURVE",
"332 108 OFFCURVE",
"318 158 CURVE",
"314 176 OFFCURVE",
"292 175 OFFCURVE",
"272 152 CURVE SMOOTH",
"246 122 OFFCURVE",
"221 88 OFFCURVE",
"191 69 CURVE",
"151 46 OFFCURVE",
"124 48 OFFCURVE",
"124 102 CURVE SMOOTH",
"124 178 OFFCURVE",
"178 267 OFFCURVE",
"244 350 CURVE",
"352 391 OFFCURVE",
"486 362 OFFCURVE",
"517 268 CURVE",
"600 299 LINE",
"589 411 OFFCURVE",
"514 463 OFFCURVE",
"382 463 CURVE SMOOTH",
"280 463 OFFCURVE",
"162 428 OFFCURVE",
"80 374 CURVE",
"71 362 OFFCURVE",
"68 351 OFFCURVE",
"68 336 CURVE SMOOTH",
"68 313 OFFCURVE",
"84 310 OFFCURVE",
"99 310 CURVE SMOOTH",
"113 310 OFFCURVE",
"144 323 OFFCURVE",
"171 335 CURVE",
"68 223 OFFCURVE",
"10 117 OFFCURVE",
"10 36 CURVE SMOOTH",
"10 -35 OFFCURVE",
"65 -73 OFFCURVE",
"136 -36 CURVE SMOOTH",
"172 -18 OFFCURVE",
"213 13 OFFCURVE",
"246 51 CURVE",
"269 11 OFFCURVE",
"315 -13 OFFCURVE",
"355 -13 CURVE SMOOTH",
"502 -13 OFFCURVE",
"610 168 OFFCURVE",
"602 282 CURVE"
);
}
);
};
layerId = "2462BBA4-AD92-4A11-A135-D8301EA5000C";
name = "Regular Aug 30 15, 10:06";
paths = (
{
closed = 1;
nodes = (
"497 374 OFFCURVE",
"578 447 OFFCURVE",
"545 476 CURVE",
"508 508 OFFCURVE",
"453 523 OFFCURVE",
"382 523 CURVE SMOOTH",
"240 523 OFFCURVE",
"-20 277 OFFCURVE",
"-20 36 CURVE SMOOTH",
"-20 -35 OFFCURVE",
"35 -73 OFFCURVE",
"106 -36 CURVE SMOOTH",
"142 -18 OFFCURVE",
"183 13 OFFCURVE",
"216 51 CURVE",
"239 11 OFFCURVE",
"285 -13 OFFCURVE",
"365 -13 CURVE SMOOTH",
"531 -13 OFFCURVE",
"609 105 OFFCURVE",
"609 180 CURVE SMOOTH",
"609 226 OFFCURVE",
"579 284 OFFCURVE",
"524 284 CURVE SMOOTH",
"477 284 OFFCURVE",
"399 264 OFFCURVE",
"387 162 CURVE SMOOTH",
"382 121 OFFCURVE",
"444 96 OFFCURVE",
"472 145 CURVE SMOOTH",
"500 194 OFFCURVE",
"548 207 OFFCURVE",
"548 159 CURVE SMOOTH",
"548 130 OFFCURVE",
"506 62 OFFCURVE",
"409 62 CURVE SMOOTH",
"320 62 OFFCURVE",
"302 108 OFFCURVE",
"288 158 CURVE",
"284 176 OFFCURVE",
"262 175 OFFCURVE",
"242 152 CURVE SMOOTH",
"216 122 OFFCURVE",
"191 88 OFFCURVE",
"161 69 CURVE",
"121 46 OFFCURVE",
"94 48 OFFCURVE",
"94 102 CURVE SMOOTH",
"94 245 OFFCURVE",
"200 447 OFFCURVE",
"375 426 CURVE SMOOTH",
"405 422 OFFCURVE",
"433 414 OFFCURVE",
"457 400 CURVE"
);
},
{
closed = 1;
nodes = (
"413 299 OFFCURVE",
"423 346 OFFCURVE",
"403 344 CURVE",
"295 337 OFFCURVE",
"-33 308 OFFCURVE",
"-33 314 CURVE",
"-55 303 OFFCURVE",
"-68 268 OFFCURVE",
"-54 258 CURVE SMOOTH",
"-47 252 OFFCURVE",
"-30 255 OFFCURVE",
"-25 255 CURVE SMOOTH",
"47 257 OFFCURVE",
"242 270 OFFCURVE",
"393 291 CURVE"
);
},
{
closed = 1;
nodes = (
"291 610 OFFCURVE",
"281 526 OFFCURVE",
"281 471 CURVE",
"386 501 LINE",
"386 556 OFFCURVE",
"396 640 OFFCURVE",
"406 695 CURVE",
"386 705 OFFCURVE",
"321 695 OFFCURVE",
"301 665 CURVE"
);
}
);
width = 555;
},
{
associatedMasterId = "59118767-2CA9-48AA-9373-694D24C960D8";
background = {
paths = (
{
closed = 1;
nodes = (
"640 246 LINE",
"651 153 OFFCURVE",
"581 87 OFFCURVE",
"518 87 CURVE SMOOTH",
"482 87 OFFCURVE",
"449 108 OFFCURVE",
"435 158 CURVE",
"431 176 OFFCURVE",
"409 175 OFFCURVE",
"389 152 CURVE SMOOTH",
"363 122 OFFCURVE",
"338 88 OFFCURVE",
"308 69 CURVE",
"268 46 OFFCURVE",
"241 48 OFFCURVE",
"241 102 CURVE SMOOTH",
"241 178 OFFCURVE",
"295 267 OFFCURVE",
"361 350 CURVE",
"469 391 OFFCURVE",
"603 362 OFFCURVE",
"634 268 CURVE",
"717 299 LINE",
"706 411 OFFCURVE",
"631 463 OFFCURVE",
"499 463 CURVE SMOOTH",
"397 463 OFFCURVE",
"279 428 OFFCURVE",
"197 374 CURVE",
"188 362 OFFCURVE",
"185 351 OFFCURVE",
"185 336 CURVE SMOOTH",
"185 313 OFFCURVE",
"201 310 OFFCURVE",
"216 310 CURVE SMOOTH",
"230 310 OFFCURVE",
"261 323 OFFCURVE",
"288 335 CURVE",
"185 223 OFFCURVE",
"127 117 OFFCURVE",
"127 36 CURVE SMOOTH",
"127 -35 OFFCURVE",
"182 -73 OFFCURVE",
"253 -36 CURVE SMOOTH",
"289 -18 OFFCURVE",
"330 13 OFFCURVE",
"363 51 CURVE",
"386 11 OFFCURVE",
"432 -13 OFFCURVE",
"472 -13 CURVE SMOOTH",
"619 -13 OFFCURVE",
"727 168 OFFCURVE",
"719 282 CURVE"
);
}
);
};
components = (
{
name = "CC-u-telugu";
transform = "{1, 0, 0, 1, 10, 0}";
}
);
layerId = "D44FACCB-66D6-4F51-A4CE-05F988DF7884";
name = "Regular Sep 5 15, 18:33";
paths = (
{
closed = 1;
nodes = (
"368 590 OFFCURVE",
"358 546 OFFCURVE",
"358 491 CURVE",
"463 521 LINE",
"463 576 OFFCURVE",
"473 620 OFFCURVE",
"483 675 CURVE",
"463 685 OFFCURVE",
"398 675 OFFCURVE",
"378 645 CURVE"
);
},
{
closed = 1;
nodes = (
"604 321 OFFCURVE",
"621 355 OFFCURVE",
"614 379 CURVE",
"405 375 OFFCURVE",
"266 359 OFFCURVE",
"58 326 CURVE",
"36 315 OFFCURVE",
"22 261 OFFCURVE",
"36 251 CURVE SMOOTH",
"43 244 OFFCURVE",
"60 246 OFFCURVE",
"66 247 CURVE SMOOTH",
"355 288 OFFCURVE",
"494 304 OFFCURVE",
"574 308 CURVE"
);
}
);
width = 776;
}
);
unicode = 0C09;
},
{
color = 6;
glyphname = tlUU;
lastChange = "2015-10-30 12:45:06 +0000";
layers = (
{
components = (
{
name = "CC-u-telugu";
transform = "{1, 0, 0, 1, 49, 0}";
},
{
name = "CC-topdash";
transform = "{0.969, 0, 0, 1.089, 464, 25}";
},
{
name = "CC-topdash";
transform = "{0.856, 0, 0, 1.299, 325, -127}";
}
);
layerId = "59118767-2CA9-48AA-9373-694D24C960D8";
name = Regular;
paths = (
{
closed = 1;
nodes = (
"601 425 OFFCURVE",
"98 400 OFFCURVE",
"75 393 CURVE",
"35 378 OFFCURVE",
"19 322 OFFCURVE",
"20 311 CURVE",
"20 309 OFFCURVE",
"21 302 OFFCURVE",
"32 304 CURVE",
"45 304 OFFCURVE",
"118 314 OFFCURVE",
"250 323 CURVE SMOOTH",
"382 332 OFFCURVE",
"738 356 OFFCURVE",
"767 355 CURVE",
"798 431 LINE"
);
},
{
closed = 1;
nodes = (
"770 405 LINE",
"729 351 OFFCURVE",
"707 295 OFFCURVE",
"707 247 CURVE SMOOTH",
"707 189 OFFCURVE",
"741 146 OFFCURVE",
"818 146 CURVE SMOOTH",
"913 146 OFFCURVE",
"1019 243 OFFCURVE",
"1019 335 CURVE SMOOTH",
"1019 442 OFFCURVE",
"918 441 OFFCURVE",
"798 431 CURVE",
"767 355 LINE",
"780 355 OFFCURVE",
"773 354 OFFCURVE",
"786 355 CURVE SMOOTH",
"862 359 OFFCURVE",
"927 346 OFFCURVE",
"927 293 CURVE SMOOTH",
"927 254 OFFCURVE",
"893 234 OFFCURVE",
"859 234 CURVE SMOOTH",
"823 234 OFFCURVE",
"781 256 OFFCURVE",
"781 301 CURVE SMOOTH",
"781 327 OFFCURVE",
"789 365 OFFCURVE",
"821 391 CURVE"
);
},
{
closed = 1;
nodes = (
"804 391 LINE",
"882 552 OFFCURVE",
"853 680 OFFCURVE",
"791 680 CURVE SMOOTH",
"755 680 OFFCURVE",
"716 630 OFFCURVE",
"716 597 CURVE SMOOTH",
"716 583 OFFCURVE",
"723 579 OFFCURVE",
"729 573 CURVE SMOOTH",
"790 515 OFFCURVE",
"775 446 OFFCURVE",
"752 399 CURVE"
);
}
);
width = 1021;
},
{
associatedMasterId = "59118767-2CA9-48AA-9373-694D24C960D8";
components = (
{
name = "CC-u-telugu";
transform = "{1, 0, 0, 1, 10, 0}";
}
);
layerId = "4E675E00-659D-4F53-A154-8B3CC3D1BB9D";
name = "Regular Sep 5 15, 18:34";
paths = (
{
closed = 1;
nodes = (
"844 356 LINE",
"809 295 OFFCURVE",
"790 229 OFFCURVE",
"790 178 CURVE SMOOTH",
"790 118 OFFCURVE",
"836 94 OFFCURVE",
"881 94 CURVE SMOOTH",
"937 94 OFFCURVE",
"988 134 OFFCURVE",
"1020 183 CURVE SMOOTH",
"1108 320 OFFCURVE",
"1029 389 OFFCURVE",
"908 389 CURVE SMOOTH",
"575 389 OFFCURVE",
"284 362 OFFCURVE",
"58 326 CURVE",
"36 315 OFFCURVE",
"22 261 OFFCURVE",
"36 251 CURVE SMOOTH",
"43 244 OFFCURVE",
"60 246 OFFCURVE",
"66 247 CURVE SMOOTH",
"513 310 OFFCURVE",
"892 345 OFFCURVE",
"968 288 CURVE SMOOTH",
"1010 256 OFFCURVE",
"978 184 OFFCURVE",
"928 184 CURVE SMOOTH",
"904 184 OFFCURVE",
"878 198 OFFCURVE",
"878 232 CURVE SMOOTH",
"878 259 OFFCURVE",
"886 310 OFFCURVE",
"910 357 CURVE"
);
},
{
closed = 1;
nodes = (
"318 590 OFFCURVE",
"308 496 OFFCURVE",
"308 441 CURVE",
"403 521 LINE",
"403 576 OFFCURVE",
"413 620 OFFCURVE",
"423 675 CURVE",
"403 685 OFFCURVE",
"348 675 OFFCURVE",
"328 645 CURVE"
);
},
{
closed = 1;
nodes = (
"458 590 OFFCURVE",
"448 546 OFFCURVE",
"448 491 CURVE",
"543 521 LINE",
"543 576 OFFCURVE",
"553 620 OFFCURVE",
"563 675 CURVE",
"543 685 OFFCURVE",
"488 675 OFFCURVE",
"468 645 CURVE"
);
},
{
closed = 1;
nodes = (
"913 377 LINE",
"927 429 OFFCURVE",
"952 487 OFFCURVE",
"952 552 CURVE SMOOTH",
"952 581 OFFCURVE",
"946 603 OFFCURVE",
"932 608 CURVE SMOOTH",
"893 622 OFFCURVE",
"823 589 OFFCURVE",
"823 562 CURVE SMOOTH",
"823 549 OFFCURVE",
"852 533 OFFCURVE",
"852 460 CURVE SMOOTH",
"852 432 OFFCURVE",
"849 402 OFFCURVE",
"843 377 CURVE"
);
}
);
width = 1087;
},
{
associatedMasterId = "59118767-2CA9-48AA-9373-694D24C960D8";
background = {
paths = (
{
closed = 1;
nodes = (
"594 371 OFFCURVE",
"611 405 OFFCURVE",
"604 429 CURVE",
"395 425 OFFCURVE",
"256 409 OFFCURVE",
"48 376 CURVE",
"26 365 OFFCURVE",
"12 311 OFFCURVE",
"26 301 CURVE SMOOTH",
"33 294 OFFCURVE",
"50 296 OFFCURVE",
"56 297 CURVE SMOOTH",
"345 338 OFFCURVE",
"484 354 OFFCURVE",
"564 358 CURVE"
);
}
);
};
components = (
{
name = "CC-u-telugu";
transform = "{1, 0, 0, 1, 30, 0}";
},
{
name = "CC-topdash";
transform = "{0.969, 0, 0, 1.089, 445, 25}";
},
{
name = "CC-topdash";
transform = "{0.963, 0, 0, 1.299, 301, -127}";
}
);
layerId = "10F93D30-5AC3-4246-9039-E6DD74631B91";
name = "Regular Sep 21 15, 13:37";
paths = (
{
closed = 1;
nodes = (
"802 406 LINE",
"767 345 OFFCURVE",
"748 279 OFFCURVE",
"748 228 CURVE SMOOTH",
"748 168 OFFCURVE",
"794 144 OFFCURVE",
"839 144 CURVE SMOOTH",
"895 144 OFFCURVE",
"946 184 OFFCURVE",
"978 233 CURVE SMOOTH",
"1066 370 OFFCURVE",
"987 439 OFFCURVE",
"866 439 CURVE SMOOTH",
"533 439 OFFCURVE",
"272 412 OFFCURVE",
"46 376 CURVE",
"24 365 OFFCURVE",
"10 311 OFFCURVE",
"24 301 CURVE SMOOTH",
"31 294 OFFCURVE",
"48 296 OFFCURVE",
"54 297 CURVE SMOOTH",
"501 360 OFFCURVE",
"850 395 OFFCURVE",
"926 338 CURVE SMOOTH",
"968 306 OFFCURVE",
"936 234 OFFCURVE",
"886 234 CURVE SMOOTH",
"862 234 OFFCURVE",
"836 248 OFFCURVE",
"836 282 CURVE SMOOTH",
"836 309 OFFCURVE",
"844 360 OFFCURVE",
"868 407 CURVE"
);
},
{
closed = 1;
nodes = (
"871 427 LINE",
"885 479 OFFCURVE",
"910 547 OFFCURVE",
"910 612 CURVE SMOOTH",
"910 641 OFFCURVE",
"904 663 OFFCURVE",
"890 668 CURVE SMOOTH",
"851 682 OFFCURVE",
"781 649 OFFCURVE",
"781 622 CURVE SMOOTH",
"781 609 OFFCURVE",
"810 593 OFFCURVE",
"810 510 CURVE SMOOTH",
"810 482 OFFCURVE",
"807 452 OFFCURVE",
"801 427 CURVE"
);
}
);
width = 1045;
},
{
associatedMasterId = "59118767-2CA9-48AA-9373-694D24C960D8";
components = (
{
name = "CC-u-telugu";
transform = "{1, 0, 0, 1, 30, 0}";
},
{
name = "CC-topdash";
transform = "{0.969, 0, 0, 1.089, 445, 25}";
},
{
name = "CC-topdash";
transform = "{0.963, 0, 0, 1.299, 301, -127}";
}
);
layerId = "56DDA7B7-6800-4A27-9B23-D626F7027C56";
name = "Regular Sep 21 15, 14:20";
paths = (
{
closed = 1;
nodes = (
"748 355 LINE",
"761 355 OFFCURVE",
"754 354 OFFCURVE",
"767 355 CURVE SMOOTH",
"843 359 OFFCURVE",
"908 346 OFFCURVE",
"908 293 CURVE SMOOTH",
"908 254 OFFCURVE",
"874 234 OFFCURVE",
"840 234 CURVE SMOOTH",
"804 234 OFFCURVE",
"762 256 OFFCURVE",
"762 301 CURVE SMOOTH",
"762 324 OFFCURVE",
"768 356 OFFCURVE",
"791 381 CURVE SMOOTH",
"865 462 OFFCURVE",
"929 629 OFFCURVE",
"775 629 CURVE SMOOTH",
"728 629 OFFCURVE",
"697 584 OFFCURVE",
"697 540 CURVE SMOOTH",
"697 518 OFFCURVE",
"711 531 OFFCURVE",
"736 531 CURVE SMOOTH",
"762 531 OFFCURVE",
"775 512 OFFCURVE",
"775 488 CURVE SMOOTH",
"775 463 OFFCURVE",
"765 426 OFFCURVE",
"742 393 CURVE SMOOTH",
"707 343 OFFCURVE",
"688 291 OFFCURVE",
"688 247 CURVE SMOOTH",
"688 189 OFFCURVE",
"722 146 OFFCURVE",
"799 146 CURVE SMOOTH",
"894 146 OFFCURVE",
"1000 243 OFFCURVE",
"1000 335 CURVE SMOOTH",
"1000 442 OFFCURVE",
"899 441 OFFCURVE",
"779 431 CURVE"
);
},
{
closed = 1;
nodes = (
"572 425 OFFCURVE",
"39 400 OFFCURVE",
"16 393 CURVE",
"-24 378 OFFCURVE",
"-40 322 OFFCURVE",
"-39 311 CURVE",
"-39 309 OFFCURVE",
"-38 302 OFFCURVE",
"-27 304 CURVE",
"-14 304 OFFCURVE",
"59 314 OFFCURVE",
"191 323 CURVE SMOOTH",
"323 332 OFFCURVE",
"719 356 OFFCURVE",
"748 355 CURVE",
"779 431 LINE"
);
}
);
width = 1045;
}
);
leftMetricsKey = tlU;
unicode = 0C0A;
},
{
color = 6;
glyphname = tlvL;
lastChange = "2015-10-30 12:45:06 +0000";
layers = (
{
layerId = "59118767-2CA9-48AA-9373-694D24C960D8";
name = Regular;
paths = (
{
closed = 1;
nodes = (
"613 613 OFFCURVE",
"577 551 OFFCURVE",
"577 529 CURVE SMOOTH",
"577 516 OFFCURVE",
"583 511 OFFCURVE",
"594 506 CURVE SMOOTH",
"651 479 OFFCURVE",
"688 408 OFFCURVE",
"688 308 CURVE SMOOTH",
"688 145 OFFCURVE",
"530 37 OFFCURVE",
"325 37 CURVE SMOOTH",
"251 37 OFFCURVE",
"213 51 OFFCURVE",
"213 85 CURVE SMOOTH",
"213 119 OFFCURVE",
"252 141 OFFCURVE",
"316 159 CURVE SMOOTH",
"438 194 OFFCURVE",
"563 256 OFFCURVE",
"563 392 CURVE SMOOTH",
"563 451 OFFCURVE",
"530 501 OFFCURVE",
"463 501 CURVE SMOOTH",
"406 501 OFFCURVE",
"330 462 OFFCURVE",
"284 384 CURVE",
"323 383 LINE",
"297 441 OFFCURVE",
"248 466 OFFCURVE",
"201 466 CURVE SMOOTH",
"105 466 OFFCURVE",
"22 365 OFFCURVE",
"22 326 CURVE SMOOTH",
"22 308 OFFCURVE",
"40 297 OFFCURVE",
"54 297 CURVE SMOOTH",
"62 297 OFFCURVE",
"68 300 OFFCURVE",
"71 304 CURVE SMOOTH",
"102 346 OFFCURVE",
"116 368 OFFCURVE",
"160 368 CURVE SMOOTH",
"239 368 OFFCURVE",
"224 297 OFFCURVE",
"244 286 CURVE SMOOTH",
"247 284 OFFCURVE",
"257 282 OFFCURVE",
"262 282 CURVE SMOOTH",
"271 282 OFFCURVE",
"278 287 OFFCURVE",
"289 300 CURVE SMOOTH",
"317 334 OFFCURVE",
"351 398 OFFCURVE",
"410 398 CURVE SMOOTH",
"444 398 OFFCURVE",
"471 376 OFFCURVE",
"471 339 CURVE SMOOTH",
"471 279 OFFCURVE",
"403 256 OFFCURVE",
"327 231 CURVE SMOOTH",
"222 197 OFFCURVE",
"111 163 OFFCURVE",
"111 61 CURVE SMOOTH",
"111 -17 OFFCURVE",
"176 -53 OFFCURVE",
"295 -53 CURVE SMOOTH",
"540 -53 OFFCURVE",
"778 109 OFFCURVE",
"778 366 CURVE SMOOTH",
"778 498 OFFCURVE",
"727 613 OFFCURVE",
"650 613 CURVE SMOOTH"
);
}
);
width = 825;
},
{
associatedMasterId = "59118767-2CA9-48AA-9373-694D24C960D8";
components = (
{
name = "CC-I-Telugu";
},
{
name = knmU;
transform = "{1, 0, 0, 1, 624, 0}";
}
);
layerId = "22F1D776-5341-4731-91CC-FD3582DC2019";
name = "Regular Aug 31 15, 20:12";
paths = (
{
closed = 1;
nodes = (
"471 210 LINE",
"421 238 OFFCURVE",
"355 251 OFFCURVE",
"293 251 CURVE SMOOTH",
"18 251 OFFCURVE",
"-96 -12 OFFCURVE",
"175 -12 CURVE SMOOTH",
"259 -12 OFFCURVE",
"355 42 OFFCURVE",
"433 118 CURVE",
"387 156 LINE",
"338 111 OFFCURVE",
"276 78 OFFCURVE",
"210 78 CURVE SMOOTH",
"52 78 OFFCURVE",
"110 188 OFFCURVE",
"249 188 CURVE SMOOTH",
"305 188 OFFCURVE",
"359 162 OFFCURVE",
"400 127 CURVE"
);
}
);
width = 888;
},
{
associatedMasterId = "59118767-2CA9-48AA-9373-694D24C960D8";
background = {
paths = (
{
closed = 1;
nodes = (
"561 633 OFFCURVE",
"521 533 OFFCURVE",
"562 526 CURVE SMOOTH",
"637 516 OFFCURVE",
"676 438 OFFCURVE",
"676 347 CURVE SMOOTH",
"676 149 OFFCURVE",
"550 37 OFFCURVE",
"341 37 CURVE SMOOTH",
"272 37 OFFCURVE",
"213 53 OFFCURVE",
"213 94 CURVE SMOOTH",
"213 125 OFFCURVE",
"237 131 OFFCURVE",
"300 146 CURVE SMOOTH",
"494 192 OFFCURVE",
"572 302 OFFCURVE",
"571 404 CURVE SMOOTH",
"570 453 OFFCURVE",
"546 493 OFFCURVE",
"498 501 CURVE SMOOTH",
"479 504 OFFCURVE",
"456 500 OFFCURVE",
"432 488 CURVE SMOOTH",
"396 470 OFFCURVE",
"355 439 OFFCURVE",
"322 401 CURVE",
"259 511 OFFCURVE",
"88 475 OFFCURVE",
"36 345 CURVE SMOOTH",
"12 284 OFFCURVE",
"68 284 OFFCURVE",
"88 319 CURVE SMOOTH",
"130 397 OFFCURVE",
"228 378 OFFCURVE",
"250 294 CURVE",
"254 276 OFFCURVE",
"276 277 OFFCURVE",
"296 300 CURVE SMOOTH",
"330 339 OFFCURVE",
"374 398 OFFCURVE",
"421 398 CURVE SMOOTH",
"522 398 OFFCURVE",
"491 251 OFFCURVE",
"332 222 CURVE SMOOTH",
"168 192 OFFCURVE",
"119 126 OFFCURVE",
"119 71 CURVE SMOOTH",
"119 -14 OFFCURVE",
"219 -53 OFFCURVE",
"329 -53 CURVE SMOOTH",
"584 -53 OFFCURVE",
"756 149 OFFCURVE",
"756 405 CURVE SMOOTH",
"756 431 OFFCURVE",
"754 457 OFFCURVE",
"750 483 CURVE SMOOTH",
"735 572 OFFCURVE",
"677 635 OFFCURVE",
"609 633 CURVE SMOOTH"
);
}
);
};
layerId = "CB0DDE3F-1C1C-4AD7-99BC-F3D90B5568B9";
name = "Regular Sep 17 15, 21:08";
paths = (
{
closed = 1;
nodes = (
"595 643 OFFCURVE",
"565 593 OFFCURVE",
"565 561 CURVE SMOOTH",
"565 548 OFFCURVE",
"570 538 OFFCURVE",
"582 536 CURVE SMOOTH",
"644 525 OFFCURVE",
"676 443 OFFCURVE",
"676 347 CURVE SMOOTH",
"676 149 OFFCURVE",
"550 37 OFFCURVE",
"341 37 CURVE SMOOTH",
"272 37 OFFCURVE",
"213 53 OFFCURVE",
"213 93 CURVE SMOOTH",
"213 177 OFFCURVE",
"570 149 OFFCURVE",
"570 390 CURVE",
"479 337 LINE",
"479 210 OFFCURVE",
"119 249 OFFCURVE",
"119 61 CURVE SMOOTH",
"119 -17 OFFCURVE",
"219 -53 OFFCURVE",
"329 -53 CURVE SMOOTH",
"584 -53 OFFCURVE",
"756 149 OFFCURVE",
"756 405 CURVE SMOOTH",
"756 507 OFFCURVE",
"725 646 OFFCURVE",
"629 643 CURVE SMOOTH"
);
},
{
closed = 1;
nodes = (
"479 302 OFFCURVE",
"570 324 OFFCURVE",
"570 390 CURVE SMOOTH",
"570 464 OFFCURVE",
"526 501 OFFCURVE",
"471 501 CURVE SMOOTH",
"410 501 OFFCURVE",
"329 456 OFFCURVE",
"283 369 CURVE",
"336 368 LINE",
"315 436 OFFCURVE",
"261 466 OFFCURVE",
"209 466 CURVE SMOOTH",
"113 466 OFFCURVE",
"30 365 OFFCURVE",
"30 326 CURVE SMOOTH",
"30 308 OFFCURVE",
"48 297 OFFCURVE",
"62 297 CURVE SMOOTH",
"70 297 OFFCURVE",
"76 300 OFFCURVE",
"79 304 CURVE SMOOTH",
"110 346 OFFCURVE",
"124 368 OFFCURVE",
"168 368 CURVE SMOOTH",
"247 368 OFFCURVE",
"232 297 OFFCURVE",
"252 286 CURVE SMOOTH",
"255 284 OFFCURVE",
"265 282 OFFCURVE",
"270 282 CURVE SMOOTH",
"279 282 OFFCURVE",
"286 287 OFFCURVE",
"297 300 CURVE SMOOTH",
"325 334 OFFCURVE",
"359 398 OFFCURVE",
"418 398 CURVE SMOOTH",
"452 398 OFFCURVE",
"479 377 OFFCURVE",
"479 337 CURVE SMOOTH"
);
}
);
width = 786;
}
);
leftMetricsKey = tlI;
unicode = 0C0C;
},
{
color = 6;
glyphname = tlE;
lastChange = "2015-10-30 12:45:06 +0000";
layers = (
{
components = (
{
name = "CC-pa-telugu";
transform = "{1, 0, 0, 1, -4, 0}";
}
);
layerId = "59118767-2CA9-48AA-9373-694D24C960D8";
name = Regular;
paths = (
{
closed = 1;
nodes = (
"548 429 OFFCURVE",
"484 501 CURVE SMOOTH",
"436 555 OFFCURVE",
"349 613 OFFCURVE",
"297 613 CURVE SMOOTH",
"238 613 OFFCURVE",
"217 540 OFFCURVE",
"217 527 CURVE SMOOTH",
"217 518 OFFCURVE",
"221 511 OFFCURVE",
"230 509 CURVE SMOOTH",
"366 477 OFFCURVE",
"517 349 OFFCURVE",
"517 211 CURVE SMOOTH",
"517 131 OFFCURVE",
"471 89 OFFCURVE",
"413 89 CURVE SMOOTH",
"369 89 OFFCURVE",
"324 118 OFFCURVE",
"305 177 CURVE",
"241 73 LINE",
"261 16 OFFCURVE",
"315 -12 OFFCURVE",
"371 -12 CURVE SMOOTH",
"469 -12 OFFCURVE",
"585 75 OFFCURVE",
"585 247 CURVE SMOOTH",
"585 337 OFFCURVE"
);
}
);
width = 617;
}
);
leftMetricsKey = knPA;
unicode = 0C0E;
},
{
color = 6;
glyphname = tlEE;
lastChange = "2015-10-30 12:45:06 +0000";
layers = (
{
background = {
paths = (
{
closed = 1;
nodes = (
"306 399 OFFCURVE",
"392 511 OFFCURVE",
"392 593 CURVE SMOOTH",
"392 648 OFFCURVE",
"354 661 OFFCURVE",
"275 661 CURVE SMOOTH",
"240 661 OFFCURVE",
"216 657 OFFCURVE",
"184 657 CURVE SMOOTH",
"158 657 OFFCURVE",
"149 669 OFFCURVE",
"149 677 CURVE SMOOTH",
"149 700 OFFCURVE",
"181 739 OFFCURVE",
"250 739 CURVE SMOOTH",
"300 739 OFFCURVE",
"310 715 OFFCURVE",
"326 715 CURVE SMOOTH",
"343 715 OFFCURVE",
"387 740 OFFCURVE",
"387 767 CURVE SMOOTH",
"387 784 OFFCURVE",
"368 828 OFFCURVE",
"299 828 CURVE SMOOTH",
"190 828 OFFCURVE",
"79 719 OFFCURVE",
"79 635 CURVE SMOOTH",
"79 585 OFFCURVE",
"120 572 OFFCURVE",
"191 572 CURVE SMOOTH",
"229 572 OFFCURVE",
"261 578 OFFCURVE",
"296 578 CURVE SMOOTH",
"318 578 OFFCURVE",
"334 566 OFFCURVE",
"334 555 CURVE SMOOTH",
"334 529 OFFCURVE",
"297 490 OFFCURVE",
"211 490 CURVE SMOOTH",
"160 490 OFFCURVE",
"114 514 OFFCURVE",
"98 514 CURVE SMOOTH",
"76 514 OFFCURVE",
"42 488 OFFCURVE",
"42 460 CURVE SMOOTH",
"42 420 OFFCURVE",
"112 399 OFFCURVE",
"170 399 CURVE SMOOTH"
);
}
);
};
components = (
{
name = tlE;
}
);
layerId = "59118767-2CA9-48AA-9373-694D24C960D8";
name = Regular;
paths = (
{
closed = 1;
nodes = (
"391 741 OFFCURVE",
"391 770 CURVE SMOOTH",
"391 796 OFFCURVE",
"361 830 OFFCURVE",
"291 830 CURVE SMOOTH",
"179 830 OFFCURVE",
"59 741 OFFCURVE",
"59 589 CURVE SMOOTH",
"59 502 OFFCURVE",
"113 394 OFFCURVE",
"157 394 CURVE SMOOTH",
"180 394 OFFCURVE",
"191 407 OFFCURVE",
"191 426 CURVE SMOOTH",
"191 459 OFFCURVE",
"129 506 OFFCURVE",
"129 592 CURVE SMOOTH",
"129 672 OFFCURVE",
"186 734 OFFCURVE",
"269 734 CURVE SMOOTH",
"316 734 OFFCURVE",
"328 714 OFFCURVE",
"340 714 CURVE SMOOTH",
"355 714 OFFCURVE"
);
}
);
width = 645;
}
);
leftMetricsKey = knPA;
unicode = 0C0F;
},
{
color = 6;
glyphname = tlAI;
lastChange = "2015-10-30 12:45:06 +0000";
layers = (
{
components = (
{
name = "CC-pa-telugu";
transform = "{1, 0, 0, 1, 32, 0}";
}
);
layerId = "59118767-2CA9-48AA-9373-694D24C960D8";
name = Regular;
paths = (
{
closed = 1;
nodes = (
"419 432 LINE",
"387 466 OFFCURVE",
"342 486 OFFCURVE",
"301 486 CURVE SMOOTH",
"225 486 OFFCURVE",
"130 451 OFFCURVE",
"98 378 CURVE SMOOTH",
"87 354 OFFCURVE",
"89 337 OFFCURVE",
"105 327 CURVE SMOOTH",
"115 321 OFFCURVE",
"133 319 OFFCURVE",
"146 340 CURVE SMOOTH",
"167 372 OFFCURVE",
"197 392 OFFCURVE",
"244 392 CURVE SMOOTH",
"318 392 OFFCURVE",
"327 330 OFFCURVE",
"356 330 CURVE SMOOTH",
"367 330 OFFCURVE",
"380 340 OFFCURVE",
"401 363 CURVE SMOOTH",
"438 405 OFFCURVE",
"479 424 OFFCURVE",
"518 424 CURVE SMOOTH",
"602 424 OFFCURVE",
"633 322 OFFCURVE",
"633 258 CURVE SMOOTH",
"633 157 OFFCURVE",
"566 86 OFFCURVE",
"470 86 CURVE SMOOTH",
"422 86 OFFCURVE",
"368 108 OFFCURVE",
"336 160 CURVE",
"262 60 LINE",
"312 9 OFFCURVE",
"370 -13 OFFCURVE",
"429 -13 CURVE SMOOTH",
"577 -13 OFFCURVE",
"714 131 OFFCURVE",
"714 322 CURVE SMOOTH",
"714 430 OFFCURVE",
"672 522 OFFCURVE",
"578 522 CURVE SMOOTH",
"508 522 OFFCURVE",
"418 469 OFFCURVE",
"359 361 CURVE",
"392 375 LINE"
);
}
);
width = 746;
}
);
unicode = 0C10;
},
{
color = 6;
glyphname = tlAU;
lastChange = "2015-10-30 12:45:06 +0000";
layers = (
{
components = (
{
name = "CC-lenghtmark_Telugu";
transform = "{1, 0.036, -0.036, 1, 121, 208}";
},
{
name = tlO;
}
);
layerId = "59118767-2CA9-48AA-9373-694D24C960D8";
name = Regular;
paths = (
{
closed = 1;
nodes = (
"256 591 LINE",
"314 592 OFFCURVE",
"319 521 OFFCURVE",
"289 488 CURVE SMOOTH",
"272 471 OFFCURVE",
"245 462 OFFCURVE",
"219 471 CURVE SMOOTH",
"217 472 OFFCURVE",
"216 471 OFFCURVE",
"214 471 CURVE",
"213 399 LINE",
"257 397 OFFCURVE",
"300 420 OFFCURVE",
"329 449 CURVE SMOOTH",
"370 491 OFFCURVE",
"390 555 OFFCURVE",
"371 614 CURVE"
);
}
);
width = 744;
}
);
leftMetricsKey = knO;
unicode = 0C14;
},
{
color = 6;
glyphname = tlmAA;
lastChange = "2015-10-30 12:45:06 +0000";
layers = (
{
layerId = "59118767-2CA9-48AA-9373-694D24C960D8";
name = Regular;
paths = (
{
closed = 1;
nodes = (
"531 306 OFFCURVE",
"516 324 OFFCURVE",
"515 345 CURVE SMOOTH",
"514 373 OFFCURVE",
"536 405 OFFCURVE",
"573 406 CURVE SMOOTH",
"603 408 OFFCURVE",
"618 387 OFFCURVE",
"619 364 CURVE SMOOTH",
"620 338 OFFCURVE",
"602 308 OFFCURVE",
"563 307 CURVE SMOOTH"
);
},
{
closed = 1;
nodes = (
"513 515 OFFCURVE",
"408 513 OFFCURVE",
"345 511 CURVE SMOOTH",
"281 508 OFFCURVE",
"129 504 OFFCURVE",
"57 496 CURVE SMOOTH",
"29 493 OFFCURVE",
"0 430 OFFCURVE",
"0 412 CURVE SMOOTH",
"0 409 OFFCURVE",
"2 402 OFFCURVE",
"13 402 CURVE SMOOTH",
"25 403 OFFCURVE",
"182 415 OFFCURVE",
"308 419 CURVE SMOOTH",
"380 422 OFFCURVE",
"442 422 OFFCURVE",
"522 419 CURVE",
"516 435 LINE",
"478 426 OFFCURVE",
"445 359 OFFCURVE",
"447 299 CURVE SMOOTH",
"449 239 OFFCURVE",
"486 208 OFFCURVE",
"535 210 CURVE SMOOTH",
"615 213 OFFCURVE",
"688 300 OFFCURVE",
"684 404 CURVE SMOOTH",
"681 489 OFFCURVE",
"630 502 OFFCURVE",
"587 507 CURVE SMOOTH"
);
}
);
width = 684;
}
);
unicode = 0C3E;
},
{
color = 6;
glyphname = tlmUU;
lastChange = "2015-10-30 12:45:06 +0000";
layers = (
{
components = (
{
name = "CC-lenghtmark_Telugu";
transform = "{1, 0.036, -0.036, 1, 138, 43}";
}
);
layerId = "59118767-2CA9-48AA-9373-694D24C960D8";
name = Regular;
paths = (
{
closed = 1;
nodes = (
"297 -12 OFFCURVE",
"378 132 OFFCURVE",
"378 232 CURVE SMOOTH",
"378 331 OFFCURVE",
"327 452 OFFCURVE",
"205 467 CURVE",
"160 467 OFFCURVE",
"119 417 OFFCURVE",
"132 414 CURVE SMOOTH",
"229 393 OFFCURVE",
"306 286 OFFCURVE",
"306 204 CURVE SMOOTH",
"306 141 OFFCURVE",
"269 90 OFFCURVE",
"186 90 CURVE SMOOTH",
"147 90 OFFCURVE",
"99 111 OFFCURVE",
"83 157 CURVE",
"62 207 OFFCURVE",
"-12 116 OFFCURVE",
"2 78 CURVE",
"29 6 OFFCURVE",
"97 -12 OFFCURVE",
"148 -12 CURVE SMOOTH"
);
}
);
width = 749;
}
);
unicode = 0C42;
},
{
color = 6;
glyphname = tlmvR;
lastChange = "2015-10-30 12:45:06 +0000";
layers = (
{
guideLines = (
{
position = "{215, -448}";
}
);
layerId = "59118767-2CA9-48AA-9373-694D24C960D8";
name = Regular;
paths = (
{
closed = 1;
nodes = (
"138 -73 OFFCURVE",
"122 -73 CURVE SMOOTH",
"-68 -73 OFFCURVE",
"-191 -219 OFFCURVE",
"-191 -329 CURVE SMOOTH",
"-191 -388 OFFCURVE",
"-158 -446 OFFCURVE",
"-85 -446 CURVE SMOOTH",
"39 -446 OFFCURVE",
"228 -288 OFFCURVE",
"228 58 CURVE SMOOTH",
"228 322 OFFCURVE",
"123 613 OFFCURVE",
"33 613 CURVE SMOOTH",
"16 613 OFFCURVE",
"-4 601 OFFCURVE",
"-19 572 CURVE SMOOTH",
"-33 545 OFFCURVE",
"-33 532 OFFCURVE",
"-20 516 CURVE SMOOTH",
"78 399 OFFCURVE",
"143 231 OFFCURVE",
"143 -10 CURVE SMOOTH",
"143 -49 OFFCURVE",
"138 -88 OFFCURVE",
"129 -123 CURVE",
"107 -261 OFFCURVE",
"17 -354 OFFCURVE",
"-45 -354 CURVE SMOOTH",
"-76 -354 OFFCURVE",
"-97 -334 OFFCURVE",
"-97 -297 CURVE SMOOTH",
"-97 -192 OFFCURVE",
"48 -126 OFFCURVE",
"160 -186 CURVE",
"168 -77 LINE",
"153 -75 OFFCURVE"
);
}
);
width = 305;
},
{
associatedMasterId = "59118767-2CA9-48AA-9373-694D24C960D8";
background = {
paths = (
{
closed = 1;
nodes = (
"260 -188 OFFCURVE",
"260 36 CURVE SMOOTH",
"260 163 OFFCURVE",
"213 351 OFFCURVE",
"104 450 CURVE SMOOTH",
"89 463 OFFCURVE",
"87 462 OFFCURVE",
"75 462 CURVE SMOOTH",
"35 462 OFFCURVE",
"-21 386 OFFCURVE",
"10 361 CURVE SMOOTH",
"134 260 OFFCURVE",
"176 98 OFFCURVE",
"176 -34 CURVE SMOOTH",
"176 -180 OFFCURVE",
"100 -302 OFFCURVE",
"11 -302 CURVE SMOOTH",
"-24 -302 OFFCURVE",
"-43 -277 OFFCURVE",
"-43 -252 CURVE SMOOTH",
"-43 -224 OFFCURVE",
"-18 -190 OFFCURVE",
"31 -172 CURVE SMOOTH",
"93 -149 OFFCURVE",
"203 -184 OFFCURVE",
"180 -169 CURVE",
"206 -129 OFFCURVE",
"167 -105 OFFCURVE",
"92 -100 CURVE SMOOTH",
"-37 -92 OFFCURVE",
"-150 -159 OFFCURVE",
"-150 -275 CURVE SMOOTH",
"-150 -341 OFFCURVE",
"-95 -392 OFFCURVE",
"-23 -392 CURVE SMOOTH",
"157 -392 OFFCURVE"
);
}
);
};
layerId = "1ADB084D-B1C8-4C27-BB45-2E6169F99EC6";
name = "Regular Oct 1 15, 10:55";
paths = (
{
closed = 1;
nodes = (
"260 -188 OFFCURVE",
"260 36 CURVE SMOOTH",
"260 234 OFFCURVE",
"147 462 OFFCURVE",
"75 462 CURVE SMOOTH",
"35 462 OFFCURVE",
"-21 386 OFFCURVE",
"10 361 CURVE SMOOTH",
"134 260 OFFCURVE",
"176 98 OFFCURVE",
"176 -34 CURVE SMOOTH",
"176 -180 OFFCURVE",
"100 -302 OFFCURVE",
"11 -302 CURVE SMOOTH",
"-24 -302 OFFCURVE",
"-43 -277 OFFCURVE",
"-43 -252 CURVE SMOOTH",
"-43 -224 OFFCURVE",
"-18 -190 OFFCURVE",
"31 -172 CURVE SMOOTH",
"93 -149 OFFCURVE",
"203 -184 OFFCURVE",
"180 -169 CURVE",
"206 -129 OFFCURVE",
"167 -105 OFFCURVE",
"92 -100 CURVE SMOOTH",
"-37 -92 OFFCURVE",
"-150 -159 OFFCURVE",
"-150 -275 CURVE SMOOTH",
"-150 -341 OFFCURVE",
"-95 -392 OFFCURVE",
"-23 -392 CURVE SMOOTH",
"157 -392 OFFCURVE"
);
}
);
width = 305;
},
{
associatedMasterId = "59118767-2CA9-48AA-9373-694D24C960D8";
background = {
paths = (
{
closed = 1;
nodes = (
"260 -188 OFFCURVE",
"260 36 CURVE SMOOTH",
"260 163 OFFCURVE",
"213 351 OFFCURVE",
"104 450 CURVE SMOOTH",
"89 463 OFFCURVE",
"87 462 OFFCURVE",
"75 462 CURVE SMOOTH",
"35 462 OFFCURVE",
"-21 386 OFFCURVE",
"10 361 CURVE SMOOTH",
"134 260 OFFCURVE",
"176 98 OFFCURVE",
"176 -34 CURVE SMOOTH",
"176 -180 OFFCURVE",
"100 -302 OFFCURVE",
"11 -302 CURVE SMOOTH",
"-24 -302 OFFCURVE",
"-43 -277 OFFCURVE",
"-43 -252 CURVE SMOOTH",
"-43 -224 OFFCURVE",
"-18 -190 OFFCURVE",
"31 -172 CURVE SMOOTH",
"93 -149 OFFCURVE",
"203 -184 OFFCURVE",
"180 -169 CURVE",
"206 -129 OFFCURVE",
"167 -105 OFFCURVE",
"92 -100 CURVE SMOOTH",
"-37 -92 OFFCURVE",
"-150 -159 OFFCURVE",
"-150 -275 CURVE SMOOTH",
"-150 -341 OFFCURVE",
"-95 -392 OFFCURVE",
"-23 -392 CURVE SMOOTH",
"157 -392 OFFCURVE"
);
}
);
};
guideLines = (
{
position = "{215, -448}";
}
);
layerId = "090B2601-184D-4EEA-9BC6-F0039FA07564";
name = "Regular Oct 1 15, 10:59";
paths = (
{
closed = 1;
nodes = (
"-161 -178 OFFCURVE",
"-161 -336 CURVE SMOOTH",
"-161 -398 OFFCURVE",
"-126 -447 OFFCURVE",
"-51 -447 CURVE SMOOTH",
"45 -447 OFFCURVE",
"177 -356 OFFCURVE",
"233 -151 CURVE SMOOTH",
"250 -90 OFFCURVE",
"260 -26 OFFCURVE",
"260 36 CURVE SMOOTH",
"260 234 OFFCURVE",
"147 462 OFFCURVE",
"75 462 CURVE SMOOTH",
"35 462 OFFCURVE",
"-21 386 OFFCURVE",
"10 361 CURVE SMOOTH",
"134 260 OFFCURVE",
"176 98 OFFCURVE",
"176 -34 CURVE SMOOTH",
"176 -67 OFFCURVE",
"171 -101 OFFCURVE",
"163 -135 CURVE SMOOTH",
"123 -290 OFFCURVE",
"40 -354 OFFCURVE",
"-15 -354 CURVE SMOOTH",
"-46 -354 OFFCURVE",
"-67 -334 OFFCURVE",
"-67 -297 CURVE SMOOTH",
"-67 -268 OFFCURVE",
"-55 -241 OFFCURVE",
"-34 -218 CURVE SMOOTH",
"12 -168 OFFCURVE",
"101 -142 OFFCURVE",
"190 -174 CURVE",
"198 -77 LINE",
"32 -50 OFFCURVE"
);
}
);
width = 305;
},
{
associatedMasterId = "59118767-2CA9-48AA-9373-694D24C960D8";
background = {
paths = (
{
closed = 1;
nodes = (
"260 -188 OFFCURVE",
"260 36 CURVE SMOOTH",
"260 163 OFFCURVE",
"213 351 OFFCURVE",
"104 450 CURVE SMOOTH",
"89 463 OFFCURVE",
"87 462 OFFCURVE",
"75 462 CURVE SMOOTH",
"35 462 OFFCURVE",
"-21 386 OFFCURVE",
"10 361 CURVE SMOOTH",
"134 260 OFFCURVE",
"176 98 OFFCURVE",
"176 -34 CURVE SMOOTH",
"176 -180 OFFCURVE",
"100 -302 OFFCURVE",
"11 -302 CURVE SMOOTH",
"-24 -302 OFFCURVE",
"-43 -277 OFFCURVE",
"-43 -252 CURVE SMOOTH",
"-43 -224 OFFCURVE",
"-18 -190 OFFCURVE",
"31 -172 CURVE SMOOTH",
"93 -149 OFFCURVE",
"203 -184 OFFCURVE",
"180 -169 CURVE",
"206 -129 OFFCURVE",
"167 -105 OFFCURVE",
"92 -100 CURVE SMOOTH",
"-37 -92 OFFCURVE",
"-150 -159 OFFCURVE",
"-150 -275 CURVE SMOOTH",
"-150 -341 OFFCURVE",
"-95 -392 OFFCURVE",
"-23 -392 CURVE SMOOTH",
"157 -392 OFFCURVE"
);
}
);
};
guideLines = (
{
position = "{215, -448}";
}
);
layerId = "5CEB8345-2DC9-4C7F-8747-ABF3D5DE3376";
name = "Regular Oct 1 15, 12:36";
paths = (
{
closed = 1;
nodes = (
"-161 -178 OFFCURVE",
"-161 -336 CURVE SMOOTH",
"-161 -398 OFFCURVE",
"-126 -447 OFFCURVE",
"-51 -447 CURVE SMOOTH",
"45 -447 OFFCURVE",
"177 -356 OFFCURVE",
"233 -151 CURVE SMOOTH",
"250 -90 OFFCURVE",
"260 -26 OFFCURVE",
"260 36 CURVE SMOOTH",
"260 234 OFFCURVE",
"147 462 OFFCURVE",
"75 462 CURVE SMOOTH",
"35 462 OFFCURVE",
"-21 386 OFFCURVE",
"10 361 CURVE SMOOTH",
"134 260 OFFCURVE",
"176 98 OFFCURVE",
"176 -34 CURVE SMOOTH",
"176 -67 OFFCURVE",
"171 -101 OFFCURVE",
"163 -135 CURVE SMOOTH",
"123 -290 OFFCURVE",
"40 -354 OFFCURVE",
"-15 -354 CURVE SMOOTH",
"-46 -354 OFFCURVE",
"-67 -334 OFFCURVE",
"-67 -297 CURVE SMOOTH",
"-67 -268 OFFCURVE",
"-55 -241 OFFCURVE",
"-34 -218 CURVE SMOOTH",
"12 -168 OFFCURVE",
"101 -142 OFFCURVE",
"190 -174 CURVE",
"198 -77 LINE",
"32 -50 OFFCURVE"
);
}
);
width = 305;
}
);
unicode = 0C43;
},
{
color = 6;
glyphname = tlmvRR;
lastChange = "2015-10-30 12:45:06 +0000";
layers = (
{
layerId = "59118767-2CA9-48AA-9373-694D24C960D8";
name = Regular;
paths = (
{
closed = 1;
nodes = (
"483 408 OFFCURVE",
"468 426 OFFCURVE",
"467 447 CURVE SMOOTH",
"466 475 OFFCURVE",
"488 507 OFFCURVE",
"525 508 CURVE SMOOTH",
"555 510 OFFCURVE",
"570 489 OFFCURVE",
"571 466 CURVE SMOOTH",
"572 440 OFFCURVE",
"554 410 OFFCURVE",
"515 409 CURVE SMOOTH"
);
},
{
closed = 1;
nodes = (
"116 514 LINE",
"241 523 OFFCURVE",
"315 526 OFFCURVE",
"443 522 CURVE",
"416 497 OFFCURVE",
"397 447 OFFCURVE",
"399 401 CURVE SMOOTH",
"401 341 OFFCURVE",
"438 310 OFFCURVE",
"487 312 CURVE SMOOTH",
"567 315 OFFCURVE",
"640 402 OFFCURVE",
"636 506 CURVE SMOOTH",
"633 591 OFFCURVE",
"582 606 OFFCURVE",
"539 609 CURVE SMOOTH",
"422 618 OFFCURVE",
"216 613 OFFCURVE",
"64 598 CURVE SMOOTH",
"25 594 OFFCURVE",
"-22 507 OFFCURVE",
"-4 492 CURVE SMOOTH",
"3 485 OFFCURVE",
"17 467 OFFCURVE",
"31 447 CURVE"
);
},
{
closed = 1;
nodes = (
"4 485 LINE",
"88 370 OFFCURVE",
"143 211 OFFCURVE",
"143 -10 CURVE SMOOTH",
"143 -193 OFFCURVE",
"34 -354 OFFCURVE",
"-45 -354 CURVE SMOOTH",
"-76 -354 OFFCURVE",
"-97 -334 OFFCURVE",
"-97 -297 CURVE SMOOTH",
"-97 -268 OFFCURVE",
"-85 -241 OFFCURVE",
"-64 -218 CURVE SMOOTH",
"-18 -168 OFFCURVE",
"71 -142 OFFCURVE",
"160 -174 CURVE",
"168 -77 LINE",
"2 -50 OFFCURVE",
"-191 -178 OFFCURVE",
"-191 -336 CURVE SMOOTH",
"-191 -398 OFFCURVE",
"-156 -447 OFFCURVE",
"-81 -447 CURVE SMOOTH",
"114 -447 OFFCURVE",
"228 -176 OFFCURVE",
"228 58 CURVE SMOOTH",
"228 262 OFFCURVE",
"165 483 OFFCURVE",
"95 572 CURVE"
);
}
);
width = 638;
}
);
leftMetricsKey = tlmvR;
unicode = 0C44;
},
{
color = 6;
glyphname = tlmvL;
lastChange = "2015-10-30 12:45:06 +0000";
layers = (
{
layerId = "59118767-2CA9-48AA-9373-694D24C960D8";
name = Regular;
paths = (
{
closed = 1;
nodes = (
"-195 -55 OFFCURVE",
"-224 -105 OFFCURVE",
"-224 -122 CURVE SMOOTH",
"-224 -135 OFFCURVE",
"-216 -139 OFFCURVE",
"-208 -143 CURVE SMOOTH",
"-167 -163 OFFCURVE",
"-142 -216 OFFCURVE",
"-142 -286 CURVE SMOOTH",
"-142 -400 OFFCURVE",
"-252 -481 OFFCURVE",
"-406 -481 CURVE SMOOTH",
"-460 -481 OFFCURVE",
"-484 -471 OFFCURVE",
"-484 -451 CURVE SMOOTH",
"-484 -431 OFFCURVE",
"-460 -414 OFFCURVE",
"-411 -401 CURVE SMOOTH",
"-285 -365 OFFCURVE",
"-224 -307 OFFCURVE",
"-224 -223 CURVE SMOOTH",
"-224 -172 OFFCURVE",
"-256 -138 OFFCURVE",
"-303 -138 CURVE SMOOTH",
"-356 -138 OFFCURVE",
"-414 -177 OFFCURVE",
"-444 -234 CURVE",
"-399 -235 LINE",
"-416 -191 OFFCURVE",
"-453 -164 OFFCURVE",
"-497 -164 CURVE SMOOTH",
"-571 -164 OFFCURVE",
"-635 -241 OFFCURVE",
"-635 -272 CURVE SMOOTH",
"-635 -287 OFFCURVE",
"-622 -299 OFFCURVE",
"-606 -299 CURVE SMOOTH",
"-599 -299 OFFCURVE",
"-593 -297 OFFCURVE",
"-590 -292 CURVE SMOOTH",
"-567 -260 OFFCURVE",
"-557 -246 OFFCURVE",
"-528 -246 CURVE SMOOTH",
"-497 -246 OFFCURVE",
"-488 -264 OFFCURVE",
"-482 -280 CURVE SMOOTH",
"-475 -299 OFFCURVE",
"-471 -310 OFFCURVE",
"-452 -310 CURVE SMOOTH",
"-444 -310 OFFCURVE",
"-437 -305 OFFCURVE",
"-428 -295 CURVE SMOOTH",
"-407 -269 OFFCURVE",
"-383 -224 OFFCURVE",
"-343 -224 CURVE SMOOTH",
"-318 -224 OFFCURVE",
"-302 -239 OFFCURVE",
"-302 -263 CURVE SMOOTH",
"-302 -303 OFFCURVE",
"-350 -319 OFFCURVE",
"-406 -338 CURVE SMOOTH",
"-483 -363 OFFCURVE",
"-569 -389 OFFCURVE",
"-569 -469 CURVE SMOOTH",
"-569 -528 OFFCURVE",
"-521 -558 OFFCURVE",
"-428 -558 CURVE SMOOTH",
"-244 -558 OFFCURVE",
"-65 -436 OFFCURVE",
"-65 -243 CURVE SMOOTH",
"-65 -137 OFFCURVE",
"-108 -55 OFFCURVE",
"-165 -55 CURVE SMOOTH"
);
}
);
width = 0;
},
{
associatedMasterId = "59118767-2CA9-48AA-9373-694D24C960D8";
layerId = "A5FE5DA6-103C-4519-9038-531A3E083F97";
name = "Regular Oct 1 15, 10:42";
paths = (
{
closed = 1;
nodes = (
"438 -60 OFFCURVE",
"411 -106 OFFCURVE",
"411 -122 CURVE SMOOTH",
"411 -132 OFFCURVE",
"416 -135 OFFCURVE",
"424 -139 CURVE SMOOTH",
"466 -159 OFFCURVE",
"493 -212 OFFCURVE",
"493 -286 CURVE SMOOTH",
"493 -406 OFFCURVE",
"376 -486 OFFCURVE",
"224 -486 CURVE SMOOTH",
"170 -486 OFFCURVE",
"141 -476 OFFCURVE",
"141 -451 CURVE SMOOTH",
"141 -426 OFFCURVE",
"170 -409 OFFCURVE",
"218 -396 CURVE SMOOTH",
"308 -370 OFFCURVE",
"401 -324 OFFCURVE",
"401 -223 CURVE SMOOTH",
"401 -180 OFFCURVE",
"376 -143 OFFCURVE",
"327 -143 CURVE SMOOTH",
"284 -143 OFFCURVE",
"228 -172 OFFCURVE",
"194 -229 CURVE",
"223 -230 LINE",
"204 -187 OFFCURVE",
"167 -169 OFFCURVE",
"133 -169 CURVE SMOOTH",
"61 -169 OFFCURVE",
"0 -243 OFFCURVE",
"0 -272 CURVE SMOOTH",
"0 -286 OFFCURVE",
"13 -294 OFFCURVE",
"24 -294 CURVE SMOOTH",
"30 -294 OFFCURVE",
"34 -292 OFFCURVE",
"36 -289 CURVE SMOOTH",
"59 -257 OFFCURVE",
"70 -241 OFFCURVE",
"102 -241 CURVE SMOOTH",
"161 -241 OFFCURVE",
"150 -294 OFFCURVE",
"164 -302 CURVE SMOOTH",
"167 -303 OFFCURVE",
"174 -305 OFFCURVE",
"178 -305 CURVE SMOOTH",
"184 -305 OFFCURVE",
"190 -301 OFFCURVE",
"198 -292 CURVE SMOOTH",
"219 -266 OFFCURVE",
"244 -219 OFFCURVE",
"287 -219 CURVE SMOOTH",
"313 -219 OFFCURVE",
"333 -235 OFFCURVE",
"333 -263 CURVE SMOOTH",
"333 -307 OFFCURVE",
"282 -324 OFFCURVE",
"226 -343 CURVE SMOOTH",
"148 -368 OFFCURVE",
"66 -393 OFFCURVE",
"66 -469 CURVE SMOOTH",
"66 -526 OFFCURVE",
"114 -553 OFFCURVE",
"202 -553 CURVE SMOOTH",
"384 -553 OFFCURVE",
"560 -433 OFFCURVE",
"560 -243 CURVE SMOOTH",
"560 -145 OFFCURVE",
"522 -60 OFFCURVE",
"465 -60 CURVE SMOOTH"
);
}
);
width = 0;
}
);
unicode = 0C62;
},
{
color = 6;
glyphname = tlmE;
lastChange = "2015-10-30 12:45:06 +0000";
layers = (
{
layerId = "59118767-2CA9-48AA-9373-694D24C960D8";
name = Regular;
paths = (
{
closed = 1;
nodes = (
"627 648 OFFCURVE",
"544 651 OFFCURVE",
"512 652 CURVE SMOOTH",
"458 654 OFFCURVE",
"91 655 OFFCURVE",
"60 651 CURVE SMOOTH",
"32 647 OFFCURVE",
"0 587 OFFCURVE",
"0 569 CURVE SMOOTH",
"0 566 OFFCURVE",
"1 559 OFFCURVE",
"12 559 CURVE SMOOTH",
"78 559 OFFCURVE",
"304 562 OFFCURVE",
"365 562 CURVE SMOOTH",
"407 562 OFFCURVE",
"450 560 OFFCURVE",
"491 557 CURVE SMOOTH",
"519 555 OFFCURVE",
"537 546 OFFCURVE",
"537 526 CURVE SMOOTH",
"537 488 OFFCURVE",
"479 486 OFFCURVE",
"443 486 CURVE SMOOTH",
"426 486 OFFCURVE",
"406 485 OFFCURVE",
"380 485 CURVE SMOOTH",
"352 485 OFFCURVE",
"322 421 OFFCURVE",
"322 403 CURVE SMOOTH",
"322 400 OFFCURVE",
"324 391 OFFCURVE",
"335 391 CURVE SMOOTH",
"402 393 LINE SMOOTH",
"526 397 OFFCURVE",
"627 476 OFFCURVE",
"627 564 CURVE SMOOTH"
);
}
);
width = 627;
}
);
unicode = 0C46;
},
{
color = 6;
glyphname = tlmEE;
lastChange = "2015-10-30 12:45:06 +0000";
layers = (
{
components = (
{
name = tlLengthmark;
transform = "{1, 0, 0, 1, 349, 1}";
}
);
layerId = "59118767-2CA9-48AA-9373-694D24C960D8";
name = Regular;
paths = (
{
closed = 1;
nodes = (
"627 648 OFFCURVE",
"544 651 OFFCURVE",
"512 652 CURVE SMOOTH",
"458 654 OFFCURVE",
"91 655 OFFCURVE",
"60 651 CURVE SMOOTH",
"32 647 OFFCURVE",
"0 587 OFFCURVE",
"0 569 CURVE SMOOTH",
"0 566 OFFCURVE",
"1 559 OFFCURVE",
"12 559 CURVE SMOOTH",
"78 559 OFFCURVE",
"304 562 OFFCURVE",
"365 562 CURVE SMOOTH",
"407 562 OFFCURVE",
"450 560 OFFCURVE",
"491 557 CURVE SMOOTH",
"519 555 OFFCURVE",
"537 546 OFFCURVE",
"537 526 CURVE SMOOTH",
"537 488 OFFCURVE",
"479 486 OFFCURVE",
"443 486 CURVE SMOOTH",
"426 486 OFFCURVE",
"406 485 OFFCURVE",
"380 485 CURVE SMOOTH",
"352 485 OFFCURVE",
"322 421 OFFCURVE",
"322 403 CURVE SMOOTH",
"322 400 OFFCURVE",
"324 391 OFFCURVE",
"335 391 CURVE SMOOTH",
"402 393 LINE SMOOTH",
"526 397 OFFCURVE",
"627 476 OFFCURVE",
"627 564 CURVE SMOOTH"
);
}
);
width = 627;
}
);
unicode = 0C47;
},
{
color = 6;
glyphname = tlmAI;
lastChange = "2015-10-30 12:45:06 +0000";
layers = (
{
components = (
{
name = tlAIlengthmark;
transform = "{1, 0, 0, 1, 0, 141}";
}
);
layerId = "59118767-2CA9-48AA-9373-694D24C960D8";
name = Regular;
paths = (
{
closed = 1;
nodes = (
"627 648 OFFCURVE",
"544 651 OFFCURVE",
"512 652 CURVE SMOOTH",
"458 654 OFFCURVE",
"91 655 OFFCURVE",
"60 651 CURVE SMOOTH",
"32 647 OFFCURVE",
"0 587 OFFCURVE",
"0 569 CURVE SMOOTH",
"0 566 OFFCURVE",
"1 559 OFFCURVE",
"12 559 CURVE SMOOTH",
"78 559 OFFCURVE",
"304 562 OFFCURVE",
"365 562 CURVE SMOOTH",
"407 562 OFFCURVE",
"450 560 OFFCURVE",
"491 557 CURVE SMOOTH",
"519 555 OFFCURVE",
"537 546 OFFCURVE",
"537 526 CURVE SMOOTH",
"537 488 OFFCURVE",
"479 486 OFFCURVE",
"443 486 CURVE SMOOTH",
"426 486 OFFCURVE",
"406 485 OFFCURVE",
"380 485 CURVE SMOOTH",
"352 485 OFFCURVE",
"322 421 OFFCURVE",
"322 403 CURVE SMOOTH",
"322 400 OFFCURVE",
"324 391 OFFCURVE",
"335 391 CURVE SMOOTH",
"402 393 LINE SMOOTH",
"526 397 OFFCURVE",
"627 476 OFFCURVE",
"627 564 CURVE SMOOTH"
);
}
);
width = 627;
}
);
unicode = 0C48;
},
{
color = 6;
glyphname = tlmO;
lastChange = "2015-10-30 12:45:06 +0000";
layers = (
{
layerId = "59118767-2CA9-48AA-9373-694D24C960D8";
name = Regular;
paths = (
{
closed = 1;
nodes = (
"413 709 OFFCURVE",
"284 650 OFFCURVE",
"231 586 CURVE",
"193 511 LINE",
"205 500 OFFCURVE",
"233 523 OFFCURVE",
"262 547 CURVE SMOOTH",
"310 588 OFFCURVE",
"379 615 OFFCURVE",
"444 626 CURVE",
"441 650 LINE",
"349 538 OFFCURVE",
"386 419 OFFCURVE",
"497 419 CURVE SMOOTH",
"589 419 OFFCURVE",
"697 512 OFFCURVE",
"697 604 CURVE SMOOTH",
"697 677 OFFCURVE",
"620 709 OFFCURVE",
"527 709 CURVE SMOOTH"
);
},
{
closed = 1;
nodes = (
"501 503 OFFCURVE",
"459 525 OFFCURVE",
"459 570 CURVE SMOOTH",
"459 619 OFFCURVE",
"487 629 OFFCURVE",
"520 629 CURVE SMOOTH",
"555 629 OFFCURVE",
"605 608 OFFCURVE",
"605 562 CURVE SMOOTH",
"605 523 OFFCURVE",
"571 503 OFFCURVE",
"537 503 CURVE SMOOTH"
);
},
{
closed = 1;
nodes = (
"277 580 LINE",
"238 634 OFFCURVE",
"200 664 OFFCURVE",
"156 664 CURVE SMOOTH",
"81 664 OFFCURVE",
"0 591 OFFCURVE",
"0 503 CURVE SMOOTH",
"0 410 OFFCURVE",
"71 322 OFFCURVE",
"155 378 CURVE SMOOTH",
"183 396 OFFCURVE",
"196 421 OFFCURVE",
"177 426 CURVE",
"109 443 OFFCURVE",
"72 490 OFFCURVE",
"72 528 CURVE SMOOTH",
"72 553 OFFCURVE",
"88 575 OFFCURVE",
"115 575 CURVE SMOOTH",
"144 575 OFFCURVE",
"159 548 OFFCURVE",
"172 528 CURVE SMOOTH",
"183 511 OFFCURVE",
"199 502 OFFCURVE",
"216 513 CURVE"
);
}
);
width = 697;
}
);
unicode = 0C4A;
},
{
color = 6;
glyphname = tlmAU;
lastChange = "2015-10-30 12:45:06 +0000";
layers = (
{
components = (
{
name = "CC-lenghtmark_Telugu";
transform = "{1, 0.036, -0.036, 1, 98, 329}";
}
);
layerId = "59118767-2CA9-48AA-9373-694D24C960D8";
name = Regular;
paths = (
{
closed = 1;
nodes = (
"146 705 LINE",
"205 711 OFFCURVE",
"255 698 OFFCURVE",
"255 668 CURVE SMOOTH",
"255 630 OFFCURVE",
"197 628 OFFCURVE",
"161 628 CURVE SMOOTH",
"124 628 OFFCURVE",
"84 626 OFFCURVE",
"58 626 CURVE SMOOTH",
"30 626 OFFCURVE",
"0 560 OFFCURVE",
"0 542 CURVE SMOOTH",
"0 539 OFFCURVE",
"2 530 OFFCURVE",
"13 530 CURVE SMOOTH",
"120 533 LINE SMOOTH",
"209 535 OFFCURVE",
"340 609 OFFCURVE",
"340 706 CURVE SMOOTH",
"340 790 OFFCURVE",
"262 793 OFFCURVE",
"230 794 CURVE SMOOTH",
"224 794 OFFCURVE",
"213 794 OFFCURVE",
"200 795 CURVE"
);
}
);
width = 709;
}
);
unicode = 0C4C;
},
{
color = 6;
glyphname = tlLengthmark;
lastChange = "2015-10-30 12:45:06 +0000";
layers = (
{
layerId = "59118767-2CA9-48AA-9373-694D24C960D8";
name = Regular;
paths = (
{
closed = 1;
nodes = (
"61 597 OFFCURVE",
"133 641 OFFCURVE",
"122 652 CURVE",
"105 666 OFFCURVE",
"62 715 OFFCURVE",
"62 778 CURVE SMOOTH",
"62 830 OFFCURVE",
"92 853 OFFCURVE",
"133 853 CURVE SMOOTH",
"183 853 OFFCURVE",
"211 819 OFFCURVE",
"230 819 CURVE SMOOTH",
"249 819 OFFCURVE",
"278 854 OFFCURVE",
"278 885 CURVE SMOOTH",
"278 930 OFFCURVE",
"219 950 OFFCURVE",
"175 950 CURVE SMOOTH",
"101 950 OFFCURVE",
"0 893 OFFCURVE",
"0 752 CURVE SMOOTH",
"0 659 OFFCURVE",
"44 617 OFFCURVE",
"52 608 CURVE SMOOTH"
);
}
);
width = 278;
}
);
unicode = 0C55;
},
{
color = 6;
glyphname = tlAIlengthmark;
lastChange = "2015-10-30 12:45:06 +0000";
layers = (
{
layerId = "59118767-2CA9-48AA-9373-694D24C960D8";
name = Regular;
paths = (
{
closed = 1;
nodes = (
"553 -253 OFFCURVE",
"322 -271 OFFCURVE",
"212 -262 CURVE",
"213 -285 LINE",
"260 -263 OFFCURVE",
"288 -217 OFFCURVE",
"288 -176 CURVE SMOOTH",
"288 -115 OFFCURVE",
"228 -83 OFFCURVE",
"171 -83 CURVE SMOOTH",
"63 -83 OFFCURVE",
"0 -156 OFFCURVE",
"0 -227 CURVE SMOOTH",
"0 -257 OFFCURVE",
"12 -287 OFFCURVE",
"37 -311 CURVE SMOOTH",
"74 -345 OFFCURVE",
"150 -349 OFFCURVE",
"276 -349 CURVE SMOOTH",
"398 -349 OFFCURVE",
"536 -340 OFFCURVE",
"566 -338 CURVE SMOOTH",
"594 -336 OFFCURVE",
"616 -282 OFFCURVE",
"616 -261 CURVE SMOOTH",
"616 -257 OFFCURVE",
"615 -253 OFFCURVE",
"595 -253 CURVE SMOOTH"
);
},
{
closed = 1;
nodes = (
"117 -270 OFFCURVE",
"72 -249 OFFCURVE",
"72 -204 CURVE SMOOTH",
"72 -165 OFFCURVE",
"107 -147 OFFCURVE",
"144 -147 CURVE SMOOTH",
"190 -147 OFFCURVE",
"220 -174 OFFCURVE",
"220 -209 CURVE SMOOTH",
"220 -232 OFFCURVE",
"206 -252 OFFCURVE",
"183 -265 CURVE"
);
}
);
width = 616;
},
{
associatedMasterId = "59118767-2CA9-48AA-9373-694D24C960D8";
background = {
paths = (
{
closed = 1;
nodes = (
"587 -655 OFFCURVE",
"505 -668 OFFCURVE",
"419 -668 CURVE SMOOTH",
"357 -668 OFFCURVE",
"292 -669 OFFCURVE",
"225 -664 CURVE",
"230 -688 LINE",
"250 -664 OFFCURVE",
"262 -633 OFFCURVE",
"262 -602 CURVE SMOOTH",
"262 -538 OFFCURVE",
"208 -472 OFFCURVE",
"119 -472 CURVE SMOOTH",
"56 -472 OFFCURVE",
"-4 -506 OFFCURVE",
"-4 -581 CURVE SMOOTH",
"-4 -630 OFFCURVE",
"20 -685 OFFCURVE",
"77 -716 CURVE SMOOTH",
"137 -751 OFFCURVE",
"247 -749 OFFCURVE",
"304 -749 CURVE SMOOTH",
"428 -749 OFFCURVE",
"489 -746 OFFCURVE",
"561 -738 CURVE SMOOTH",
"589 -735 OFFCURVE",
"611 -683 OFFCURVE",
"611 -665 CURVE SMOOTH",
"611 -662 OFFCURVE",
"610 -655 OFFCURVE",
"599 -655 CURVE SMOOTH"
);
},
{
closed = 1;
nodes = (
"61 -603 CURVE SMOOTH",
"61 -567 OFFCURVE",
"96 -542 OFFCURVE",
"133 -542 CURVE SMOOTH",
"179 -542 OFFCURVE",
"209 -569 OFFCURVE",
"209 -604 CURVE SMOOTH",
"209 -627 OFFCURVE",
"195 -653 OFFCURVE",
"172 -666 CURVE",
"106 -671 OFFCURVE",
"61 -651 OFFCURVE"
);
}
);
};
layerId = "6BE2E3AD-8653-4F9F-9507-E4822F8B928E";
name = "Regular Oct 1 15, 16:43";
paths = (
{
closed = 1;
nodes = (
"603 -352 OFFCURVE",
"521 -365 OFFCURVE",
"395 -365 CURVE SMOOTH",
"343 -365 OFFCURVE",
"288 -366 OFFCURVE",
"232 -363 CURVE",
"285 -309 OFFCURVE",
"265 -204 OFFCURVE",
"150 -204 CURVE SMOOTH",
"81 -204 OFFCURVE",
"0 -252 OFFCURVE",
"0 -336 CURVE SMOOTH",
"0 -405 OFFCURVE",
"53 -438 OFFCURVE",
"104 -445 CURVE SMOOTH",
"154 -452 OFFCURVE",
"309 -455 OFFCURVE",
"355 -455 CURVE SMOOTH",
"419 -455 OFFCURVE",
"495 -449 OFFCURVE",
"567 -444 CURVE SMOOTH",
"595 -442 OFFCURVE",
"627 -380 OFFCURVE",
"627 -362 CURVE SMOOTH",
"627 -359 OFFCURVE",
"626 -352 OFFCURVE",
"615 -352 CURVE SMOOTH"
);
},
{
closed = 1;
nodes = (
"88 -339 OFFCURVE",
"82 -327 OFFCURVE",
"82 -315 CURVE SMOOTH",
"82 -289 OFFCURVE",
"108 -276 OFFCURVE",
"135 -276 CURVE SMOOTH",
"162 -276 OFFCURVE",
"191 -290 OFFCURVE",
"191 -316 CURVE SMOOTH",
"191 -333 OFFCURVE",
"181 -349 OFFCURVE",
"164 -359 CURVE",
"138 -359 OFFCURVE",
"113 -356 OFFCURVE",
"97 -345 CURVE SMOOTH"
);
},
{
closed = 1;
nodes = (
"11 -695 OFFCURVE",
"10 -702 OFFCURVE",
"10 -705 CURVE SMOOTH",
"10 -723 OFFCURVE",
"32 -775 OFFCURVE",
"60 -778 CURVE SMOOTH",
"132 -786 OFFCURVE",
"193 -789 OFFCURVE",
"317 -789 CURVE SMOOTH",
"374 -789 OFFCURVE",
"484 -791 OFFCURVE",
"544 -756 CURVE SMOOTH",
"601 -725 OFFCURVE",
"625 -670 OFFCURVE",
"625 -621 CURVE SMOOTH",
"625 -546 OFFCURVE",
"565 -512 OFFCURVE",
"502 -512 CURVE SMOOTH",
"413 -512 OFFCURVE",
"359 -578 OFFCURVE",
"359 -642 CURVE SMOOTH",
"359 -673 OFFCURVE",
"371 -704 OFFCURVE",
"391 -728 CURVE",
"396 -704 LINE",
"329 -709 OFFCURVE",
"264 -708 OFFCURVE",
"202 -708 CURVE SMOOTH",
"116 -708 OFFCURVE",
"34 -695 OFFCURVE",
"22 -695 CURVE SMOOTH"
);
},
{
closed = 1;
nodes = (
"515 -711 OFFCURVE",
"449 -706 CURVE",
"426 -693 OFFCURVE",
"412 -667 OFFCURVE",
"412 -644 CURVE SMOOTH",
"412 -609 OFFCURVE",
"442 -582 OFFCURVE",
"488 -582 CURVE SMOOTH",
"525 -582 OFFCURVE",
"560 -607 OFFCURVE",
"560 -643 CURVE SMOOTH",
"560 -691 OFFCURVE"
);
}
);
width = 627;
}
);
unicode = 0C56;
},
{
color = 6;
glyphname = tlKA;
lastChange = "2015-10-30 12:45:06 +0000";
layers = (
{
components = (
{
name = tlTick;
transform = "{1, 0, 0, 1, 23, 0}";
},
{
name = "CC-ka-telugu";
transform = "{1, 0, 0, 1, 42, 0}";
}
);
guideLines = (
{
position = "{596, -218}";
}
);
layerId = "59118767-2CA9-48AA-9373-694D24C960D8";
name = Regular;
paths = (
{
closed = 1;
nodes = (
"354 491 LINE",
"254 491 OFFCURVE",
"33 395 OFFCURVE",
"23 366 CURVE",
"21 349 OFFCURVE",
"29 322 OFFCURVE",
"43 322 CURVE SMOOTH",
"65 322 OFFCURVE",
"126 393 OFFCURVE",
"233 433 CURVE"
);
}
);
width = 497;
},
{
associatedMasterId = "59118767-2CA9-48AA-9373-694D24C960D8";
components = (
{
name = tlTick;
transform = "{1, 0, 0, 1, 20, 0}";
}
);
layerId = "449F6D61-31DC-4D0A-98A2-B9E3956DC2E5";
name = "Regular Aug 27 15, 16:10";
paths = (
{
closed = 1;
nodes = (
"453 123 OFFCURVE",
"348 146 CURVE SMOOTH",
"147 195 OFFCURVE",
"104 226 OFFCURVE",
"104 298 CURVE SMOOTH",
"104 373 OFFCURVE",
"271 381 OFFCURVE",
"334 338 CURVE SMOOTH",
"352 325 OFFCURVE",
"349 317 OFFCURVE",
"368 317 CURVE SMOOTH",
"402 317 OFFCURVE",
"442 367 OFFCURVE",
"442 401 CURVE SMOOTH",
"442 470 OFFCURVE",
"227 480 OFFCURVE",
"150 438 CURVE SMOOTH",
"83 402 OFFCURVE",
"28 328 OFFCURVE",
"28 226 CURVE SMOOTH",
"28 118 OFFCURVE",
"196 69 OFFCURVE",
"322 48 CURVE",
"310 95 LINE",
"284 43 OFFCURVE",
"234 -1 OFFCURVE",
"202 -1 CURVE SMOOTH",
"181 -1 OFFCURVE",
"160 6 OFFCURVE",
"138 24 CURVE SMOOTH",
"121 38 OFFCURVE",
"122 44 OFFCURVE",
"110 44 CURVE SMOOTH",
"75 44 OFFCURVE",
"34 -6 OFFCURVE",
"34 -44 CURVE SMOOTH",
"34 -74 OFFCURVE",
"62 -97 OFFCURVE",
"104 -97 CURVE SMOOTH",
"222 -97 OFFCURVE"
);
}
);
width = 433;
},
{
associatedMasterId = "59118767-2CA9-48AA-9373-694D24C960D8";
components = (
{
name = tlTick;
transform = "{1, 0, 0, 1, 20, 0}";
}
);
guideLines = (
{
position = "{60, -218}";
}
);
layerId = "318FA671-998D-4282-A843-CBCFD4740BCD";
name = "Regular Aug 27 15, 16:13";
paths = (
{
closed = 1;
nodes = (
"463 133 OFFCURVE",
"358 156 CURVE SMOOTH",
"157 205 OFFCURVE",
"104 246 OFFCURVE",
"104 298 CURVE SMOOTH",
"104 373 OFFCURVE",
"267 376 OFFCURVE",
"330 333 CURVE SMOOTH",
"348 320 OFFCURVE",
"345 312 OFFCURVE",
"364 312 CURVE SMOOTH",
"398 312 OFFCURVE",
"442 367 OFFCURVE",
"442 401 CURVE SMOOTH",
"442 470 OFFCURVE",
"227 480 OFFCURVE",
"150 438 CURVE SMOOTH",
"83 402 OFFCURVE",
"28 328 OFFCURVE",
"28 226 CURVE SMOOTH",
"28 138 OFFCURVE",
"206 69 OFFCURVE",
"332 48 CURVE",
"310 105 LINE",
"275 36 OFFCURVE",
"169 -36 OFFCURVE",
"124 9 CURVE SMOOTH",
"114 20 OFFCURVE",
"114 24 OFFCURVE",
"107 24 CURVE SMOOTH",
"85 24 OFFCURVE",
"60 -14 OFFCURVE",
"60 -43 CURVE SMOOTH",
"60 -65 OFFCURVE",
"62 -97 OFFCURVE",
"104 -97 CURVE SMOOTH",
"222 -97 OFFCURVE"
);
}
);
width = 433;
},
{
associatedMasterId = "59118767-2CA9-48AA-9373-694D24C960D8";
components = (
{
name = tlTick;
transform = "{1, 0, 0, 1, 20, 0}";
}
);
guideLines = (
{
position = "{60, -218}";
}
);
layerId = "0A8E4E53-B5AA-4952-85AE-D4ABFAA0C2B8";
name = "Regular Aug 27 15, 16:24";
paths = (
{
closed = 1;
nodes = (
"473 93 OFFCURVE",
"368 116 CURVE SMOOTH",
"303 132 OFFCURVE",
"252 148 OFFCURVE",
"213 164 CURVE SMOOTH",
"133 197 OFFCURVE",
"104 230 OFFCURVE",
"104 265 CURVE SMOOTH",
"104 314 OFFCURVE",
"137 341 OFFCURVE",
"179 352 CURVE SMOOTH",
"230 366 OFFCURVE",
"295 357 OFFCURVE",
"330 333 CURVE SMOOTH",
"348 320 OFFCURVE",
"345 312 OFFCURVE",
"364 312 CURVE SMOOTH",
"398 312 OFFCURVE",
"442 367 OFFCURVE",
"442 401 CURVE SMOOTH",
"442 470 OFFCURVE",
"227 480 OFFCURVE",
"150 438 CURVE SMOOTH",
"-11 351 OFFCURVE",
"-20 128 OFFCURVE",
"157 57 CURVE SMOOTH",
"216 33 OFFCURVE",
"285 17 OFFCURVE",
"342 8 CURVE",
"320 65 LINE",
"285 -4 OFFCURVE",
"119 -96 OFFCURVE",
"74 -51 CURVE SMOOTH",
"64 -40 OFFCURVE",
"64 -36 OFFCURVE",
"57 -36 CURVE SMOOTH",
"35 -36 OFFCURVE",
"10 -74 OFFCURVE",
"10 -103 CURVE SMOOTH",
"10 -125 OFFCURVE",
"12 -157 OFFCURVE",
"54 -157 CURVE SMOOTH",
"172 -157 OFFCURVE"
);
}
);
width = 433;
},
{
associatedMasterId = "59118767-2CA9-48AA-9373-694D24C960D8";
components = (
{
name = tlTick;
transform = "{1, 0, 0, 1, 40, 0}";
}
);
guideLines = (
{
position = "{60, -218}";
}
);
layerId = "E373E7BF-E1CF-40E2-A334-593AB92C8DA1";
name = "Regular Aug 27 15, 17:00";
paths = (
{
closed = 1;
nodes = (
"325 338 OFFCURVE",
"381 461 OFFCURVE",
"333 461 CURVE",
"276 457 OFFCURVE",
"211 432 OFFCURVE",
"150 398 CURVE SMOOTH",
"-112 252 OFFCURVE",
"29 37 OFFCURVE",
"342 -12 CURVE",
"320 45 LINE",
"285 -24 OFFCURVE",
"119 -146 OFFCURVE",
"74 -101 CURVE SMOOTH",
"64 -90 OFFCURVE",
"64 -86 OFFCURVE",
"57 -86 CURVE SMOOTH",
"35 -86 OFFCURVE",
"10 -134 OFFCURVE",
"10 -163 CURVE SMOOTH",
"10 -185 OFFCURVE",
"12 -217 OFFCURVE",
"54 -217 CURVE SMOOTH",
"172 -217 OFFCURVE",
"485 99 OFFCURVE",
"378 106 CURVE SMOOTH",
"238 115 OFFCURVE",
"104 124 OFFCURVE",
"104 205 CURVE SMOOTH",
"104 285 OFFCURVE",
"196 294 OFFCURVE",
"272 324 CURVE"
);
}
);
width = 433;
},
{
associatedMasterId = "59118767-2CA9-48AA-9373-694D24C960D8";
components = (
{
name = "CC-tlTick.alt";
transform = "{1, 0, 0, 1, -15, -6}";
}
);
guideLines = (
{
position = "{179, -218}";
}
);
layerId = "5BF48097-BD2B-47AD-AB4C-FC3D1BBF0E4A";
name = "Regular Aug 30 15, 12:37";
paths = (
{
closed = 1;
nodes = (
"428 335 OFFCURVE",
"524 440 OFFCURVE",
"479 457 CURVE",
"358 494 OFFCURVE",
"157 369 OFFCURVE",
"157 248 CURVE SMOOTH",
"157 143 OFFCURVE",
"200 18 OFFCURVE",
"459 -12 CURVE",
"439 45 LINE",
"404 -24 OFFCURVE",
"238 -146 OFFCURVE",
"193 -101 CURVE SMOOTH",
"183 -90 OFFCURVE",
"183 -86 OFFCURVE",
"176 -86 CURVE SMOOTH",
"154 -86 OFFCURVE",
"129 -134 OFFCURVE",
"129 -163 CURVE SMOOTH",
"129 -185 OFFCURVE",
"131 -217 OFFCURVE",
"173 -217 CURVE SMOOTH",
"291 -217 OFFCURVE",
"604 99 OFFCURVE",
"497 106 CURVE SMOOTH",
"357 115 OFFCURVE",
"223 174 OFFCURVE",
"223 255 CURVE SMOOTH",
"223 335 OFFCURVE",
"291 340 OFFCURVE",
"373 341 CURVE"
);
}
);
width = 552;
},
{
associatedMasterId = "59118767-2CA9-48AA-9373-694D24C960D8";
components = (
{
name = "CC-tlTick.alt";
transform = "{1, 0, 0, 1, 125, 194}";
}
);
guideLines = (
{
position = "{179, -218}";
}
);
layerId = "00B14479-01A2-4D8E-91EB-72721C8AF0DE";
name = "Regular Aug 30 15, 12:54";
paths = (
{
closed = 1;
nodes = (
"404 501 OFFCURVE",
"456 535 CURVE SMOOTH",
"492 558 OFFCURVE",
"504 600 OFFCURVE",
"479 609 CURVE",
"358 546 OFFCURVE",
"157 471 OFFCURVE",
"157 350 CURVE SMOOTH",
"157 245 OFFCURVE",
"198 161 OFFCURVE",
"422 135 CURVE",
"439 187 LINE",
"404 118 OFFCURVE",
"198 56 OFFCURVE",
"153 101 CURVE SMOOTH",
"143 112 OFFCURVE",
"143 116 OFFCURVE",
"136 116 CURVE SMOOTH",
"114 116 OFFCURVE",
"89 68 OFFCURVE",
"89 39 CURVE SMOOTH",
"89 17 OFFCURVE",
"91 -15 OFFCURVE",
"133 -15 CURVE SMOOTH",
"251 -15 OFFCURVE",
"604 241 OFFCURVE",
"497 248 CURVE SMOOTH",
"357 257 OFFCURVE",
"223 276 OFFCURVE",
"223 357 CURVE SMOOTH",
"223 420 OFFCURVE"
);
}
);
width = 552;
},
{
associatedMasterId = "59118767-2CA9-48AA-9373-694D24C960D8";
components = (
{
name = "CC-tlTick.alt";
transform = "{1, 0, 0, 1, -15, -6}";
}
);
guideLines = (
{
position = "{179, -218}";
}
);
layerId = "F1DD0490-B338-4BC8-8117-A1DB102B8F05";
name = "Regular Aug 30 15, 13:42";
paths = (
{
closed = 1;
nodes = (
"342 265 OFFCURVE",
"206 306 OFFCURVE",
"206 375 CURVE SMOOTH",
"206 436 OFFCURVE",
"288 361 OFFCURVE",
"350 362 CURVE",
"392 358 OFFCURVE",
"465 438 OFFCURVE",
"431 450 CURVE SMOOTH",
"339 479 OFFCURVE",
"156 461 OFFCURVE",
"156 369 CURVE SMOOTH",
"156 271 OFFCURVE",
"237 164 OFFCURVE",
"458 149 CURVE",
"429 182 LINE",
"374 119 OFFCURVE",
"194 60 OFFCURVE",
"153 101 CURVE",
"143 112 OFFCURVE",
"143 116 OFFCURVE",
"136 116 CURVE SMOOTH",
"114 116 OFFCURVE",
"89 68 OFFCURVE",
"89 39 CURVE SMOOTH",
"89 17 OFFCURVE",
"91 -15 OFFCURVE",
"133 -15 CURVE SMOOTH",
"224 -15 OFFCURVE",
"455 118 OFFCURVE",
"507 189 CURVE SMOOTH",
"522 212 OFFCURVE",
"527 245 OFFCURVE",
"497 248 CURVE SMOOTH"
);
}
);
width = 552;
},
{
associatedMasterId = "59118767-2CA9-48AA-9373-694D24C960D8";
components = (
{
name = "CC-tlTick.alt";
transform = "{1, 0, 0, 1, -15, -6}";
}
);
guideLines = (
{
position = "{179, -218}";
}
);
layerId = "58695EF9-C2E0-43FD-889D-81E3B8458918";
name = "Regular Aug 30 15, 13:45";
paths = (
{
closed = 1;
nodes = (
"312 275 OFFCURVE",
"163 212 OFFCURVE",
"206 265 CURVE SMOOTH",
"256 326 OFFCURVE",
"288 361 OFFCURVE",
"350 362 CURVE",
"392 358 OFFCURVE",
"465 438 OFFCURVE",
"431 450 CURVE SMOOTH",
"339 479 OFFCURVE",
"201 351 OFFCURVE",
"131 259 CURVE SMOOTH",
"72 182 OFFCURVE",
"105 129 OFFCURVE",
"428 170 CURVE",
"399 192 LINE",
"344 129 OFFCURVE",
"184 26 OFFCURVE",
"143 67 CURVE",
"133 78 OFFCURVE",
"133 82 OFFCURVE",
"126 82 CURVE SMOOTH",
"104 82 OFFCURVE",
"79 34 OFFCURVE",
"79 5 CURVE SMOOTH",
"79 -17 OFFCURVE",
"81 -49 OFFCURVE",
"123 -49 CURVE SMOOTH",
"214 -49 OFFCURVE",
"425 128 OFFCURVE",
"477 199 CURVE SMOOTH",
"492 222 OFFCURVE",
"497 255 OFFCURVE",
"467 258 CURVE SMOOTH"
);
}
);
width = 552;
},
{
associatedMasterId = "59118767-2CA9-48AA-9373-694D24C960D8";
components = (
{
name = "CC-tlTick.alt";
transform = "{1, 0, 0, 1, -15, -6}";
}
);
guideLines = (
{
position = "{179, -218}";
}
);
layerId = "6F2818C8-3973-4102-8C8C-ADBB739B89AE";
name = "Regular Aug 30 15, 13:48";
paths = (
{
closed = 1;
nodes = (
"272 215 OFFCURVE",
"193 272 OFFCURVE",
"236 325 CURVE SMOOTH",
"286 386 OFFCURVE",
"288 361 OFFCURVE",
"350 362 CURVE",
"392 358 OFFCURVE",
"465 438 OFFCURVE",
"431 450 CURVE SMOOTH",
"339 479 OFFCURVE",
"231 411 OFFCURVE",
"161 319 CURVE SMOOTH",
"102 242 OFFCURVE",
"143 142 OFFCURVE",
"388 110 CURVE",
"359 132 LINE",
"304 69 OFFCURVE",
"184 26 OFFCURVE",
"143 67 CURVE",
"133 78 OFFCURVE",
"133 82 OFFCURVE",
"126 82 CURVE SMOOTH",
"104 82 OFFCURVE",
"79 34 OFFCURVE",
"79 5 CURVE SMOOTH",
"79 -17 OFFCURVE",
"81 -49 OFFCURVE",
"123 -49 CURVE SMOOTH",
"214 -49 OFFCURVE",
"385 68 OFFCURVE",
"437 139 CURVE SMOOTH",
"452 162 OFFCURVE",
"457 195 OFFCURVE",
"427 198 CURVE SMOOTH"
);
}
);
width = 552;
},
{
associatedMasterId = "59118767-2CA9-48AA-9373-694D24C960D8";
components = (
{
name = tlTick;
transform = "{1, 0, 0, 1, 143, 0}";
}
);
guideLines = (
{
position = "{179, -218}";
}
);
layerId = "A0829A8D-A31E-494C-983A-3653BAFB970A";
name = "Regular Aug 31 15, 17:48";
paths = (
{
closed = 1;
nodes = (
"441 385 OFFCURVE",
"481 423 OFFCURVE",
"494 446 CURVE SMOOTH",
"519 493 OFFCURVE",
"488 501 OFFCURVE",
"436 492 CURVE SMOOTH",
"328 476 OFFCURVE",
"195 364 OFFCURVE",
"195 292 CURVE SMOOTH",
"195 246 OFFCURVE",
"225 206 OFFCURVE",
"297 206 CURVE SMOOTH",
"332 206 OFFCURVE",
"371 210 OFFCURVE",
"401 210 CURVE SMOOTH",
"537 210 OFFCURVE",
"454 81 OFFCURVE",
"338 81 CURVE SMOOTH",
"261 81 OFFCURVE",
"209 113 OFFCURVE",
"193 113 CURVE SMOOTH",
"174 113 OFFCURVE",
"143 79 OFFCURVE",
"143 54 CURVE SMOOTH",
"143 18 OFFCURVE",
"217 -11 OFFCURVE",
"300 -11 CURVE SMOOTH",
"530 -11 OFFCURVE",
"620 303 OFFCURVE",
"375 303 CURVE SMOOTH",
"342 303 OFFCURVE",
"311 299 OFFCURVE",
"283 299 CURVE SMOOTH",
"259 299 OFFCURVE",
"248 306 OFFCURVE",
"248 317 CURVE SMOOTH",
"248 340 OFFCURVE",
"356 398 OFFCURVE",
"427 387 CURVE"
);
}
);
width = 541;
},
{
associatedMasterId = "59118767-2CA9-48AA-9373-694D24C960D8";
components = (
{
name = tlTick;
transform = "{1, 0, 0, 1, 25, 0}";
}
);
guideLines = (
{
position = "{61, -218}";
}
);
layerId = "0E35BC25-A637-4AE8-81A9-EF8AA874187F";
name = "Regular Aug 31 15, 18:07";
paths = (
{
closed = 1;
nodes = (
"349 385 OFFCURVE",
"392 423 OFFCURVE",
"408 446 CURVE SMOOTH",
"435 493 OFFCURVE",
"401 501 OFFCURVE",
"343 492 CURVE SMOOTH",
"224 476 OFFCURVE",
"77 364 OFFCURVE",
"77 292 CURVE SMOOTH",
"77 246 OFFCURVE",
"110 206 OFFCURVE",
"190 206 CURVE SMOOTH",
"228 206 OFFCURVE",
"271 210 OFFCURVE",
"305 210 CURVE SMOOTH",
"454 210 OFFCURVE",
"363 81 OFFCURVE",
"235 81 CURVE SMOOTH",
"151 81 OFFCURVE",
"94 113 OFFCURVE",
"75 113 CURVE SMOOTH",
"54 113 OFFCURVE",
"20 79 OFFCURVE",
"20 54 CURVE SMOOTH",
"20 18 OFFCURVE",
"102 -11 OFFCURVE",
"193 -11 CURVE SMOOTH",
"447 -11 OFFCURVE",
"545 303 OFFCURVE",
"276 303 CURVE SMOOTH",
"239 303 OFFCURVE",
"205 299 OFFCURVE",
"175 299 CURVE SMOOTH",
"148 299 OFFCURVE",
"136 306 OFFCURVE",
"136 317 CURVE SMOOTH",
"136 340 OFFCURVE",
"255 398 OFFCURVE",
"333 387 CURVE"
);
}
);
width = 456;
},
{
associatedMasterId = "59118767-2CA9-48AA-9373-694D24C960D8";
background = {
paths = (
{
closed = 1;
nodes = (
"298 400 LINE",
"191 367 OFFCURVE",
"87 315 OFFCURVE",
"87 252 CURVE SMOOTH",
"87 206 OFFCURVE",
"120 166 OFFCURVE",
"200 166 CURVE SMOOTH",
"238 166 OFFCURVE",
"281 170 OFFCURVE",
"315 170 CURVE SMOOTH",
"464 170 OFFCURVE",
"373 81 OFFCURVE",
"245 81 CURVE SMOOTH",
"161 81 OFFCURVE",
"104 113 OFFCURVE",
"85 113 CURVE SMOOTH",
"64 113 OFFCURVE",
"30 79 OFFCURVE",
"30 54 CURVE SMOOTH",
"30 18 OFFCURVE",
"112 -11 OFFCURVE",
"203 -11 CURVE SMOOTH",
"457 -11 OFFCURVE",
"555 263 OFFCURVE",
"286 263 CURVE SMOOTH",
"249 263 OFFCURVE",
"215 259 OFFCURVE",
"185 259 CURVE SMOOTH",
"158 259 OFFCURVE",
"146 266 OFFCURVE",
"146 277 CURVE SMOOTH",
"146 295 OFFCURVE",
"240 366 OFFCURVE",
"298 383 CURVE"
);
},
{
closed = 1;
nodes = (
"155 324 CURVE SMOOTH",
"214 360 OFFCURVE",
"292 380 OFFCURVE",
"346 399 CURVE SMOOTH",
"360 406 OFFCURVE",
"368 422 OFFCURVE",
"353 440 CURVE SMOOTH",
"344 452 OFFCURVE",
"335 458 OFFCURVE",
"320 461 CURVE",
"261 455 OFFCURVE",
"174 429 OFFCURVE",
"130 408 CURVE SMOOTH",
"-41 327 OFFCURVE",
"111 293 OFFCURVE"
);
}
);
};
components = (
{
name = tlTick;
transform = "{1, 0, 0, 1, 57, 0}";
}
);
guideLines = (
{
position = "{91, -218}";
}
);
layerId = "C37D2535-DFBE-4BC9-92E8-9A5D35D40B0C";
name = "Regular Sep 9 15, 13:14";
paths = (
{
closed = 1;
nodes = (
"343 364 OFFCURVE",
"383 463 OFFCURVE",
"334 463 CURVE SMOOTH",
"242 463 OFFCURVE",
"87 338 OFFCURVE",
"87 252 CURVE SMOOTH",
"87 206 OFFCURVE",
"120 166 OFFCURVE",
"200 166 CURVE SMOOTH",
"238 166 OFFCURVE",
"281 170 OFFCURVE",
"315 170 CURVE SMOOTH",
"464 170 OFFCURVE",
"373 81 OFFCURVE",
"245 81 CURVE SMOOTH",
"161 81 OFFCURVE",
"104 113 OFFCURVE",
"85 113 CURVE SMOOTH",
"64 113 OFFCURVE",
"30 79 OFFCURVE",
"30 54 CURVE SMOOTH",
"30 18 OFFCURVE",
"112 -11 OFFCURVE",
"203 -11 CURVE SMOOTH",
"457 -11 OFFCURVE",
"555 263 OFFCURVE",
"286 263 CURVE SMOOTH",
"249 263 OFFCURVE",
"215 259 OFFCURVE",
"185 259 CURVE SMOOTH",
"158 259 OFFCURVE",
"146 266 OFFCURVE",
"146 277 CURVE SMOOTH",
"146 305 OFFCURVE",
"249 364 OFFCURVE",
"308 364 CURVE SMOOTH"
);
}
);
width = 476;
},
{
associatedMasterId = "59118767-2CA9-48AA-9373-694D24C960D8";
background = {
paths = (
{
closed = 1;
nodes = (
"298 400 LINE",
"191 367 OFFCURVE",
"87 315 OFFCURVE",
"87 252 CURVE SMOOTH",
"87 206 OFFCURVE",
"120 166 OFFCURVE",
"200 166 CURVE SMOOTH",
"238 166 OFFCURVE",
"281 170 OFFCURVE",
"315 170 CURVE SMOOTH",
"464 170 OFFCURVE",
"373 81 OFFCURVE",
"245 81 CURVE SMOOTH",
"161 81 OFFCURVE",
"104 113 OFFCURVE",
"85 113 CURVE SMOOTH",
"64 113 OFFCURVE",
"30 79 OFFCURVE",
"30 54 CURVE SMOOTH",
"30 18 OFFCURVE",
"112 -11 OFFCURVE",
"203 -11 CURVE SMOOTH",
"457 -11 OFFCURVE",
"555 263 OFFCURVE",
"286 263 CURVE SMOOTH",
"249 263 OFFCURVE",
"215 259 OFFCURVE",
"185 259 CURVE SMOOTH",
"158 259 OFFCURVE",
"146 266 OFFCURVE",
"146 277 CURVE SMOOTH",
"146 295 OFFCURVE",
"240 366 OFFCURVE",
"298 383 CURVE"
);
},
{
closed = 1;
nodes = (
"155 324 CURVE SMOOTH",
"214 360 OFFCURVE",
"292 380 OFFCURVE",
"346 399 CURVE SMOOTH",
"360 406 OFFCURVE",
"368 422 OFFCURVE",
"353 440 CURVE SMOOTH",
"344 452 OFFCURVE",
"335 458 OFFCURVE",
"320 461 CURVE",
"261 455 OFFCURVE",
"174 429 OFFCURVE",
"130 408 CURVE SMOOTH",
"-41 327 OFFCURVE",
"111 293 OFFCURVE"
);
}
);
};
components = (
{
name = tlTick;
transform = "{1, 0, 0, 1, 57, 0}";
}
);
guideLines = (
{
position = "{91, -218}";
}
);
layerId = "FCDDE545-9F0A-4293-BBC8-EDD3D2AD6CDA";
name = "Regular Sep 9 15, 13:14";
paths = (
{
closed = 1;
nodes = (
"343 364 OFFCURVE",
"383 463 OFFCURVE",
"334 463 CURVE SMOOTH",
"242 463 OFFCURVE",
"87 338 OFFCURVE",
"87 252 CURVE SMOOTH",
"87 206 OFFCURVE",
"120 166 OFFCURVE",
"200 166 CURVE SMOOTH",
"238 166 OFFCURVE",
"281 170 OFFCURVE",
"315 170 CURVE SMOOTH",
"464 170 OFFCURVE",
"373 81 OFFCURVE",
"245 81 CURVE SMOOTH",
"161 81 OFFCURVE",
"104 113 OFFCURVE",
"85 113 CURVE SMOOTH",
"64 113 OFFCURVE",
"30 79 OFFCURVE",
"30 54 CURVE SMOOTH",
"30 18 OFFCURVE",
"112 -11 OFFCURVE",
"203 -11 CURVE SMOOTH",
"457 -11 OFFCURVE",
"555 263 OFFCURVE",
"286 263 CURVE SMOOTH",
"249 263 OFFCURVE",
"215 259 OFFCURVE",
"185 259 CURVE SMOOTH",
"158 259 OFFCURVE",
"146 266 OFFCURVE",
"146 277 CURVE SMOOTH",
"146 305 OFFCURVE",
"249 364 OFFCURVE",
"308 364 CURVE SMOOTH"
);
}
);
width = 476;
},
{
associatedMasterId = "59118767-2CA9-48AA-9373-694D24C960D8";
background = {
paths = (
{
closed = 1;
nodes = (
"298 400 LINE",
"191 367 OFFCURVE",
"87 315 OFFCURVE",
"87 252 CURVE SMOOTH",
"87 206 OFFCURVE",
"120 166 OFFCURVE",
"200 166 CURVE SMOOTH",
"238 166 OFFCURVE",
"281 170 OFFCURVE",
"315 170 CURVE SMOOTH",
"464 170 OFFCURVE",
"373 81 OFFCURVE",
"245 81 CURVE SMOOTH",
"161 81 OFFCURVE",
"104 113 OFFCURVE",
"85 113 CURVE SMOOTH",
"64 113 OFFCURVE",
"30 79 OFFCURVE",
"30 54 CURVE SMOOTH",
"30 18 OFFCURVE",
"112 -11 OFFCURVE",
"203 -11 CURVE SMOOTH",
"457 -11 OFFCURVE",
"555 263 OFFCURVE",
"286 263 CURVE SMOOTH",
"249 263 OFFCURVE",
"215 259 OFFCURVE",
"185 259 CURVE SMOOTH",
"158 259 OFFCURVE",
"146 266 OFFCURVE",
"146 277 CURVE SMOOTH",
"146 295 OFFCURVE",
"240 366 OFFCURVE",
"298 383 CURVE"
);
},
{
closed = 1;
nodes = (
"155 324 CURVE SMOOTH",
"214 360 OFFCURVE",
"292 380 OFFCURVE",
"346 399 CURVE SMOOTH",
"360 406 OFFCURVE",
"368 422 OFFCURVE",
"353 440 CURVE SMOOTH",
"344 452 OFFCURVE",
"335 458 OFFCURVE",
"320 461 CURVE",
"261 455 OFFCURVE",
"174 429 OFFCURVE",
"130 408 CURVE SMOOTH",
"-41 327 OFFCURVE",
"111 293 OFFCURVE"
);
}
);
};
components = (
{
name = tlTick;
transform = "{1, 0, 0, 1, 50, 0}";
}
);
guideLines = (
{
position = "{91, -218}";
}
);
layerId = "697B1E69-E83E-4B1E-928E-9B0C33AAC0B5";
name = "Regular Sep 9 15, 20:06";
paths = (
{
closed = 1;
nodes = (
"298 400 LINE",
"191 367 OFFCURVE",
"87 315 OFFCURVE",
"87 252 CURVE SMOOTH",
"87 206 OFFCURVE",
"120 166 OFFCURVE",
"200 166 CURVE SMOOTH",
"238 166 OFFCURVE",
"281 170 OFFCURVE",
"315 170 CURVE SMOOTH",
"464 170 OFFCURVE",
"373 81 OFFCURVE",
"245 81 CURVE SMOOTH",
"161 81 OFFCURVE",
"104 113 OFFCURVE",
"85 113 CURVE SMOOTH",
"64 113 OFFCURVE",
"30 79 OFFCURVE",
"30 54 CURVE SMOOTH",
"30 18 OFFCURVE",
"112 -11 OFFCURVE",
"203 -11 CURVE SMOOTH",
"457 -11 OFFCURVE",
"555 263 OFFCURVE",
"286 263 CURVE SMOOTH",
"249 263 OFFCURVE",
"215 259 OFFCURVE",
"185 259 CURVE SMOOTH",
"158 259 OFFCURVE",
"146 266 OFFCURVE",
"146 277 CURVE SMOOTH",
"146 295 OFFCURVE",
"185 350 OFFCURVE",
"298 386 CURVE"
);
},
{
closed = 1;
nodes = (
"51 337 CURVE SMOOTH",
"51 278 OFFCURVE",
"126 313 OFFCURVE",
"155 333 CURVE SMOOTH",
"212 373 OFFCURVE",
"292 380 OFFCURVE",
"346 399 CURVE SMOOTH",
"360 406 OFFCURVE",
"368 422 OFFCURVE",
"353 440 CURVE SMOOTH",
"344 452 OFFCURVE",
"335 458 OFFCURVE",
"320 461 CURVE",
"241 453 OFFCURVE",
"51 395 OFFCURVE"
);
}
);
width = 476;
}
);
leftKerningGroup = tlKA;
unicode = 0C15;
},
{
color = 6;
glyphname = tlKHA;
lastChange = "2015-10-30 12:45:06 +0000";
layers = (
{
components = (
{
name = "CC-kha";
transform = "{1, 0, 0, 1, 27, 0}";
},
{
name = tlTeardrop;
transform = "{1, 0, 0, 1, 276, -20}";
},
{
name = "CC-Kha";
transform = "{1, 0, 0, 1, 297, 0}";
}
);
layerId = "59118767-2CA9-48AA-9373-694D24C960D8";
name = Regular;
width = 711;
},
{
associatedMasterId = "59118767-2CA9-48AA-9373-694D24C960D8";
layerId = "ABE5F19E-A2E5-43CA-8C3E-DD6F5DBE434E";
name = "Regular Aug 29 15, 22:33";
paths = (
{
closed = 1;
nodes = (
"111 415 OFFCURVE",
"140 427 OFFCURVE",
"168 427 CURVE SMOOTH",
"200 427 OFFCURVE",
"217 386 OFFCURVE",
"217 345 CURVE SMOOTH",
"217 308 OFFCURVE",
"202 272 OFFCURVE",
"169 272 CURVE SMOOTH",
"139 272 OFFCURVE",
"111 304 OFFCURVE",
"111 349 CURVE SMOOTH"
);
},
{
closed = 1;
nodes = (
"200 184 OFFCURVE",
"306 321 OFFCURVE",
"306 433 CURVE SMOOTH",
"306 485 OFFCURVE",
"280 523 OFFCURVE",
"218 523 CURVE SMOOTH",
"142 523 OFFCURVE",
"40 418 OFFCURVE",
"40 282 CURVE SMOOTH",
"40 240 OFFCURVE",
"57 184 OFFCURVE",
"122 184 CURVE SMOOTH"
);
},
{
closed = 1;
nodes = (
"180 429 LINE",
"230 428 OFFCURVE",
"286 412 OFFCURVE",
"322 383 CURVE SMOOTH",
"425 304 OFFCURVE",
"266 -72 OFFCURVE",
"121 -72 CURVE",
"75 -172 LINE",
"296 -172 OFFCURVE",
"529 309 OFFCURVE",
"388 465 CURVE SMOOTH",
"352 503 OFFCURVE",
"296 522 OFFCURVE",
"221 524 CURVE"
);
},
{
closed = 1;
nodes = (
"356 130 LINE",
"305 121 OFFCURVE",
"246 166 OFFCURVE",
"197 166 CURVE SMOOTH",
"76 166 OFFCURVE",
"-31 35 OFFCURVE",
"-31 -68 CURVE SMOOTH",
"-31 -139 OFFCURVE",
"25 -170 OFFCURVE",
"55 -170 CURVE SMOOTH",
"107 -170 OFFCURVE",
"142 -82 OFFCURVE",
"118 -73 CURVE SMOOTH",
"71 -64 OFFCURVE",
"31 -59 OFFCURVE",
"31 -18 CURVE SMOOTH",
"31 29 OFFCURVE",
"84 56 OFFCURVE",
"139 56 CURVE SMOOTH",
"186 56 OFFCURVE",
"212 36 OFFCURVE",
"283 12 CURVE"
);
},
{
closed = 1;
nodes = (
"302 35 LINE",
"481 -93 OFFCURVE",
"741 20 OFFCURVE",
"741 246 CURVE SMOOTH",
"741 316 OFFCURVE",
"704 460 OFFCURVE",
"558 460 CURVE SMOOTH",
"510 460 OFFCURVE",
"453 367 OFFCURVE",
"494 362 CURVE SMOOTH",
"550 354 OFFCURVE",
"665 301 OFFCURVE",
"665 178 CURVE SMOOTH",
"665 80 OFFCURVE",
"452 81 OFFCURVE",
"363 145 CURVE"
);
}
);
width = 555;
}
);
leftKerningGroup = knKHA;
leftMetricsKey = knKHA;
rightMetricsKey = tlLA;
unicode = 0C16;
},
{
color = 6;
glyphname = tlGA;
lastChange = "2015-10-30 12:45:06 +0000";
layers = (
{
components = (
{
name = tlTick;
transform = "{1, 0, 0, 1, 39, 0}";
}
);
layerId = "59118767-2CA9-48AA-9373-694D24C960D8";
name = Regular;
paths = (
{
closed = 1;
nodes = (
"375 -10 OFFCURVE",
"435 43 OFFCURVE",
"439 59 CURVE",
"447 94 OFFCURVE",
"452 133 OFFCURVE",
"452 193 CURVE SMOOTH",
"452 341 OFFCURVE",
"388 462 OFFCURVE",
"259 462 CURVE SMOOTH",
"190 462 OFFCURVE",
"114 431 OFFCURVE",
"47 368 CURVE",
"38 359 OFFCURVE",
"39 348 OFFCURVE",
"39 338 CURVE SMOOTH",
"39 318 OFFCURVE",
"50 308 OFFCURVE",
"57 308 CURVE SMOOTH",
"76 308 OFFCURVE",
"151 360 OFFCURVE",
"225 360 CURVE SMOOTH",
"282 360 OFFCURVE",
"359 311 OFFCURVE",
"359 170 CURVE SMOOTH",
"359 69 OFFCURVE",
"339 24 OFFCURVE",
"339 4 CURVE SMOOTH",
"339 -5 OFFCURVE",
"343 -10 OFFCURVE",
"350 -10 CURVE SMOOTH"
);
},
{
closed = 1;
nodes = (
"79 -18 OFFCURVE",
"146 38 OFFCURVE",
"146 82 CURVE SMOOTH",
"146 164 OFFCURVE",
"256 381 OFFCURVE",
"360 396 CURVE",
"281 398 LINE",
"186 383 OFFCURVE",
"40 188 OFFCURVE",
"40 -1 CURVE",
"40 -13 OFFCURVE",
"45 -18 OFFCURVE",
"53 -18 CURVE SMOOTH"
);
}
);
width = 509;
}
);
leftMetricsKey = knGA;
unicode = 0C17;
},
{
color = 6;
glyphname = tlNGA;
lastChange = "2015-10-30 12:45:06 +0000";
layers = (
{
components = (
{
name = tlO;
}
);
layerId = "59118767-2CA9-48AA-9373-694D24C960D8";
name = Regular;
paths = (
{
closed = 1;
nodes = (
"396 479 OFFCURVE",
"403 472 OFFCURVE",
"413 472 CURVE SMOOTH",
"458 472 OFFCURVE",
"484 584 OFFCURVE",
"489 644 CURVE SMOOTH",
"492 677 OFFCURVE",
"470 714 OFFCURVE",
"446 714 CURVE SMOOTH",
"425 714 OFFCURVE",
"376 687 OFFCURVE",
"379 650 CURVE SMOOTH",
"380 627 OFFCURVE",
"388 534 OFFCURVE",
"395 488 CURVE"
);
},
{
closed = 1;
nodes = (
"222 353 LINE",
"247 355 OFFCURVE",
"275 357 OFFCURVE",
"306 358 CURVE SMOOTH",
"438 365 OFFCURVE",
"512 360 OFFCURVE",
"527 360 CURVE SMOOTH",
"563 362 OFFCURVE",
"600 418 OFFCURVE",
"598 434 CURVE SMOOTH",
"598 441 OFFCURVE",
"591 445 OFFCURVE",
"586 445 CURVE",
"492 443 OFFCURVE",
"326 438 OFFCURVE",
"222 434 CURVE"
);
}
);
width = 664;
}
);
leftMetricsKey = knO;
unicode = 0C19;
},
{
color = 6;
glyphname = tlCA;
lastChange = "2015-10-30 12:45:06 +0000";
layers = (
{
components = (
{
name = "CC-Tl-CA";
transform = "{1, 0, 0, 1, -8, 0}";
}
);
layerId = "59118767-2CA9-48AA-9373-694D24C960D8";
name = Regular;
paths = (
{
closed = 1;
nodes = (
"434 690 OFFCURVE",
"384 661 OFFCURVE",
"335 618 CURVE SMOOTH",
"242 537 OFFCURVE",
"179 435 OFFCURVE",
"159 381 CURVE SMOOTH",
"152 359 OFFCURVE",
"152 329 OFFCURVE",
"180 329 CURVE SMOOTH",
"185 329 OFFCURVE",
"189 331 OFFCURVE",
"191 333 CURVE SMOOTH",
"202 345 OFFCURVE",
"234 450 OFFCURVE",
"312 517 CURVE SMOOTH",
"384 579 OFFCURVE",
"437 558 OFFCURVE",
"453 574 CURVE SMOOTH",
"462 583 OFFCURVE",
"492 636 OFFCURVE",
"492 666 CURVE SMOOTH",
"492 680 OFFCURVE",
"486 690 OFFCURVE",
"467 690 CURVE SMOOTH"
);
}
);
width = 747;
},
{
associatedMasterId = "59118767-2CA9-48AA-9373-694D24C960D8";
background = {
paths = (
{
closed = 1;
nodes = (
"218 211 LINE",
"189 153 OFFCURVE",
"170 90 OFFCURVE",
"170 34 CURVE SMOOTH",
"170 -19 OFFCURVE",
"195 -50 OFFCURVE",
"248 -50 CURVE SMOOTH",
"309 -50 OFFCURVE",
"411 3 OFFCURVE",
"483 122 CURVE SMOOTH",
"487 129 OFFCURVE",
"487 152 OFFCURVE",
"487 157 CURVE SMOOTH",
"487 166 OFFCURVE",
"479 173 OFFCURVE",
"470 173 CURVE SMOOTH",
"459 173 OFFCURVE",
"448 165 OFFCURVE",
"439 152 CURVE SMOOTH",
"403 99 OFFCURVE",
"347 54 OFFCURVE",
"313 54 CURVE SMOOTH",
"282 54 OFFCURVE",
"271 76 OFFCURVE",
"271 110 CURVE SMOOTH",
"271 139 OFFCURVE",
"280 175 OFFCURVE",
"295 211 CURVE"
);
},
{
closed = 1;
nodes = (
"650 -13 OFFCURVE",
"756 109 OFFCURVE",
"756 240 CURVE SMOOTH",
"756 390 OFFCURVE",
"657 462 OFFCURVE",
"518 462 CURVE SMOOTH",
"395 462 OFFCURVE",
"286 433 OFFCURVE",
"205 380 CURVE",
"194 345 OFFCURVE",
"207 310 OFFCURVE",
"222 310 CURVE SMOOTH",
"249 310 OFFCURVE",
"303 359 OFFCURVE",
"472 359 CURVE SMOOTH",
"587 359 OFFCURVE",
"681 287 OFFCURVE",
"681 184 CURVE SMOOTH",
"681 129 OFFCURVE",
"636 83 OFFCURVE",
"582 83 CURVE SMOOTH",
"544 83 OFFCURVE",
"504 105 OFFCURVE",
"487 157 CURVE",
"417 73 LINE",
"432 13 OFFCURVE",
"478 -13 OFFCURVE",
"530 -13 CURVE SMOOTH"
);
}
);
};
layerId = "3D43892C-A369-4665-8EB4-6C7699654F56";
name = "Regular Sep 21 15, 17:28";
paths = (
{
closed = 1;
nodes = (
"169 231 OFFCURVE",
"110 232 OFFCURVE",
"93 227 CURVE SMOOTH",
"53 212 OFFCURVE",
"37 156 OFFCURVE",
"38 145 CURVE SMOOTH",
"38 143 OFFCURVE",
"39 136 OFFCURVE",
"50 138 CURVE SMOOTH",
"60 138 OFFCURVE",
"229 149 OFFCURVE",
"249 149 CURVE SMOOTH",
"254 149 OFFCURVE",
"322 207 OFFCURVE",
"320 223 CURVE SMOOTH",
"320 230 OFFCURVE",
"313 234 OFFCURVE",
"308 234 CURVE"
);
},
{
closed = 1;
nodes = (
"218 211 LINE",
"189 153 OFFCURVE",
"170 90 OFFCURVE",
"170 34 CURVE SMOOTH",
"170 -19 OFFCURVE",
"195 -50 OFFCURVE",
"248 -50 CURVE SMOOTH",
"309 -50 OFFCURVE",
"411 3 OFFCURVE",
"483 122 CURVE SMOOTH",
"487 129 OFFCURVE",
"487 152 OFFCURVE",
"487 157 CURVE SMOOTH",
"487 166 OFFCURVE",
"479 173 OFFCURVE",
"470 173 CURVE SMOOTH",
"459 173 OFFCURVE",
"448 165 OFFCURVE",
"439 152 CURVE SMOOTH",
"403 99 OFFCURVE",
"347 54 OFFCURVE",
"313 54 CURVE SMOOTH",
"282 54 OFFCURVE",
"261 76 OFFCURVE",
"261 110 CURVE SMOOTH",
"261 139 OFFCURVE",
"290 187 OFFCURVE",
"320 223 CURVE"
);
},
{
closed = 1;
nodes = (
"650 -13 OFFCURVE",
"756 109 OFFCURVE",
"756 240 CURVE SMOOTH",
"756 390 OFFCURVE",
"657 462 OFFCURVE",
"518 462 CURVE SMOOTH",
"395 462 OFFCURVE",
"286 433 OFFCURVE",
"205 380 CURVE",
"194 345 OFFCURVE",
"207 310 OFFCURVE",
"222 310 CURVE SMOOTH",
"249 310 OFFCURVE",
"303 359 OFFCURVE",
"472 359 CURVE SMOOTH",
"587 359 OFFCURVE",
"681 287 OFFCURVE",
"681 184 CURVE SMOOTH",
"681 129 OFFCURVE",
"636 83 OFFCURVE",
"582 83 CURVE SMOOTH",
"544 83 OFFCURVE",
"504 105 OFFCURVE",
"487 157 CURVE",
"417 73 LINE",
"432 13 OFFCURVE",
"478 -13 OFFCURVE",
"530 -13 CURVE SMOOTH"
);
},
{
closed = 1;
nodes = (
"480 690 OFFCURVE",
"430 661 OFFCURVE",
"381 618 CURVE SMOOTH",
"288 537 OFFCURVE",
"225 435 OFFCURVE",
"205 381 CURVE SMOOTH",
"198 359 OFFCURVE",
"197 329 OFFCURVE",
"226 329 CURVE SMOOTH",
"231 329 OFFCURVE",
"235 331 OFFCURVE",
"237 333 CURVE SMOOTH",
"248 345 OFFCURVE",
"280 450 OFFCURVE",
"358 517 CURVE SMOOTH",
"430 579 OFFCURVE",
"483 558 OFFCURVE",
"499 574 CURVE SMOOTH",
"508 583 OFFCURVE",
"538 636 OFFCURVE",
"538 666 CURVE SMOOTH",
"538 680 OFFCURVE",
"532 690 OFFCURVE",
"513 690 CURVE SMOOTH"
);
}
);
width = 783;
}
);
rightMetricsKey = knDA;
unicode = 0C1A;
},
{
color = 6;
glyphname = tlNYA;
lastChange = "2015-10-30 12:45:06 +0000";
layers = (
{
components = (
{
name = knI;
}
);
layerId = "59118767-2CA9-48AA-9373-694D24C960D8";
name = Regular;
paths = (
{
closed = 1;
nodes = (
"521 356 LINE",
"532 357 OFFCURVE",
"544 358 OFFCURVE",
"556 358 CURVE SMOOTH",
"688 365 OFFCURVE",
"762 360 OFFCURVE",
"777 360 CURVE SMOOTH",
"813 362 OFFCURVE",
"850 418 OFFCURVE",
"848 434 CURVE SMOOTH",
"848 441 OFFCURVE",
"841 445 OFFCURVE",
"836 445 CURVE",
"756 443 OFFCURVE",
"623 439 OFFCURVE",
"521 436 CURVE"
);
},
{
closed = 1;
nodes = (
"658 479 OFFCURVE",
"665 472 OFFCURVE",
"675 472 CURVE SMOOTH",
"720 472 OFFCURVE",
"746 584 OFFCURVE",
"751 644 CURVE SMOOTH",
"754 677 OFFCURVE",
"732 714 OFFCURVE",
"708 714 CURVE SMOOTH",
"687 714 OFFCURVE",
"638 687 OFFCURVE",
"641 650 CURVE SMOOTH",
"642 627 OFFCURVE",
"650 534 OFFCURVE",
"657 488 CURVE"
);
}
);
width = 880;
}
);
leftMetricsKey = tlI;
unicode = 0C1E;
},
{
color = 6;
glyphname = tlTTA;
lastChange = "2015-10-30 12:45:06 +0000";
layers = (
{
guideLines = (
{
position = "{892, 503}";
},
{
angle = 180.542;
position = "{691, 717}";
}
);
layerId = "59118767-2CA9-48AA-9373-694D24C960D8";
name = Regular;
paths = (
{
closed = 1;
nodes = (
"210 479 OFFCURVE",
"217 472 OFFCURVE",
"227 472 CURVE SMOOTH",
"272 472 OFFCURVE",
"298 584 OFFCURVE",
"303 644 CURVE SMOOTH",
"306 677 OFFCURVE",
"284 714 OFFCURVE",
"260 714 CURVE SMOOTH",
"239 714 OFFCURVE",
"190 687 OFFCURVE",
"193 650 CURVE SMOOTH",
"194 627 OFFCURVE",
"202 534 OFFCURVE",
"209 488 CURVE"
);
},
{
closed = 1;
nodes = (
"734 351 OFFCURVE",
"645 456 OFFCURVE",
"539 462 CURVE SMOOTH",
"491 465 OFFCURVE",
"438 379 OFFCURVE",
"475 364 CURVE SMOOTH",
"573 334 OFFCURVE",
"655 292 OFFCURVE",
"655 184 CURVE SMOOTH",
"655 121 OFFCURVE",
"604 86 OFFCURVE",
"549 86 CURVE SMOOTH",
"502 86 OFFCURVE",
"452 111 OFFCURVE",
"425 163 CURVE",
"422 171 OFFCURVE",
"416 173 OFFCURVE",
"410 173 CURVE SMOOTH",
"398 173 OFFCURVE",
"390 166 OFFCURVE",
"379 152 CURVE",
"339 106 OFFCURVE",
"296 80 OFFCURVE",
"241 80 CURVE SMOOTH",
"170 80 OFFCURVE",
"115 124 OFFCURVE",
"115 207 CURVE SMOOTH",
"115 296 OFFCURVE",
"169 376 OFFCURVE",
"246 376 CURVE SMOOTH",
"273 376 OFFCURVE",
"286 358 OFFCURVE",
"286 338 CURVE SMOOTH",
"286 315 OFFCURVE",
"270 288 OFFCURVE",
"242 280 CURVE SMOOTH",
"227 275 OFFCURVE",
"215 278 OFFCURVE",
"212 275 CURVE SMOOTH",
"194 252 OFFCURVE",
"206 216 OFFCURVE",
"243 220 CURVE SMOOTH",
"329 230 OFFCURVE",
"388 298 OFFCURVE",
"388 363 CURVE SMOOTH",
"388 423 OFFCURVE",
"343 463 OFFCURVE",
"278 463 CURVE SMOOTH",
"147 463 OFFCURVE",
"16 301 OFFCURVE",
"16 154 CURVE SMOOTH",
"16 41 OFFCURVE",
"95 -14 OFFCURVE",
"190 -14 CURVE SMOOTH",
"248 -14 OFFCURVE",
"312 6 OFFCURVE",
"367 47 CURVE",
"403 5 OFFCURVE",
"449 -14 OFFCURVE",
"497 -14 CURVE SMOOTH",
"623 -14 OFFCURVE",
"734 96 OFFCURVE",
"734 240 CURVE SMOOTH"
);
}
);
width = 767;
},
{
associatedMasterId = "59118767-2CA9-48AA-9373-694D24C960D8";
components = (
{
name = "CC-TTA-telugukan";
transform = "{1, 0, 0, 1, 23, 0}";
}
);
guideLines = (
{
position = "{521, 503}";
}
);
layerId = "0F675A24-9DBD-44FF-A67F-B1CC457C52EE";
name = "Regular Sep 5 15, 18:33";
paths = (
{
closed = 1;
nodes = (
"195 531 OFFCURVE",
"185 407 OFFCURVE",
"185 352 CURVE",
"290 382 LINE",
"290 437 OFFCURVE",
"300 561 OFFCURVE",
"310 616 CURVE",
"290 626 OFFCURVE",
"225 616 OFFCURVE",
"205 586 CURVE"
);
}
);
width = 792;
},
{
associatedMasterId = "59118767-2CA9-48AA-9373-694D24C960D8";
guideLines = (
{
position = "{808, 503}";
}
);
layerId = "BB4724CB-0881-41F9-951F-DA67B245A328";
name = "Regular Sep 20 15, 21:04";
paths = (
{
closed = 1;
nodes = (
"216 484 OFFCURVE",
"223 477 OFFCURVE",
"233 477 CURVE SMOOTH",
"284 477 OFFCURVE",
"304 579 OFFCURVE",
"309 639 CURVE SMOOTH",
"312 672 OFFCURVE",
"290 706 OFFCURVE",
"266 709 CURVE SMOOTH",
"245 712 OFFCURVE",
"196 682 OFFCURVE",
"199 645 CURVE",
"200 622 OFFCURVE",
"208 539 OFFCURVE",
"215 493 CURVE"
);
},
{
closed = 1;
nodes = (
"740 351 OFFCURVE",
"651 456 OFFCURVE",
"545 462 CURVE SMOOTH",
"497 465 OFFCURVE",
"442 377 OFFCURVE",
"481 364 CURVE SMOOTH",
"579 334 OFFCURVE",
"661 292 OFFCURVE",
"661 184 CURVE SMOOTH",
"661 121 OFFCURVE",
"610 86 OFFCURVE",
"555 86 CURVE SMOOTH",
"508 86 OFFCURVE",
"458 111 OFFCURVE",
"431 163 CURVE",
"428 171 OFFCURVE",
"422 173 OFFCURVE",
"416 173 CURVE SMOOTH",
"404 173 OFFCURVE",
"396 166 OFFCURVE",
"385 152 CURVE",
"345 106 OFFCURVE",
"302 80 OFFCURVE",
"247 80 CURVE SMOOTH",
"176 80 OFFCURVE",
"121 124 OFFCURVE",
"121 207 CURVE SMOOTH",
"121 306 OFFCURVE",
"199 403 OFFCURVE",
"260 403 CURVE SMOOTH",
"279 403 OFFCURVE",
"288 394 OFFCURVE",
"288 378 CURVE SMOOTH",
"288 352 OFFCURVE",
"265 339 OFFCURVE",
"243 327 CURVE",
"239 325 OFFCURVE",
"235 319 OFFCURVE",
"235 301 CURVE SMOOTH",
"235 274 OFFCURVE",
"244 222 OFFCURVE",
"275 222 CURVE SMOOTH",
"308 222 OFFCURVE",
"383 278 OFFCURVE",
"383 363 CURVE SMOOTH",
"383 419 OFFCURVE",
"350 464 OFFCURVE",
"277 464 CURVE SMOOTH",
"133 464 OFFCURVE",
"30 286 OFFCURVE",
"30 157 CURVE SMOOTH",
"30 52 OFFCURVE",
"99 -16 OFFCURVE",
"207 -16 CURVE SMOOTH",
"272 -16 OFFCURVE",
"326 9 OFFCURVE",
"373 47 CURVE",
"409 5 OFFCURVE",
"455 -14 OFFCURVE",
"503 -14 CURVE SMOOTH",
"629 -14 OFFCURVE",
"740 96 OFFCURVE",
"740 240 CURVE SMOOTH"
);
}
);
width = 792;
},
{
associatedMasterId = "59118767-2CA9-48AA-9373-694D24C960D8";
background = {
paths = (
{
closed = 1;
nodes = (
"-4 570 CURVE",
"53 478 LINE",
"118 481 OFFCURVE",
"200 469 OFFCURVE",
"248 435 CURVE SMOOTH",
"272 418 OFFCURVE",
"290 395 OFFCURVE",
"290 366 CURVE SMOOTH",
"290 326 OFFCURVE",
"250 318 OFFCURVE",
"215 313 CURVE",
"205 312 OFFCURVE",
"201 303 OFFCURVE",
"201 292 CURVE SMOOTH",
"201 263 OFFCURVE",
"230 216 OFFCURVE",
"272 216 CURVE SMOOTH",
"327 216 OFFCURVE",
"367 271 OFFCURVE",
"367 332 CURVE SMOOTH",
"367 394 OFFCURVE",
"339 443 OFFCURVE",
"298 480 CURVE SMOOTH",
"226 544 OFFCURVE",
"109 573 OFFCURVE"
);
}
);
};
guideLines = (
{
position = "{808, 503}";
},
{
angle = 180.542;
position = "{607, 717}";
}
);
layerId = "F50BF34A-9A88-4DF5-8153-E466CF357EFD";
name = "Regular Sep 21 15, 15:04";
paths = (
{
closed = 1;
nodes = (
"216 479 OFFCURVE",
"223 472 OFFCURVE",
"233 472 CURVE SMOOTH",
"278 472 OFFCURVE",
"304 584 OFFCURVE",
"309 644 CURVE SMOOTH",
"312 677 OFFCURVE",
"290 714 OFFCURVE",
"266 714 CURVE SMOOTH",
"245 714 OFFCURVE",
"196 687 OFFCURVE",
"199 650 CURVE SMOOTH",
"200 627 OFFCURVE",
"208 534 OFFCURVE",
"215 488 CURVE"
);
},
{
closed = 1;
nodes = (
"740 351 OFFCURVE",
"651 456 OFFCURVE",
"545 462 CURVE SMOOTH",
"497 465 OFFCURVE",
"442 377 OFFCURVE",
"481 364 CURVE SMOOTH",
"579 334 OFFCURVE",
"661 292 OFFCURVE",
"661 184 CURVE SMOOTH",
"661 121 OFFCURVE",
"610 86 OFFCURVE",
"555 86 CURVE SMOOTH",
"508 86 OFFCURVE",
"458 111 OFFCURVE",
"431 163 CURVE",
"428 171 OFFCURVE",
"422 173 OFFCURVE",
"416 173 CURVE SMOOTH",
"404 173 OFFCURVE",
"396 166 OFFCURVE",
"385 152 CURVE",
"345 106 OFFCURVE",
"302 80 OFFCURVE",
"247 80 CURVE SMOOTH",
"176 80 OFFCURVE",
"121 124 OFFCURVE",
"121 207 CURVE SMOOTH",
"121 306 OFFCURVE",
"189 399 OFFCURVE",
"260 399 CURVE SMOOTH",
"279 399 OFFCURVE",
"288 390 OFFCURVE",
"288 374 CURVE SMOOTH",
"288 348 OFFCURVE",
"265 335 OFFCURVE",
"243 323 CURVE",
"239 321 OFFCURVE",
"235 315 OFFCURVE",
"235 297 CURVE SMOOTH",
"235 270 OFFCURVE",
"244 218 OFFCURVE",
"275 218 CURVE SMOOTH",
"308 218 OFFCURVE",
"383 268 OFFCURVE",
"383 353 CURVE SMOOTH",
"383 409 OFFCURVE",
"350 464 OFFCURVE",
"277 464 CURVE SMOOTH",
"134 464 OFFCURVE",
"19 299 OFFCURVE",
"19 163 CURVE SMOOTH",
"19 66 OFFCURVE",
"74 -16 OFFCURVE",
"207 -16 CURVE SMOOTH",
"272 -16 OFFCURVE",
"326 9 OFFCURVE",
"373 47 CURVE",
"409 5 OFFCURVE",
"455 -14 OFFCURVE",
"503 -14 CURVE SMOOTH",
"629 -14 OFFCURVE",
"740 96 OFFCURVE",
"740 240 CURVE SMOOTH"
);
}
);
width = 792;
},
{
associatedMasterId = "59118767-2CA9-48AA-9373-694D24C960D8";
background = {
paths = (
{
closed = 1;
nodes = (
"-4 570 CURVE",
"53 478 LINE",
"118 481 OFFCURVE",
"200 469 OFFCURVE",
"248 435 CURVE SMOOTH",
"272 418 OFFCURVE",
"290 395 OFFCURVE",
"290 366 CURVE SMOOTH",
"290 326 OFFCURVE",
"250 318 OFFCURVE",
"215 313 CURVE",
"205 312 OFFCURVE",
"201 303 OFFCURVE",
"201 292 CURVE SMOOTH",
"201 263 OFFCURVE",
"230 216 OFFCURVE",
"272 216 CURVE SMOOTH",
"327 216 OFFCURVE",
"367 271 OFFCURVE",
"367 332 CURVE SMOOTH",
"367 394 OFFCURVE",
"339 443 OFFCURVE",
"298 480 CURVE SMOOTH",
"226 544 OFFCURVE",
"109 573 OFFCURVE"
);
}
);
};
guideLines = (
{
position = "{808, 503}";
},
{
angle = 180.542;
position = "{607, 717}";
}
);
layerId = "ECE7B85C-1762-4A94-B1A1-BC8A6D97E4DE";
name = "Regular Sep 21 15, 15:13";
paths = (
{
closed = 1;
nodes = (
"216 479 OFFCURVE",
"223 472 OFFCURVE",
"233 472 CURVE SMOOTH",
"278 472 OFFCURVE",
"304 584 OFFCURVE",
"309 644 CURVE SMOOTH",
"312 677 OFFCURVE",
"290 714 OFFCURVE",
"266 714 CURVE SMOOTH",
"245 714 OFFCURVE",
"196 687 OFFCURVE",
"199 650 CURVE SMOOTH",
"200 627 OFFCURVE",
"208 534 OFFCURVE",
"215 488 CURVE"
);
},
{
closed = 1;
nodes = (
"740 351 OFFCURVE",
"651 456 OFFCURVE",
"545 462 CURVE SMOOTH",
"497 465 OFFCURVE",
"442 377 OFFCURVE",
"481 364 CURVE SMOOTH",
"579 334 OFFCURVE",
"661 292 OFFCURVE",
"661 184 CURVE SMOOTH",
"661 121 OFFCURVE",
"610 86 OFFCURVE",
"555 86 CURVE SMOOTH",
"508 86 OFFCURVE",
"458 111 OFFCURVE",
"431 163 CURVE",
"428 171 OFFCURVE",
"422 173 OFFCURVE",
"416 173 CURVE SMOOTH",
"404 173 OFFCURVE",
"396 166 OFFCURVE",
"385 152 CURVE",
"345 106 OFFCURVE",
"302 80 OFFCURVE",
"247 80 CURVE SMOOTH",
"176 80 OFFCURVE",
"121 124 OFFCURVE",
"121 207 CURVE SMOOTH",
"121 306 OFFCURVE",
"183 394 OFFCURVE",
"254 394 CURVE SMOOTH",
"278 394 OFFCURVE",
"295 379 OFFCURVE",
"295 361 CURVE SMOOTH",
"295 334 OFFCURVE",
"272 321 OFFCURVE",
"242 316 CURVE SMOOTH",
"230 314 OFFCURVE",
"221 315 OFFCURVE",
"216 310 CURVE SMOOTH",
"193 286 OFFCURVE",
"232 216 OFFCURVE",
"278 216 CURVE SMOOTH",
"337 216 OFFCURVE",
"391 299 OFFCURVE",
"391 360 CURVE SMOOTH",
"391 419 OFFCURVE",
"348 464 OFFCURVE",
"277 464 CURVE SMOOTH",
"134 464 OFFCURVE",
"19 299 OFFCURVE",
"19 163 CURVE SMOOTH",
"19 66 OFFCURVE",
"74 -16 OFFCURVE",
"207 -16 CURVE SMOOTH",
"272 -16 OFFCURVE",
"326 9 OFFCURVE",
"373 47 CURVE",
"409 5 OFFCURVE",
"455 -14 OFFCURVE",
"503 -14 CURVE SMOOTH",
"629 -14 OFFCURVE",
"740 96 OFFCURVE",
"740 240 CURVE SMOOTH"
);
}
);
width = 792;
}
);
leftMetricsKey = knLA;
rightMetricsKey = tlJHA;
unicode = 0C1F;
},
{
color = 6;
glyphname = tlDDA;
lastChange = "2015-10-30 12:45:06 +0000";
layers = (
{
components = (
{
name = tlTick;
transform = "{1, 0, 0, 1, 51, 0}";
}
);
layerId = "59118767-2CA9-48AA-9373-694D24C960D8";
name = Regular;
paths = (
{
closed = 1;
nodes = (
"476 304 OFFCURVE",
"435 258 OFFCURVE",
"423 231 CURVE SMOOTH",
"403 186 OFFCURVE",
"437 169 OFFCURVE",
"459 186 CURVE",
"471 196 OFFCURVE",
"487 203 OFFCURVE",
"509 203 CURVE SMOOTH",
"581 203 OFFCURVE",
"597 90 OFFCURVE",
"456 90 CURVE SMOOTH",
"405 90 OFFCURVE",
"353 113 OFFCURVE",
"340 157 CURVE",
"338 166 OFFCURVE",
"332 173 OFFCURVE",
"323 173 CURVE SMOOTH",
"312 173 OFFCURVE",
"301 165 OFFCURVE",
"292 152 CURVE SMOOTH",
"256 99 OFFCURVE",
"200 54 OFFCURVE",
"166 54 CURVE SMOOTH",
"135 54 OFFCURVE",
"123 80 OFFCURVE",
"123 113 CURVE SMOOTH",
"123 228 OFFCURVE",
"237 342 OFFCURVE",
"373 387 CURVE SMOOTH",
"421 403 OFFCURVE",
"419 462 OFFCURVE",
"380 462 CURVE SMOOTH",
"280 462 OFFCURVE",
"117 420 OFFCURVE",
"59 380 CURVE",
"41 345 OFFCURVE",
"60 310 OFFCURVE",
"75 310 CURVE SMOOTH",
"93 310 OFFCURVE",
"128 339 OFFCURVE",
"200 359 CURVE",
"105 294 OFFCURVE",
"22 152 OFFCURVE",
"22 42 CURVE SMOOTH",
"22 -11 OFFCURVE",
"44 -50 OFFCURVE",
"101 -50 CURVE SMOOTH",
"147 -50 OFFCURVE",
"215 -20 OFFCURVE",
"277 45 CURVE",
"307 6 OFFCURVE",
"353 -13 OFFCURVE",
"403 -13 CURVE SMOOTH",
"518 -13 OFFCURVE",
"639 80 OFFCURVE",
"639 191 CURVE SMOOTH",
"639 265 OFFCURVE",
"594 304 OFFCURVE",
"539 304 CURVE SMOOTH"
);
}
);
width = 676;
},
{
associatedMasterId = "59118767-2CA9-48AA-9373-694D24C960D8";
background = {
paths = (
{
closed = 1;
nodes = (
"228 379 LINE",
"130 331 OFFCURVE",
"31 163 OFFCURVE",
"31 34 CURVE SMOOTH",
"31 -19 OFFCURVE",
"56 -50 OFFCURVE",
"109 -50 CURVE SMOOTH",
"170 -50 OFFCURVE",
"272 3 OFFCURVE",
"344 122 CURVE SMOOTH",
"348 129 OFFCURVE",
"348 152 OFFCURVE",
"348 157 CURVE SMOOTH",
"348 166 OFFCURVE",
"340 173 OFFCURVE",
"331 173 CURVE SMOOTH",
"320 173 OFFCURVE",
"309 165 OFFCURVE",
"300 152 CURVE SMOOTH",
"264 99 OFFCURVE",
"208 54 OFFCURVE",
"174 54 CURVE SMOOTH",
"143 54 OFFCURVE",
"132 76 OFFCURVE",
"132 110 CURVE SMOOTH",
"132 195 OFFCURVE",
"210 341 OFFCURVE",
"294 379 CURVE"
);
},
{
closed = 1;
nodes = (
"387 342 OFFCURVE",
"387 194 CURVE SMOOTH",
"387 176 OFFCURVE",
"394 162 OFFCURVE",
"414 162 CURVE SMOOTH",
"451 162 OFFCURVE",
"502 198 OFFCURVE",
"535 240 CURVE",
"584 231 OFFCURVE",
"592 156 OFFCURVE",
"540 115 CURVE SMOOTH",
"516 97 OFFCURVE",
"485 83 OFFCURVE",
"451 83 CURVE SMOOTH",
"413 83 OFFCURVE",
"356 97 OFFCURVE",
"348 157 CURVE",
"329 168 LINE",
"278 73 LINE",
"302 -46 OFFCURVE",
"475 -32 OFFCURVE",
"571 53 CURVE SMOOTH",
"624 100 OFFCURVE",
"657 162 OFFCURVE",
"657 208 CURVE SMOOTH",
"657 359 OFFCURVE"
);
},
{
closed = 1;
nodes = (
"401 463 LINE",
"290 466 OFFCURVE",
"146 439 OFFCURVE",
"66 380 CURVE",
"55 345 OFFCURVE",
"68 310 OFFCURVE",
"83 310 CURVE SMOOTH",
"102 310 OFFCURVE",
"140 342 OFFCURVE",
"220 361 CURVE SMOOTH",
"260 371 OFFCURVE",
"314 376 OFFCURVE",
"364 375 CURVE"
);
}
);
};
components = (
{
name = tlTick;
transform = "{1, 0, 0, 1, 86, 0}";
}
);
layerId = "3C4CBB49-346E-405B-BEF8-DBD5C97E81D8";
name = "Regular Sep 20 15, 18:25";
paths = (
{
closed = 1;
nodes = (
"248 363 LINE",
"142 291 OFFCURVE",
"30 162 OFFCURVE",
"30 36 CURVE SMOOTH",
"30 -35 OFFCURVE",
"85 -73 OFFCURVE",
"156 -36 CURVE SMOOTH",
"192 -18 OFFCURVE",
"232 16 OFFCURVE",
"266 51 CURVE",
"289 11 OFFCURVE",
"335 -13 OFFCURVE",
"415 -13 CURVE SMOOTH",
"581 -13 OFFCURVE",
"669 105 OFFCURVE",
"669 180 CURVE SMOOTH",
"669 341 OFFCURVE",
"428 299 OFFCURVE",
"410 142 CURVE SMOOTH",
"405 101 OFFCURVE",
"484 106 OFFCURVE",
"512 155 CURVE SMOOTH",
"540 204 OFFCURVE",
"588 187 OFFCURVE",
"588 139 CURVE SMOOTH",
"588 110 OFFCURVE",
"556 62 OFFCURVE",
"459 62 CURVE SMOOTH",
"370 62 OFFCURVE",
"352 108 OFFCURVE",
"338 158 CURVE",
"334 176 OFFCURVE",
"311 176 OFFCURVE",
"292 152 CURVE SMOOTH",
"258 110 OFFCURVE",
"220 58 OFFCURVE",
"174 58 CURVE SMOOTH",
"46 58 OFFCURVE",
"162 254 OFFCURVE",
"319 370 CURVE"
);
},
{
closed = 1;
nodes = (
"432 492 OFFCURVE",
"250 445 CURVE SMOOTH",
"202 433 OFFCURVE",
"149 406 OFFCURVE",
"100 374 CURVE",
"91 362 OFFCURVE",
"88 351 OFFCURVE",
"88 336 CURVE SMOOTH",
"88 313 OFFCURVE",
"105 305 OFFCURVE",
"119 310 CURVE SMOOTH",
"173 330 OFFCURVE",
"224 346 OFFCURVE",
"284 353 CURVE SMOOTH",
"338 359 OFFCURVE"
);
}
);
width = 699;
},
{
associatedMasterId = "59118767-2CA9-48AA-9373-694D24C960D8";
background = {
paths = (
{
closed = 1;
nodes = (
"514 118 OFFCURVE",
"477 90 OFFCURVE",
"421 90 CURVE SMOOTH",
"359 90 OFFCURVE",
"261 126 OFFCURVE",
"261 239 CURVE SMOOTH",
"261 306 OFFCURVE",
"295 356 OFFCURVE",
"384 356 CURVE SMOOTH",
"444 356 OFFCURVE",
"491 310 OFFCURVE",
"514 310 CURVE SMOOTH",
"529 310 OFFCURVE",
"545 313 OFFCURVE",
"545 336 CURVE SMOOTH",
"545 351 OFFCURVE",
"542 362 OFFCURVE",
"533 374 CURVE",
"414 497 OFFCURVE",
"175 507 OFFCURVE",
"175 302 CURVE SMOOTH",
"175 172 OFFCURVE",
"289 -16 OFFCURVE",
"468 -16 CURVE SMOOTH",
"557 -16 OFFCURVE",
"611 32 OFFCURVE",
"608 134 CURVE",
"525 157 LINE"
);
}
);
};
components = (
{
name = tlTick;
transform = "{1, 0, 0, 1, 59, 0}";
}
);
layerId = "9C6E7E31-F04C-43D9-B471-80519ABA67AA";
name = "Regular Sep 20 15, 18:29";
paths = (
{
closed = 1;
nodes = (
"228 379 LINE",
"130 331 OFFCURVE",
"31 163 OFFCURVE",
"31 34 CURVE SMOOTH",
"31 -19 OFFCURVE",
"56 -50 OFFCURVE",
"109 -50 CURVE SMOOTH",
"170 -50 OFFCURVE",
"272 3 OFFCURVE",
"344 122 CURVE SMOOTH",
"348 129 OFFCURVE",
"348 152 OFFCURVE",
"348 157 CURVE SMOOTH",
"348 166 OFFCURVE",
"340 173 OFFCURVE",
"331 173 CURVE SMOOTH",
"320 173 OFFCURVE",
"309 165 OFFCURVE",
"300 152 CURVE SMOOTH",
"264 99 OFFCURVE",
"208 54 OFFCURVE",
"174 54 CURVE SMOOTH",
"143 54 OFFCURVE",
"132 76 OFFCURVE",
"132 110 CURVE SMOOTH",
"132 195 OFFCURVE",
"210 341 OFFCURVE",
"294 379 CURVE"
);
},
{
closed = 1;
nodes = (
"387 342 OFFCURVE",
"387 194 CURVE SMOOTH",
"387 176 OFFCURVE",
"394 162 OFFCURVE",
"414 162 CURVE SMOOTH",
"451 162 OFFCURVE",
"502 198 OFFCURVE",
"535 240 CURVE",
"584 231 OFFCURVE",
"592 156 OFFCURVE",
"540 115 CURVE SMOOTH",
"516 97 OFFCURVE",
"485 83 OFFCURVE",
"451 83 CURVE SMOOTH",
"413 83 OFFCURVE",
"356 97 OFFCURVE",
"348 157 CURVE",
"329 168 LINE",
"278 73 LINE",
"302 -46 OFFCURVE",
"475 -32 OFFCURVE",
"571 53 CURVE SMOOTH",
"624 100 OFFCURVE",
"657 162 OFFCURVE",
"657 208 CURVE SMOOTH",
"657 359 OFFCURVE"
);
},
{
closed = 1;
nodes = (
"401 463 LINE",
"290 466 OFFCURVE",
"146 439 OFFCURVE",
"66 380 CURVE",
"55 345 OFFCURVE",
"68 310 OFFCURVE",
"83 310 CURVE SMOOTH",
"102 310 OFFCURVE",
"140 342 OFFCURVE",
"220 361 CURVE SMOOTH",
"260 371 OFFCURVE",
"314 376 OFFCURVE",
"364 375 CURVE"
);
}
);
width = 699;
},
{
associatedMasterId = "59118767-2CA9-48AA-9373-694D24C960D8";
background = {
paths = (
{
closed = 1;
nodes = (
"504 118 OFFCURVE",
"467 90 OFFCURVE",
"411 90 CURVE SMOOTH",
"349 90 OFFCURVE",
"251 126 OFFCURVE",
"251 239 CURVE SMOOTH",
"251 306 OFFCURVE",
"285 356 OFFCURVE",
"374 356 CURVE SMOOTH",
"434 356 OFFCURVE",
"481 310 OFFCURVE",
"504 310 CURVE SMOOTH",
"519 310 OFFCURVE",
"535 313 OFFCURVE",
"535 336 CURVE SMOOTH",
"535 351 OFFCURVE",
"532 362 OFFCURVE",
"523 374 CURVE",
"404 497 OFFCURVE",
"165 507 OFFCURVE",
"165 302 CURVE SMOOTH",
"165 172 OFFCURVE",
"279 -16 OFFCURVE",
"458 -16 CURVE SMOOTH",
"547 -16 OFFCURVE",
"601 32 OFFCURVE",
"598 134 CURVE",
"515 157 LINE"
);
}
);
};
components = (
{
name = tlTick;
transform = "{1, 0, 0, 1, 50, 0}";
}
);
layerId = "D5D0FE60-F4D6-4760-A7FB-7F566835400B";
name = "Regular Sep 29 15, 12:50";
paths = (
{
closed = 1;
nodes = (
"378 362 OFFCURVE",
"378 194 CURVE SMOOTH",
"378 176 OFFCURVE",
"385 162 OFFCURVE",
"405 162 CURVE SMOOTH",
"442 162 OFFCURVE",
"493 198 OFFCURVE",
"526 240 CURVE",
"552 235 OFFCURVE",
"567 212 OFFCURVE",
"567 185 CURVE SMOOTH",
"567 126 OFFCURVE",
"511 83 OFFCURVE",
"442 83 CURVE SMOOTH",
"404 83 OFFCURVE",
"347 97 OFFCURVE",
"339 157 CURVE",
"320 168 LINE",
"269 73 LINE",
"281 13 OFFCURVE",
"332 -14 OFFCURVE",
"391 -14 CURVE SMOOTH",
"509 -14 OFFCURVE",
"648 97 OFFCURVE",
"648 208 CURVE SMOOTH",
"648 379 OFFCURVE"
);
},
{
closed = 1;
nodes = (
"40 345 OFFCURVE",
"59 310 OFFCURVE",
"74 310 CURVE SMOOTH",
"94 310 OFFCURVE",
"137 347 OFFCURVE",
"229 366 CURVE",
"217 370 LINE",
"104 306 OFFCURVE",
"22 154 OFFCURVE",
"22 34 CURVE SMOOTH",
"22 -19 OFFCURVE",
"47 -50 OFFCURVE",
"100 -50 CURVE SMOOTH",
"161 -50 OFFCURVE",
"263 3 OFFCURVE",
"335 122 CURVE SMOOTH",
"339 129 OFFCURVE",
"339 152 OFFCURVE",
"339 157 CURVE SMOOTH",
"339 166 OFFCURVE",
"331 173 OFFCURVE",
"322 173 CURVE SMOOTH",
"311 173 OFFCURVE",
"300 165 OFFCURVE",
"291 152 CURVE SMOOTH",
"255 99 OFFCURVE",
"199 54 OFFCURVE",
"165 54 CURVE SMOOTH",
"134 54 OFFCURVE",
"123 76 OFFCURVE",
"123 110 CURVE SMOOTH",
"123 235 OFFCURVE",
"231 339 OFFCURVE",
"372 387 CURVE SMOOTH",
"420 403 OFFCURVE",
"418 462 OFFCURVE",
"379 462 CURVE SMOOTH",
"279 462 OFFCURVE",
"116 420 OFFCURVE",
"58 380 CURVE"
);
}
);
width = 675;
}
);
leftKerningGroup = DAL;
leftMetricsKey = knDA;
unicode = 0C21;
},
{
color = 6;
glyphname = tlNNA;
lastChange = "2015-10-30 12:45:06 +0000";
layers = (
{
guideLines = (
{
angle = 90;
position = "{36, 161}";
}
);
layerId = "59118767-2CA9-48AA-9373-694D24C960D8";
name = Regular;
paths = (
{
closed = 1;
nodes = (
"386 487 OFFCURVE",
"311 523 OFFCURVE",
"246 523 CURVE SMOOTH",
"138 523 OFFCURVE",
"30 447 OFFCURVE",
"30 316 CURVE SMOOTH",
"30 242 OFFCURVE",
"74 176 OFFCURVE",
"176 176 CURVE SMOOTH",
"222 176 OFFCURVE",
"269 207 OFFCURVE",
"286 249 CURVE SMOOTH",
"293 266 OFFCURVE",
"292 281 OFFCURVE",
"273 289 CURVE SMOOTH",
"249 299 OFFCURVE",
"209 294 OFFCURVE",
"171 280 CURVE",
"136 298 OFFCURVE",
"118 333 OFFCURVE",
"118 367 CURVE SMOOTH",
"118 410 OFFCURVE",
"146 450 OFFCURVE",
"198 450 CURVE SMOOTH",
"249 450 OFFCURVE",
"277 417 OFFCURVE",
"328 353 CURVE SMOOTH",
"351 324 OFFCURVE",
"351 324 OFFCURVE",
"384 343 CURVE SMOOTH",
"414 361 OFFCURVE",
"446 373 OFFCURVE",
"476 373 CURVE SMOOTH",
"558 373 OFFCURVE",
"630 312 OFFCURVE",
"630 211 CURVE SMOOTH",
"630 176 OFFCURVE",
"620 140 OFFCURVE",
"599 108 CURVE",
"617 178 OFFCURVE",
"584 263 OFFCURVE",
"504 263 CURVE SMOOTH",
"411 263 OFFCURVE",
"346 167 OFFCURVE",
"346 87 CURVE SMOOTH",
"346 19 OFFCURVE",
"400 -14 OFFCURVE",
"464 -14 CURVE SMOOTH",
"610 -14 OFFCURVE",
"710 133 OFFCURVE",
"710 280 CURVE SMOOTH",
"710 400 OFFCURVE",
"641 463 OFFCURVE",
"551 463 CURVE SMOOTH",
"506 463 OFFCURVE",
"456 448 OFFCURVE",
"406 415 CURVE",
"430 393 LINE"
);
},
{
closed = 1;
nodes = (
"504 170 OFFCURVE",
"549 140 OFFCURVE",
"549 82 CURVE SMOOTH",
"549 78 LINE",
"536 74 OFFCURVE",
"520 72 OFFCURVE",
"503 72 CURVE SMOOTH",
"443 72 OFFCURVE",
"418 105 OFFCURVE",
"418 131 CURVE SMOOTH",
"418 152 OFFCURVE",
"434 170 OFFCURVE",
"465 170 CURVE SMOOTH"
);
},
{
closed = 1;
nodes = (
"95 225 LINE",
"53 193 OFFCURVE",
"31 147 OFFCURVE",
"31 104 CURVE SMOOTH",
"31 37 OFFCURVE",
"73 -12 OFFCURVE",
"142 -13 CURVE SMOOTH",
"167 -13 OFFCURVE",
"192 -3 OFFCURVE",
"214 19 CURVE SMOOTH",
"237 44 OFFCURVE",
"248 71 OFFCURVE",
"242 83 CURVE SMOOTH",
"238 90 OFFCURVE",
"230 88 OFFCURVE",
"215 88 CURVE SMOOTH",
"155 87 OFFCURVE",
"107 107 OFFCURVE",
"107 155 CURVE SMOOTH",
"107 170 OFFCURVE",
"112 179 OFFCURVE",
"121 186 CURVE"
);
}
);
width = 740;
},
{
associatedMasterId = "59118767-2CA9-48AA-9373-694D24C960D8";
background = {
paths = (
{
closed = 1;
nodes = (
"446 -13 LINE",
"591 -24 OFFCURVE",
"699 95 OFFCURVE",
"699 240 CURVE SMOOTH",
"699 351 OFFCURVE",
"622 456 OFFCURVE",
"516 462 CURVE SMOOTH",
"468 465 OFFCURVE",
"413 377 OFFCURVE",
"452 364 CURVE SMOOTH",
"550 334 OFFCURVE",
"620 292 OFFCURVE",
"620 184 CURVE SMOOTH",
"620 110 OFFCURVE",
"563 74 OFFCURVE",
"486 81 CURVE"
);
}
);
};
layerId = "FCC65260-0BBC-4448-A00B-E66B9062B2DC";
name = "Regular Aug 30 15, 15:02";
paths = (
{
closed = 1;
nodes = (
"596 464 OFFCURVE",
"518 464 CURVE SMOOTH",
"475 464 OFFCURVE",
"424 441 OFFCURVE",
"372 392 CURVE",
"334 438 OFFCURVE",
"265 463 OFFCURVE",
"225 463 CURVE SMOOTH",
"109 463 OFFCURVE",
"20 372 OFFCURVE",
"20 297 CURVE SMOOTH",
"20 258 OFFCURVE",
"53 214 OFFCURVE",
"87 195 CURVE",
"23 119 OFFCURVE",
"-9 -15 OFFCURVE",
"105 -15 CURVE SMOOTH",
"148 -15 OFFCURVE",
"213 18 OFFCURVE",
"249 69 CURVE SMOOTH",
"279 113 OFFCURVE",
"256 154 OFFCURVE",
"221 116 CURVE SMOOTH",
"158 49 OFFCURVE",
"102 121 OFFCURVE",
"151 171 CURVE SMOOTH",
"182 204 OFFCURVE",
"220 225 OFFCURVE",
"220 244 CURVE SMOOTH",
"220 291 OFFCURVE",
"100 254 OFFCURVE",
"100 321 CURVE SMOOTH",
"100 355 OFFCURVE",
"142 381 OFFCURVE",
"177 381 CURVE SMOOTH",
"222 381 OFFCURVE",
"269 337 OFFCURVE",
"291 300 CURVE SMOOTH",
"297 290 OFFCURVE",
"315 253 OFFCURVE",
"348 289 CURVE",
"381 329 OFFCURVE",
"422 354 OFFCURVE",
"460 354 CURVE SMOOTH",
"499 354 OFFCURVE",
"535 328 OFFCURVE",
"557 266 CURVE",
"462 224 OFFCURVE",
"389 132 OFFCURVE",
"389 66 CURVE SMOOTH",
"389 25 OFFCURVE",
"417 -15 OFFCURVE",
"462 -15 CURVE SMOOTH",
"577 -15 OFFCURVE",
"650 127 OFFCURVE",
"650 259 CURVE SMOOTH",
"650 390 OFFCURVE"
);
},
{
closed = 1;
nodes = (
"417 74 OFFCURVE",
"512 228 OFFCURVE",
"598 225 CURVE",
"569 235 LINE",
"592 161 OFFCURVE",
"578 74 OFFCURVE",
"507 74 CURVE SMOOTH"
);
}
);
width = 671;
},
{
associatedMasterId = "59118767-2CA9-48AA-9373-694D24C960D8";
background = {
paths = (
{
closed = 1;
nodes = (
"527 76 LINE",
"398 52 OFFCURVE",
"518 248 OFFCURVE",
"613 223 CURVE",
"572 272 LINE",
"470 234 OFFCURVE",
"389 136 OFFCURVE",
"389 66 CURVE SMOOTH",
"389 20 OFFCURVE",
"425 -26 OFFCURVE",
"481 -13 CURVE"
);
},
{
closed = 1;
nodes = (
"530 463 LINE",
"485 468 OFFCURVE",
"429 446 OFFCURVE",
"372 392 CURVE",
"334 438 OFFCURVE",
"265 463 OFFCURVE",
"225 463 CURVE SMOOTH",
"109 463 OFFCURVE",
"20 372 OFFCURVE",
"20 297 CURVE SMOOTH",
"20 258 OFFCURVE",
"53 214 OFFCURVE",
"87 195 CURVE",
"23 119 OFFCURVE",
"-9 -15 OFFCURVE",
"105 -15 CURVE SMOOTH",
"148 -15 OFFCURVE",
"213 18 OFFCURVE",
"249 69 CURVE SMOOTH",
"279 113 OFFCURVE",
"256 154 OFFCURVE",
"221 116 CURVE SMOOTH",
"158 49 OFFCURVE",
"102 121 OFFCURVE",
"151 171 CURVE SMOOTH",
"182 204 OFFCURVE",
"220 225 OFFCURVE",
"220 244 CURVE SMOOTH",
"220 291 OFFCURVE",
"100 254 OFFCURVE",
"100 321 CURVE SMOOTH",
"100 355 OFFCURVE",
"142 381 OFFCURVE",
"177 381 CURVE SMOOTH",
"222 381 OFFCURVE",
"269 337 OFFCURVE",
"291 300 CURVE SMOOTH",
"297 290 OFFCURVE",
"315 253 OFFCURVE",
"348 289 CURVE",
"385 334 OFFCURVE",
"432 360 OFFCURVE",
"474 353 CURVE"
);
},
{
closed = 1;
nodes = (
"446 -13 LINE",
"591 -24 OFFCURVE",
"699 95 OFFCURVE",
"699 240 CURVE SMOOTH",
"699 351 OFFCURVE",
"622 456 OFFCURVE",
"516 462 CURVE SMOOTH",
"468 465 OFFCURVE",
"413 377 OFFCURVE",
"452 364 CURVE SMOOTH",
"550 334 OFFCURVE",
"620 292 OFFCURVE",
"620 184 CURVE SMOOTH",
"620 110 OFFCURVE",
"563 74 OFFCURVE",
"486 81 CURVE"
);
}
);
};
layerId = "8ABCBC31-627D-41F1-860A-E3FD27ABEB4A";
name = "Regular Aug 31 15, 15:37";
paths = (
{
closed = 1;
nodes = (
"699 382 OFFCURVE",
"619 463 OFFCURVE",
"522 463 CURVE SMOOTH",
"474 463 OFFCURVE",
"421 441 OFFCURVE",
"372 392 CURVE",
"334 438 OFFCURVE",
"265 463 OFFCURVE",
"225 463 CURVE SMOOTH",
"109 463 OFFCURVE",
"20 372 OFFCURVE",
"20 297 CURVE SMOOTH",
"20 258 OFFCURVE",
"53 214 OFFCURVE",
"87 195 CURVE",
"23 119 OFFCURVE",
"-9 -15 OFFCURVE",
"105 -15 CURVE SMOOTH",
"148 -15 OFFCURVE",
"213 18 OFFCURVE",
"249 69 CURVE SMOOTH",
"279 113 OFFCURVE",
"256 154 OFFCURVE",
"221 116 CURVE SMOOTH",
"158 49 OFFCURVE",
"102 121 OFFCURVE",
"151 171 CURVE SMOOTH",
"182 204 OFFCURVE",
"220 225 OFFCURVE",
"220 244 CURVE SMOOTH",
"220 291 OFFCURVE",
"100 254 OFFCURVE",
"100 321 CURVE SMOOTH",
"100 355 OFFCURVE",
"142 381 OFFCURVE",
"177 381 CURVE SMOOTH",
"222 381 OFFCURVE",
"269 337 OFFCURVE",
"291 300 CURVE SMOOTH",
"297 290 OFFCURVE",
"315 253 OFFCURVE",
"348 289 CURVE",
"383 332 OFFCURVE",
"427 355 OFFCURVE",
"470 355 CURVE",
"571 355 OFFCURVE",
"615 281 OFFCURVE",
"615 209 CURVE SMOOTH",
"615 118 OFFCURVE",
"551 72 OFFCURVE",
"507 72 CURVE SMOOTH",
"470 72 OFFCURVE",
"447 104 OFFCURVE",
"496 166 CURVE SMOOTH",
"524 202 OFFCURVE",
"573 236 OFFCURVE",
"629 244 CURVE",
"609 283 LINE",
"478 258 OFFCURVE",
"389 136 OFFCURVE",
"389 66 CURVE SMOOTH",
"389 10 OFFCURVE",
"422 -14 OFFCURVE",
"466 -14 CURVE SMOOTH",
"558 -14 OFFCURVE",
"699 89 OFFCURVE",
"699 248 CURVE SMOOTH"
);
}
);
width = 671;
},
{
associatedMasterId = "59118767-2CA9-48AA-9373-694D24C960D8";
background = {
paths = (
{
closed = 1;
nodes = (
"527 76 LINE",
"398 52 OFFCURVE",
"518 248 OFFCURVE",
"613 223 CURVE",
"572 272 LINE",
"470 234 OFFCURVE",
"389 136 OFFCURVE",
"389 66 CURVE SMOOTH",
"389 20 OFFCURVE",
"425 -26 OFFCURVE",
"481 -13 CURVE"
);
},
{
closed = 1;
nodes = (
"530 463 LINE",
"485 468 OFFCURVE",
"429 446 OFFCURVE",
"372 392 CURVE",
"334 438 OFFCURVE",
"265 463 OFFCURVE",
"225 463 CURVE SMOOTH",
"109 463 OFFCURVE",
"20 372 OFFCURVE",
"20 297 CURVE SMOOTH",
"20 258 OFFCURVE",
"53 214 OFFCURVE",
"87 195 CURVE",
"23 119 OFFCURVE",
"-9 -15 OFFCURVE",
"105 -15 CURVE SMOOTH",
"148 -15 OFFCURVE",
"213 18 OFFCURVE",
"249 69 CURVE SMOOTH",
"279 113 OFFCURVE",
"256 154 OFFCURVE",
"221 116 CURVE SMOOTH",
"158 49 OFFCURVE",
"102 121 OFFCURVE",
"151 171 CURVE SMOOTH",
"182 204 OFFCURVE",
"220 225 OFFCURVE",
"220 244 CURVE SMOOTH",
"220 291 OFFCURVE",
"100 254 OFFCURVE",
"100 321 CURVE SMOOTH",
"100 355 OFFCURVE",
"142 381 OFFCURVE",
"177 381 CURVE SMOOTH",
"222 381 OFFCURVE",
"269 337 OFFCURVE",
"291 300 CURVE SMOOTH",
"297 290 OFFCURVE",
"315 253 OFFCURVE",
"348 289 CURVE",
"385 334 OFFCURVE",
"432 360 OFFCURVE",
"474 353 CURVE"
);
},
{
closed = 1;
nodes = (
"446 -13 LINE",
"591 -24 OFFCURVE",
"699 95 OFFCURVE",
"699 240 CURVE SMOOTH",
"699 351 OFFCURVE",
"622 456 OFFCURVE",
"516 462 CURVE SMOOTH",
"468 465 OFFCURVE",
"413 377 OFFCURVE",
"452 364 CURVE SMOOTH",
"550 334 OFFCURVE",
"620 292 OFFCURVE",
"620 184 CURVE SMOOTH",
"620 110 OFFCURVE",
"563 74 OFFCURVE",
"486 81 CURVE"
);
}
);
};
layerId = "D9BCBBA4-F23E-4A61-AEF9-1C4852B19C50";
name = "Regular Sep 7 15, 14:34";
paths = (
{
closed = 1;
nodes = (
"433 -12 OFFCURVE",
"504 -12 CURVE SMOOTH",
"599 -12 OFFCURVE",
"720 85 OFFCURVE",
"720 261 CURVE SMOOTH",
"720 367 OFFCURVE",
"667 463 OFFCURVE",
"552 463 CURVE SMOOTH",
"504 463 OFFCURVE",
"431 441 OFFCURVE",
"382 392 CURVE",
"344 438 OFFCURVE",
"275 463 OFFCURVE",
"235 463 CURVE SMOOTH",
"119 463 OFFCURVE",
"30 372 OFFCURVE",
"30 297 CURVE SMOOTH",
"30 258 OFFCURVE",
"63 214 OFFCURVE",
"97 195 CURVE",
"33 119 OFFCURVE",
"1 -15 OFFCURVE",
"115 -15 CURVE SMOOTH",
"158 -15 OFFCURVE",
"223 18 OFFCURVE",
"259 69 CURVE SMOOTH",
"289 113 OFFCURVE",
"266 154 OFFCURVE",
"231 116 CURVE SMOOTH",
"168 49 OFFCURVE",
"112 121 OFFCURVE",
"161 171 CURVE SMOOTH",
"192 204 OFFCURVE",
"230 225 OFFCURVE",
"230 244 CURVE SMOOTH",
"230 291 OFFCURVE",
"110 254 OFFCURVE",
"110 321 CURVE SMOOTH",
"110 355 OFFCURVE",
"152 381 OFFCURVE",
"187 381 CURVE SMOOTH",
"232 381 OFFCURVE",
"279 337 OFFCURVE",
"301 300 CURVE SMOOTH",
"307 290 OFFCURVE",
"325 253 OFFCURVE",
"358 289 CURVE",
"479 438 OFFCURVE",
"709 351 OFFCURVE",
"637 123 CURVE",
"607 52 OFFCURVE",
"461 49 OFFCURVE",
"461 120 CURVE SMOOTH",
"461 149 OFFCURVE",
"486 181 OFFCURVE",
"531 181 CURVE SMOOTH",
"567 181 OFFCURVE",
"620 117 OFFCURVE",
"583 74 CURVE",
"621 74 OFFCURVE",
"661 118 OFFCURVE",
"653 171 CURVE",
"615 292 OFFCURVE",
"472 263 OFFCURVE",
"423 159 CURVE SMOOTH",
"370 42 OFFCURVE"
);
}
);
width = 750;
},
{
associatedMasterId = "59118767-2CA9-48AA-9373-694D24C960D8";
background = {
paths = (
{
closed = 1;
nodes = (
"527 76 LINE",
"398 52 OFFCURVE",
"518 248 OFFCURVE",
"613 223 CURVE",
"572 272 LINE",
"470 234 OFFCURVE",
"389 136 OFFCURVE",
"389 66 CURVE SMOOTH",
"389 20 OFFCURVE",
"425 -26 OFFCURVE",
"481 -13 CURVE"
);
},
{
closed = 1;
nodes = (
"530 463 LINE",
"485 468 OFFCURVE",
"429 446 OFFCURVE",
"372 392 CURVE",
"334 438 OFFCURVE",
"265 463 OFFCURVE",
"225 463 CURVE SMOOTH",
"109 463 OFFCURVE",
"20 372 OFFCURVE",
"20 297 CURVE SMOOTH",
"20 258 OFFCURVE",
"53 214 OFFCURVE",
"87 195 CURVE",
"23 119 OFFCURVE",
"-9 -15 OFFCURVE",
"105 -15 CURVE SMOOTH",
"148 -15 OFFCURVE",
"213 18 OFFCURVE",
"249 69 CURVE SMOOTH",
"279 113 OFFCURVE",
"256 154 OFFCURVE",
"221 116 CURVE SMOOTH",
"158 49 OFFCURVE",
"102 121 OFFCURVE",
"151 171 CURVE SMOOTH",
"182 204 OFFCURVE",
"220 225 OFFCURVE",
"220 244 CURVE SMOOTH",
"220 291 OFFCURVE",
"100 254 OFFCURVE",
"100 321 CURVE SMOOTH",
"100 355 OFFCURVE",
"142 381 OFFCURVE",
"177 381 CURVE SMOOTH",
"222 381 OFFCURVE",
"269 337 OFFCURVE",
"291 300 CURVE SMOOTH",
"297 290 OFFCURVE",
"315 253 OFFCURVE",
"348 289 CURVE",
"385 334 OFFCURVE",
"432 360 OFFCURVE",
"474 353 CURVE"
);
},
{
closed = 1;
nodes = (
"446 -13 LINE",
"591 -24 OFFCURVE",
"699 95 OFFCURVE",
"699 240 CURVE SMOOTH",
"699 351 OFFCURVE",
"622 456 OFFCURVE",
"516 462 CURVE SMOOTH",
"468 465 OFFCURVE",
"413 377 OFFCURVE",
"452 364 CURVE SMOOTH",
"550 334 OFFCURVE",
"620 292 OFFCURVE",
"620 184 CURVE SMOOTH",
"620 110 OFFCURVE",
"563 74 OFFCURVE",
"486 81 CURVE"
);
}
);
};
layerId = "BA3D7D6F-F3EB-4139-AC87-6E1EAA3FCFAA";
name = "Regular Sep 15 15, 15:24";
paths = (
{
closed = 1;
nodes = (
"433 -12 OFFCURVE",
"504 -12 CURVE SMOOTH",
"599 -12 OFFCURVE",
"720 85 OFFCURVE",
"720 261 CURVE SMOOTH",
"720 361 OFFCURVE",
"667 463 OFFCURVE",
"552 463 CURVE SMOOTH",
"496 463 OFFCURVE",
"397 413 OFFCURVE",
"361 347 CURVE",
"399 365 LINE",
"370 428 OFFCURVE",
"282 463 OFFCURVE",
"235 463 CURVE SMOOTH",
"50 463 OFFCURVE",
"-57 232 OFFCURVE",
"119 177 CURVE",
"153 226 LINE",
"8 137 OFFCURVE",
"-12 -50 OFFCURVE",
"115 -50 CURVE SMOOTH",
"158 -50 OFFCURVE",
"210 -35 OFFCURVE",
"258 34 CURVE SMOOTH",
"280 66 OFFCURVE",
"273 96 OFFCURVE",
"256 96 CURVE SMOOTH",
"237 96 OFFCURVE",
"219 48 OFFCURVE",
"161 48 CURVE SMOOTH",
"116 48 OFFCURVE",
"94 100 OFFCURVE",
"161 171 CURVE SMOOTH",
"192 204 OFFCURVE",
"230 219 OFFCURVE",
"230 234 CURVE SMOOTH",
"230 268 OFFCURVE",
"103 244 OFFCURVE",
"103 322 CURVE SMOOTH",
"103 359 OFFCURVE",
"149 387 OFFCURVE",
"187 387 CURVE SMOOTH",
"237 387 OFFCURVE",
"279 337 OFFCURVE",
"301 300 CURVE SMOOTH",
"307 290 OFFCURVE",
"325 253 OFFCURVE",
"358 289 CURVE",
"479 438 OFFCURVE",
"717 351 OFFCURVE",
"645 123 CURVE",
"615 52 OFFCURVE",
"461 49 OFFCURVE",
"461 120 CURVE SMOOTH",
"461 149 OFFCURVE",
"486 181 OFFCURVE",
"531 181 CURVE SMOOTH",
"567 181 OFFCURVE",
"620 117 OFFCURVE",
"583 74 CURVE",
"621 74 OFFCURVE",
"661 118 OFFCURVE",
"653 171 CURVE",
"615 292 OFFCURVE",
"472 263 OFFCURVE",
"423 159 CURVE SMOOTH",
"370 42 OFFCURVE"
);
},
{
closed = 1;
nodes = (
"136 164 OFFCURVE",
"173 148 OFFCURVE",
"205 144 CURVE SMOOTH",
"248 139 OFFCURVE",
"345 198 OFFCURVE",
"245 239 CURVE SMOOTH",
"201 257 OFFCURVE",
"135 265 OFFCURVE",
"89 230 CURVE",
"100 206 LINE"
);
}
);
width = 750;
},
{
associatedMasterId = "59118767-2CA9-48AA-9373-694D24C960D8";
background = {
paths = (
{
closed = 1;
nodes = (
"433 -12 OFFCURVE",
"504 -12 CURVE SMOOTH",
"599 -12 OFFCURVE",
"720 85 OFFCURVE",
"720 261 CURVE SMOOTH",
"720 361 OFFCURVE",
"667 463 OFFCURVE",
"552 463 CURVE SMOOTH",
"496 463 OFFCURVE",
"397 413 OFFCURVE",
"361 347 CURVE",
"399 365 LINE",
"370 428 OFFCURVE",
"282 463 OFFCURVE",
"235 463 CURVE SMOOTH",
"50 463 OFFCURVE",
"-57 232 OFFCURVE",
"119 177 CURVE",
"153 226 LINE",
"73 177 OFFCURVE",
"41 98 OFFCURVE",
"41 37 CURVE SMOOTH",
"41 -19 OFFCURVE",
"86 -49 OFFCURVE",
"133 -49 CURVE SMOOTH",
"160 -49 OFFCURVE",
"188 -39 OFFCURVE",
"208 -19 CURVE SMOOTH",
"223 -4 OFFCURVE",
"235 13 OFFCURVE",
"235 26 CURVE SMOOTH",
"235 49 OFFCURVE",
"129 13 OFFCURVE",
"129 89 CURVE SMOOTH",
"129 111 OFFCURVE",
"131 139 OFFCURVE",
"161 171 CURVE SMOOTH",
"192 204 OFFCURVE",
"220 169 OFFCURVE",
"220 184 CURVE SMOOTH",
"220 218 OFFCURVE",
"103 244 OFFCURVE",
"103 322 CURVE SMOOTH",
"103 359 OFFCURVE",
"149 387 OFFCURVE",
"187 387 CURVE SMOOTH",
"237 387 OFFCURVE",
"279 337 OFFCURVE",
"301 300 CURVE SMOOTH",
"307 290 OFFCURVE",
"325 253 OFFCURVE",
"358 289 CURVE",
"479 438 OFFCURVE",
"717 351 OFFCURVE",
"645 123 CURVE",
"615 52 OFFCURVE",
"461 49 OFFCURVE",
"461 120 CURVE SMOOTH",
"461 149 OFFCURVE",
"486 181 OFFCURVE",
"531 181 CURVE SMOOTH",
"567 181 OFFCURVE",
"620 117 OFFCURVE",
"583 74 CURVE",
"621 74 OFFCURVE",
"661 118 OFFCURVE",
"653 171 CURVE",
"615 292 OFFCURVE",
"472 263 OFFCURVE",
"423 159 CURVE SMOOTH",
"370 42 OFFCURVE"
);
},
{
closed = 1;
nodes = (
"151 144 OFFCURVE",
"190 135 OFFCURVE",
"222 137 CURVE SMOOTH",
"265 141 OFFCURVE",
"349 218 OFFCURVE",
"243 238 CURVE SMOOTH",
"196 248 OFFCURVE",
"130 243 OFFCURVE",
"92 199 CURVE",
"107 178 LINE"
);
}
);
};
layerId = "5B4AE882-F75D-4F80-ADAC-EF87C1EA2C97";
name = "Regular Sep 17 15, 20:45";
paths = (
{
closed = 1;
nodes = (
"358 289 LINE",
"405 333 OFFCURVE",
"448 363 OFFCURVE",
"503 363 CURVE SMOOTH",
"570 363 OFFCURVE",
"650 317 OFFCURVE",
"650 201 CURVE SMOOTH",
"650 80 OFFCURVE",
"563 74 OFFCURVE",
"524 72 CURVE SMOOTH",
"478 70 OFFCURVE",
"440 31 OFFCURVE",
"440 4 CURVE SMOOTH",
"440 -10 OFFCURVE",
"449 -18 OFFCURVE",
"474 -18 CURVE SMOOTH",
"578 -18 OFFCURVE",
"719 83 OFFCURVE",
"719 259 CURVE SMOOTH",
"719 369 OFFCURVE",
"665 463 OFFCURVE",
"552 463 CURVE SMOOTH",
"458 463 OFFCURVE",
"384 399 OFFCURVE",
"315 308 CURVE"
);
},
{
closed = 1;
nodes = (
"355 431 OFFCURVE",
"288 461 OFFCURVE",
"224 461 CURVE SMOOTH",
"119 461 OFFCURVE",
"51 382 OFFCURVE",
"51 299 CURVE SMOOTH",
"51 248 OFFCURVE",
"77 195 OFFCURVE",
"137 159 CURVE",
"137 208 LINE",
"45 159 OFFCURVE",
"-39 -49 OFFCURVE",
"153 -49 CURVE SMOOTH",
"199 -49 OFFCURVE",
"252 31 OFFCURVE",
"220 35 CURVE SMOOTH",
"191 39 OFFCURVE",
"129 30 OFFCURVE",
"129 90 CURVE SMOOTH",
"129 110 OFFCURVE",
"136 135 OFFCURVE",
"147 154 CURVE",
"169 140 OFFCURVE",
"205 134 OFFCURVE",
"222 137 CURVE SMOOTH",
"253 143 OFFCURVE",
"294 198 OFFCURVE",
"294 212 CURVE SMOOTH",
"294 228 OFFCURVE",
"243 242 OFFCURVE",
"199 242 CURVE SMOOTH",
"178 242 OFFCURVE",
"156 239 OFFCURVE",
"127 228 CURVE",
"244 217 LINE",
"163 226 OFFCURVE",
"117 280 OFFCURVE",
"117 325 CURVE SMOOTH",
"117 365 OFFCURVE",
"155 387 OFFCURVE",
"194 387 CURVE SMOOTH",
"251 387 OFFCURVE",
"280 339 OFFCURVE",
"301 300 CURVE SMOOTH",
"305 293 OFFCURVE",
"315 274 OFFCURVE",
"331 274 CURVE SMOOTH",
"339 274 OFFCURVE",
"348 278 OFFCURVE",
"358 289 CURVE",
"361 347 LINE",
"389 365 LINE"
);
},
{
closed = 1;
nodes = (
"593 -18 OFFCURVE",
"610 72 OFFCURVE",
"524 72 CURVE SMOOTH",
"464 72 OFFCURVE",
"439 105 OFFCURVE",
"439 131 CURVE SMOOTH",
"439 152 OFFCURVE",
"455 170 OFFCURVE",
"486 170 CURVE SMOOTH",
"525 170 OFFCURVE",
"570 140 OFFCURVE",
"570 82 CURVE SMOOTH",
"570 67 OFFCURVE",
"567 52 OFFCURVE",
"560 35 CURVE",
"607 75 LINE",
"616 106 OFFCURVE",
"620 132 OFFCURVE",
"620 155 CURVE SMOOTH",
"620 229 OFFCURVE",
"581 263 OFFCURVE",
"525 263 CURVE SMOOTH",
"432 263 OFFCURVE",
"367 167 OFFCURVE",
"367 87 CURVE SMOOTH",
"367 31 OFFCURVE",
"399 -18 OFFCURVE",
"474 -18 CURVE SMOOTH"
);
}
);
width = 750;
},
{
associatedMasterId = "59118767-2CA9-48AA-9373-694D24C960D8";
background = {
paths = (
{
closed = 1;
nodes = (
"358 289 LINE",
"405 333 OFFCURVE",
"448 363 OFFCURVE",
"503 363 CURVE SMOOTH",
"570 363 OFFCURVE",
"650 317 OFFCURVE",
"650 201 CURVE SMOOTH",
"650 80 OFFCURVE",
"563 74 OFFCURVE",
"524 72 CURVE SMOOTH",
"478 70 OFFCURVE",
"440 31 OFFCURVE",
"440 4 CURVE SMOOTH",
"440 -10 OFFCURVE",
"449 -18 OFFCURVE",
"474 -18 CURVE SMOOTH",
"578 -18 OFFCURVE",
"719 83 OFFCURVE",
"719 259 CURVE SMOOTH",
"719 369 OFFCURVE",
"665 463 OFFCURVE",
"552 463 CURVE SMOOTH",
"458 463 OFFCURVE",
"384 399 OFFCURVE",
"315 308 CURVE"
);
},
{
closed = 1;
nodes = (
"355 431 OFFCURVE",
"288 461 OFFCURVE",
"224 461 CURVE SMOOTH",
"119 461 OFFCURVE",
"51 382 OFFCURVE",
"51 299 CURVE SMOOTH",
"51 248 OFFCURVE",
"77 195 OFFCURVE",
"137 159 CURVE",
"137 208 LINE",
"45 159 OFFCURVE",
"-39 -49 OFFCURVE",
"153 -49 CURVE SMOOTH",
"199 -49 OFFCURVE",
"252 31 OFFCURVE",
"220 35 CURVE SMOOTH",
"191 39 OFFCURVE",
"129 30 OFFCURVE",
"129 90 CURVE SMOOTH",
"129 110 OFFCURVE",
"136 135 OFFCURVE",
"147 154 CURVE",
"169 140 OFFCURVE",
"205 134 OFFCURVE",
"222 137 CURVE SMOOTH",
"253 143 OFFCURVE",
"294 198 OFFCURVE",
"294 212 CURVE SMOOTH",
"294 228 OFFCURVE",
"243 242 OFFCURVE",
"199 242 CURVE SMOOTH",
"178 242 OFFCURVE",
"156 239 OFFCURVE",
"127 228 CURVE",
"244 217 LINE",
"163 226 OFFCURVE",
"117 280 OFFCURVE",
"117 325 CURVE SMOOTH",
"117 365 OFFCURVE",
"155 387 OFFCURVE",
"194 387 CURVE SMOOTH",
"251 387 OFFCURVE",
"280 339 OFFCURVE",
"301 300 CURVE SMOOTH",
"305 293 OFFCURVE",
"315 274 OFFCURVE",
"331 274 CURVE SMOOTH",
"339 274 OFFCURVE",
"348 278 OFFCURVE",
"358 289 CURVE",
"361 347 LINE",
"389 365 LINE"
);
},
{
closed = 1;
nodes = (
"593 -18 OFFCURVE",
"610 72 OFFCURVE",
"524 72 CURVE SMOOTH",
"464 72 OFFCURVE",
"439 105 OFFCURVE",
"439 131 CURVE SMOOTH",
"439 152 OFFCURVE",
"455 170 OFFCURVE",
"486 170 CURVE SMOOTH",
"525 170 OFFCURVE",
"570 140 OFFCURVE",
"570 82 CURVE SMOOTH",
"570 67 OFFCURVE",
"567 52 OFFCURVE",
"560 35 CURVE",
"607 75 LINE",
"616 106 OFFCURVE",
"620 132 OFFCURVE",
"620 155 CURVE SMOOTH",
"620 229 OFFCURVE",
"581 263 OFFCURVE",
"525 263 CURVE SMOOTH",
"432 263 OFFCURVE",
"367 167 OFFCURVE",
"367 87 CURVE SMOOTH",
"367 31 OFFCURVE",
"399 -18 OFFCURVE",
"474 -18 CURVE SMOOTH"
);
}
);
};
layerId = "2E6F9996-FBE7-40CE-BB9B-F6D492E2AAD6";
name = "Regular Sep 20 15, 11:06";
paths = (
{
closed = 1;
nodes = (
"719 369 OFFCURVE",
"665 463 OFFCURVE",
"552 463 CURVE SMOOTH",
"458 463 OFFCURVE",
"384 399 OFFCURVE",
"315 308 CURVE",
"358 289 LINE",
"405 333 OFFCURVE",
"448 363 OFFCURVE",
"503 363 CURVE SMOOTH",
"570 363 OFFCURVE",
"650 317 OFFCURVE",
"650 201 CURVE SMOOTH",
"650 150 OFFCURVE",
"634 119 OFFCURVE",
"614 101 CURVE",
"618 121 OFFCURVE",
"620 139 OFFCURVE",
"620 155 CURVE SMOOTH",
"620 229 OFFCURVE",
"581 263 OFFCURVE",
"525 263 CURVE SMOOTH",
"432 263 OFFCURVE",
"367 167 OFFCURVE",
"367 87 CURVE SMOOTH",
"367 31 OFFCURVE",
"399 -18 OFFCURVE",
"473 -18 CURVE SMOOTH",
"474 -18 LINE SMOOTH",
"577 -18 OFFCURVE",
"719 80 OFFCURVE",
"719 259 CURVE SMOOTH"
);
},
{
closed = 1;
nodes = (
"526 170 OFFCURVE",
"570 141 OFFCURVE",
"570 78 CURVE",
"553 74 OFFCURVE",
"536 72 OFFCURVE",
"524 72 CURVE SMOOTH",
"464 72 OFFCURVE",
"439 105 OFFCURVE",
"439 131 CURVE SMOOTH",
"439 152 OFFCURVE",
"455 170 OFFCURVE",
"486 170 CURVE SMOOTH"
);
},
{
closed = 1;
nodes = (
"119 461 OFFCURVE",
"51 382 OFFCURVE",
"51 299 CURVE SMOOTH",
"51 258 OFFCURVE",
"68 220 OFFCURVE",
"96 190 CURVE",
"62 155 OFFCURVE",
"46 110 OFFCURVE",
"46 69 CURVE SMOOTH",
"46 4 OFFCURVE",
"88 -52 OFFCURVE",
"167 -52 CURVE SMOOTH",
"209 -52 OFFCURVE",
"238 -5 OFFCURVE",
"238 24 CURVE SMOOTH",
"238 35 OFFCURVE",
"234 44 OFFCURVE",
"224 45 CURVE SMOOTH",
"177 50 OFFCURVE",
"122 57 OFFCURVE",
"122 105 CURVE SMOOTH",
"122 126 OFFCURVE",
"132 142 OFFCURVE",
"150 153 CURVE",
"171 143 OFFCURVE",
"196 137 OFFCURVE",
"222 137 CURVE SMOOTH",
"251 137 OFFCURVE",
"294 198 OFFCURVE",
"294 212 CURVE SMOOTH",
"294 228 OFFCURVE",
"243 242 OFFCURVE",
"199 242 CURVE SMOOTH",
"190 242 OFFCURVE",
"182 241 OFFCURVE",
"172 240 CURVE",
"137 261 OFFCURVE",
"118 292 OFFCURVE",
"118 320 CURVE SMOOTH",
"118 365 OFFCURVE",
"156 387 OFFCURVE",
"194 387 CURVE SMOOTH",
"251 387 OFFCURVE",
"280 339 OFFCURVE",
"301 300 CURVE SMOOTH",
"305 293 OFFCURVE",
"315 274 OFFCURVE",
"331 274 CURVE SMOOTH",
"339 274 OFFCURVE",
"348 278 OFFCURVE",
"358 289 CURVE",
"361 347 LINE",
"389 365 LINE",
"355 431 OFFCURVE",
"288 461 OFFCURVE",
"224 461 CURVE SMOOTH"
);
}
);
width = 750;
},
{
associatedMasterId = "59118767-2CA9-48AA-9373-694D24C960D8";
background = {
paths = (
{
closed = 1;
nodes = (
"358 289 LINE",
"405 333 OFFCURVE",
"448 363 OFFCURVE",
"503 363 CURVE SMOOTH",
"570 363 OFFCURVE",
"650 317 OFFCURVE",
"650 201 CURVE SMOOTH",
"650 80 OFFCURVE",
"563 74 OFFCURVE",
"524 72 CURVE SMOOTH",
"478 70 OFFCURVE",
"440 31 OFFCURVE",
"440 4 CURVE SMOOTH",
"440 -10 OFFCURVE",
"449 -18 OFFCURVE",
"474 -18 CURVE SMOOTH",
"578 -18 OFFCURVE",
"719 83 OFFCURVE",
"719 259 CURVE SMOOTH",
"719 369 OFFCURVE",
"665 463 OFFCURVE",
"552 463 CURVE SMOOTH",
"458 463 OFFCURVE",
"384 399 OFFCURVE",
"315 308 CURVE"
);
},
{
closed = 1;
nodes = (
"355 431 OFFCURVE",
"288 461 OFFCURVE",
"224 461 CURVE SMOOTH",
"119 461 OFFCURVE",
"51 382 OFFCURVE",
"51 299 CURVE SMOOTH",
"51 248 OFFCURVE",
"77 195 OFFCURVE",
"137 159 CURVE",
"137 208 LINE",
"45 159 OFFCURVE",
"-39 -49 OFFCURVE",
"153 -49 CURVE SMOOTH",
"199 -49 OFFCURVE",
"252 31 OFFCURVE",
"220 35 CURVE SMOOTH",
"191 39 OFFCURVE",
"129 30 OFFCURVE",
"129 90 CURVE SMOOTH",
"129 110 OFFCURVE",
"136 135 OFFCURVE",
"147 154 CURVE",
"169 140 OFFCURVE",
"205 134 OFFCURVE",
"222 137 CURVE SMOOTH",
"253 143 OFFCURVE",
"294 198 OFFCURVE",
"294 212 CURVE SMOOTH",
"294 228 OFFCURVE",
"243 242 OFFCURVE",
"199 242 CURVE SMOOTH",
"178 242 OFFCURVE",
"156 239 OFFCURVE",
"127 228 CURVE",
"244 217 LINE",
"163 226 OFFCURVE",
"117 280 OFFCURVE",
"117 325 CURVE SMOOTH",
"117 365 OFFCURVE",
"155 387 OFFCURVE",
"194 387 CURVE SMOOTH",
"251 387 OFFCURVE",
"280 339 OFFCURVE",
"301 300 CURVE SMOOTH",
"305 293 OFFCURVE",
"315 274 OFFCURVE",
"331 274 CURVE SMOOTH",
"339 274 OFFCURVE",
"348 278 OFFCURVE",
"358 289 CURVE",
"361 347 LINE",
"389 365 LINE"
);
},
{
closed = 1;
nodes = (
"593 -18 OFFCURVE",
"610 72 OFFCURVE",
"524 72 CURVE SMOOTH",
"464 72 OFFCURVE",
"439 105 OFFCURVE",
"439 131 CURVE SMOOTH",
"439 152 OFFCURVE",
"455 170 OFFCURVE",
"486 170 CURVE SMOOTH",
"525 170 OFFCURVE",
"570 140 OFFCURVE",
"570 82 CURVE SMOOTH",
"570 67 OFFCURVE",
"567 52 OFFCURVE",
"560 35 CURVE",
"607 75 LINE",
"616 106 OFFCURVE",
"620 132 OFFCURVE",
"620 155 CURVE SMOOTH",
"620 229 OFFCURVE",
"581 263 OFFCURVE",
"525 263 CURVE SMOOTH",
"432 263 OFFCURVE",
"367 167 OFFCURVE",
"367 87 CURVE SMOOTH",
"367 31 OFFCURVE",
"399 -18 OFFCURVE",
"474 -18 CURVE SMOOTH"
);
}
);
};
layerId = "F715B68F-ED55-4818-8959-623DE4DA2D79";
name = "Regular Sep 20 15, 11:08";
paths = (
{
closed = 1;
nodes = (
"719 369 OFFCURVE",
"665 463 OFFCURVE",
"552 463 CURVE SMOOTH",
"458 463 OFFCURVE",
"384 399 OFFCURVE",
"315 308 CURVE",
"358 289 LINE",
"405 333 OFFCURVE",
"448 363 OFFCURVE",
"503 363 CURVE SMOOTH",
"570 363 OFFCURVE",
"650 317 OFFCURVE",
"650 201 CURVE SMOOTH",
"650 150 OFFCURVE",
"634 119 OFFCURVE",
"614 101 CURVE",
"618 121 OFFCURVE",
"620 139 OFFCURVE",
"620 155 CURVE SMOOTH",
"620 229 OFFCURVE",
"581 263 OFFCURVE",
"525 263 CURVE SMOOTH",
"432 263 OFFCURVE",
"367 167 OFFCURVE",
"367 87 CURVE SMOOTH",
"367 31 OFFCURVE",
"399 -18 OFFCURVE",
"473 -18 CURVE SMOOTH",
"474 -18 LINE SMOOTH",
"577 -18 OFFCURVE",
"719 80 OFFCURVE",
"719 259 CURVE SMOOTH"
);
},
{
closed = 1;
nodes = (
"526 170 OFFCURVE",
"570 141 OFFCURVE",
"570 78 CURVE",
"553 74 OFFCURVE",
"536 72 OFFCURVE",
"524 72 CURVE SMOOTH",
"464 72 OFFCURVE",
"439 105 OFFCURVE",
"439 131 CURVE SMOOTH",
"439 152 OFFCURVE",
"455 170 OFFCURVE",
"486 170 CURVE SMOOTH"
);
},
{
closed = 1;
nodes = (
"190 231 LINE",
"144 251 OFFCURVE",
"118 288 OFFCURVE",
"118 320 CURVE SMOOTH",
"118 365 OFFCURVE",
"156 387 OFFCURVE",
"194 387 CURVE SMOOTH",
"251 387 OFFCURVE",
"280 339 OFFCURVE",
"301 300 CURVE SMOOTH",
"305 293 OFFCURVE",
"315 274 OFFCURVE",
"331 274 CURVE SMOOTH",
"339 274 OFFCURVE",
"348 278 OFFCURVE",
"358 289 CURVE",
"361 347 LINE",
"389 365 LINE",
"355 431 OFFCURVE",
"288 461 OFFCURVE",
"224 461 CURVE SMOOTH",
"119 461 OFFCURVE",
"51 382 OFFCURVE",
"51 299 CURVE SMOOTH",
"51 258 OFFCURVE",
"68 220 OFFCURVE",
"96 190 CURVE",
"62 155 OFFCURVE",
"46 110 OFFCURVE",
"46 69 CURVE SMOOTH",
"46 4 OFFCURVE",
"88 -52 OFFCURVE",
"167 -52 CURVE SMOOTH",
"209 -52 OFFCURVE",
"238 -5 OFFCURVE",
"238 24 CURVE SMOOTH",
"238 35 OFFCURVE",
"234 44 OFFCURVE",
"224 45 CURVE SMOOTH",
"177 50 OFFCURVE",
"122 57 OFFCURVE",
"122 105 CURVE SMOOTH",
"122 132 OFFCURVE",
"138 150 OFFCURVE",
"167 161 CURVE"
);
},
{
closed = 1;
nodes = (
"93 187 LINE",
"140 127 OFFCURVE",
"269 132 OFFCURVE",
"300 209 CURVE SMOOTH",
"307 226 OFFCURVE",
"306 241 OFFCURVE",
"287 249 CURVE SMOOTH",
"243 267 OFFCURVE",
"153 236 OFFCURVE",
"109 195 CURVE"
);
}
);
width = 750;
},
{
associatedMasterId = "59118767-2CA9-48AA-9373-694D24C960D8";
background = {
paths = (
{
closed = 1;
nodes = (
"432 68 LINE",
"530 116 OFFCURVE",
"629 284 OFFCURVE",
"629 413 CURVE SMOOTH",
"629 466 OFFCURVE",
"604 497 OFFCURVE",
"551 497 CURVE SMOOTH",
"490 497 OFFCURVE",
"388 444 OFFCURVE",
"316 325 CURVE SMOOTH",
"312 318 OFFCURVE",
"312 295 OFFCURVE",
"312 290 CURVE SMOOTH",
"312 281 OFFCURVE",
"320 274 OFFCURVE",
"329 274 CURVE SMOOTH",
"340 274 OFFCURVE",
"351 282 OFFCURVE",
"360 295 CURVE SMOOTH",
"396 348 OFFCURVE",
"452 393 OFFCURVE",
"486 393 CURVE SMOOTH",
"517 393 OFFCURVE",
"528 371 OFFCURVE",
"528 337 CURVE SMOOTH",
"528 252 OFFCURVE",
"450 106 OFFCURVE",
"366 68 CURVE"
);
},
{
closed = 1;
nodes = (
"69 35 OFFCURVE",
"156 -16 OFFCURVE",
"274 -16 CURVE SMOOTH",
"383 -16 OFFCURVE",
"518 11 OFFCURVE",
"594 67 CURVE",
"605 102 OFFCURVE",
"592 137 OFFCURVE",
"577 137 CURVE SMOOTH",
"558 137 OFFCURVE",
"520 105 OFFCURVE",
"440 86 CURVE SMOOTH",
"404 77 OFFCURVE",
"358 72 OFFCURVE",
"313 72 CURVE SMOOTH",
"240 72 OFFCURVE",
"161 89 OFFCURVE",
"154 136 CURVE",
"214 146 OFFCURVE",
"273 183 OFFCURVE",
"273 253 CURVE SMOOTH",
"273 271 OFFCURVE",
"266 285 OFFCURVE",
"246 285 CURVE SMOOTH",
"209 285 OFFCURVE",
"158 249 OFFCURVE",
"125 207 CURVE",
"76 216 OFFCURVE",
"68 291 OFFCURVE",
"120 332 CURVE SMOOTH",
"144 350 OFFCURVE",
"175 364 OFFCURVE",
"209 364 CURVE SMOOTH",
"247 364 OFFCURVE",
"304 350 OFFCURVE",
"312 290 CURVE",
"331 279 LINE",
"382 374 LINE",
"358 493 OFFCURVE",
"185 479 OFFCURVE",
"89 394 CURVE SMOOTH",
"36 347 OFFCURVE",
"3 285 OFFCURVE",
"3 239 CURVE SMOOTH",
"3 176 OFFCURVE",
"46 141 OFFCURVE",
"101 134 CURVE"
);
}
);
};
layerId = "CE2374AE-F2F1-4DCC-AF83-0B1218640EE0";
name = "Regular Sep 20 15, 11:10";
paths = (
{
closed = 1;
nodes = (
"45 356 OFFCURVE",
"45 289 CURVE SMOOTH",
"45 216 OFFCURVE",
"93 146 OFFCURVE",
"190 146 CURVE SMOOTH",
"236 146 OFFCURVE",
"283 167 OFFCURVE",
"300 209 CURVE SMOOTH",
"307 226 OFFCURVE",
"306 241 OFFCURVE",
"287 249 CURVE SMOOTH",
"254 263 OFFCURVE",
"194 248 OFFCURVE",
"147 222 CURVE",
"215 229 LINE",
"152 229 OFFCURVE",
"118 283 OFFCURVE",
"118 320 CURVE SMOOTH",
"118 365 OFFCURVE",
"156 387 OFFCURVE",
"194 387 CURVE SMOOTH",
"251 387 OFFCURVE",
"280 339 OFFCURVE",
"301 300 CURVE SMOOTH",
"305 293 OFFCURVE",
"315 274 OFFCURVE",
"331 274 CURVE SMOOTH",
"339 274 OFFCURVE",
"348 278 OFFCURVE",
"358 289 CURVE",
"405 333 OFFCURVE",
"448 363 OFFCURVE",
"503 363 CURVE SMOOTH",
"570 363 OFFCURVE",
"650 317 OFFCURVE",
"650 201 CURVE SMOOTH",
"650 150 OFFCURVE",
"634 119 OFFCURVE",
"614 101 CURVE",
"618 121 OFFCURVE",
"620 139 OFFCURVE",
"620 155 CURVE SMOOTH",
"620 229 OFFCURVE",
"581 263 OFFCURVE",
"525 263 CURVE SMOOTH",
"432 263 OFFCURVE",
"367 167 OFFCURVE",
"367 87 CURVE SMOOTH",
"367 31 OFFCURVE",
"399 -18 OFFCURVE",
"473 -18 CURVE SMOOTH",
"474 -18 LINE SMOOTH",
"577 -18 OFFCURVE",
"719 80 OFFCURVE",
"719 259 CURVE SMOOTH",
"719 369 OFFCURVE",
"665 463 OFFCURVE",
"552 463 CURVE SMOOTH",
"486 463 OFFCURVE",
"430 432 OFFCURVE",
"379 382 CURVE",
"343 436 OFFCURVE",
"282 461 OFFCURVE",
"224 461 CURVE SMOOTH",
"106 461 OFFCURVE"
);
},
{
closed = 1;
nodes = (
"464 72 OFFCURVE",
"439 105 OFFCURVE",
"439 131 CURVE SMOOTH",
"439 152 OFFCURVE",
"455 170 OFFCURVE",
"486 170 CURVE SMOOTH",
"526 170 OFFCURVE",
"570 141 OFFCURVE",
"570 78 CURVE",
"553 74 OFFCURVE",
"536 72 OFFCURVE",
"524 72 CURVE SMOOTH"
);
},
{
closed = 1;
nodes = (
"109 203 LINE",
"65 162 OFFCURVE",
"46 114 OFFCURVE",
"46 69 CURVE SMOOTH",
"46 4 OFFCURVE",
"88 -52 OFFCURVE",
"167 -52 CURVE SMOOTH",
"209 -52 OFFCURVE",
"238 -5 OFFCURVE",
"238 24 CURVE SMOOTH",
"238 35 OFFCURVE",
"234 44 OFFCURVE",
"224 45 CURVE SMOOTH",
"177 50 OFFCURVE",
"122 57 OFFCURVE",
"122 105 CURVE SMOOTH",
"122 132 OFFCURVE",
"137 149 OFFCURVE",
"164 160 CURVE"
);
}
);
width = 750;
},
{
associatedMasterId = "59118767-2CA9-48AA-9373-694D24C960D8";
background = {
paths = (
{
closed = 1;
nodes = (
"432 68 LINE",
"530 116 OFFCURVE",
"629 284 OFFCURVE",
"629 413 CURVE SMOOTH",
"629 466 OFFCURVE",
"604 497 OFFCURVE",
"551 497 CURVE SMOOTH",
"490 497 OFFCURVE",
"388 444 OFFCURVE",
"316 325 CURVE SMOOTH",
"312 318 OFFCURVE",
"312 295 OFFCURVE",
"312 290 CURVE SMOOTH",
"312 281 OFFCURVE",
"320 274 OFFCURVE",
"329 274 CURVE SMOOTH",
"340 274 OFFCURVE",
"351 282 OFFCURVE",
"360 295 CURVE SMOOTH",
"396 348 OFFCURVE",
"452 393 OFFCURVE",
"486 393 CURVE SMOOTH",
"517 393 OFFCURVE",
"528 371 OFFCURVE",
"528 337 CURVE SMOOTH",
"528 252 OFFCURVE",
"450 106 OFFCURVE",
"366 68 CURVE"
);
},
{
closed = 1;
nodes = (
"69 35 OFFCURVE",
"156 -16 OFFCURVE",
"274 -16 CURVE SMOOTH",
"383 -16 OFFCURVE",
"518 11 OFFCURVE",
"594 67 CURVE",
"605 102 OFFCURVE",
"592 137 OFFCURVE",
"577 137 CURVE SMOOTH",
"558 137 OFFCURVE",
"520 105 OFFCURVE",
"440 86 CURVE SMOOTH",
"404 77 OFFCURVE",
"358 72 OFFCURVE",
"313 72 CURVE SMOOTH",
"240 72 OFFCURVE",
"161 89 OFFCURVE",
"154 136 CURVE",
"214 146 OFFCURVE",
"273 183 OFFCURVE",
"273 253 CURVE SMOOTH",
"273 271 OFFCURVE",
"266 285 OFFCURVE",
"246 285 CURVE SMOOTH",
"209 285 OFFCURVE",
"158 249 OFFCURVE",
"125 207 CURVE",
"76 216 OFFCURVE",
"68 291 OFFCURVE",
"120 332 CURVE SMOOTH",
"144 350 OFFCURVE",
"175 364 OFFCURVE",
"209 364 CURVE SMOOTH",
"247 364 OFFCURVE",
"304 350 OFFCURVE",
"312 290 CURVE",
"331 279 LINE",
"382 374 LINE",
"358 493 OFFCURVE",
"185 479 OFFCURVE",
"89 394 CURVE SMOOTH",
"36 347 OFFCURVE",
"3 285 OFFCURVE",
"3 239 CURVE SMOOTH",
"3 176 OFFCURVE",
"46 141 OFFCURVE",
"101 134 CURVE"
);
}
);
};
layerId = "37E7C6F2-3D4B-43B8-BC61-CB48A3AF5240";
name = "Regular Sep 20 15, 11:16";
paths = (
{
closed = 1;
nodes = (
"321 523 OFFCURVE",
"227 523 CURVE SMOOTH",
"136 523 OFFCURVE",
"41 437 OFFCURVE",
"41 329 CURVE SMOOTH",
"41 256 OFFCURVE",
"89 186 OFFCURVE",
"186 186 CURVE SMOOTH",
"232 186 OFFCURVE",
"279 207 OFFCURVE",
"296 249 CURVE SMOOTH",
"303 266 OFFCURVE",
"302 281 OFFCURVE",
"283 289 CURVE SMOOTH",
"250 303 OFFCURVE",
"190 288 OFFCURVE",
"143 262 CURVE",
"211 269 LINE",
"148 269 OFFCURVE",
"114 323 OFFCURVE",
"114 360 CURVE SMOOTH",
"114 513 OFFCURVE",
"358 482 OFFCURVE",
"328 290 CURVE",
"356 404 LINE",
"315 294 OFFCURVE",
"323 274 OFFCURVE",
"347 274 CURVE SMOOTH",
"382 274 OFFCURVE",
"382 374 OFFCURVE",
"502 373 CURVE SMOOTH",
"577 372 OFFCURVE",
"650 321 OFFCURVE",
"650 201 CURVE SMOOTH",
"650 150 OFFCURVE",
"634 119 OFFCURVE",
"614 101 CURVE",
"618 121 OFFCURVE",
"620 139 OFFCURVE",
"620 155 CURVE SMOOTH",
"620 229 OFFCURVE",
"581 263 OFFCURVE",
"525 263 CURVE SMOOTH",
"432 263 OFFCURVE",
"383 167 OFFCURVE",
"367 87 CURVE SMOOTH",
"358 41 OFFCURVE",
"399 -18 OFFCURVE",
"473 -18 CURVE SMOOTH",
"474 -18 LINE SMOOTH",
"577 -18 OFFCURVE",
"719 80 OFFCURVE",
"719 259 CURVE SMOOTH",
"719 369 OFFCURVE",
"653 462 OFFCURVE",
"552 462 CURVE SMOOTH",
"494 462 OFFCURVE",
"424 442 OFFCURVE",
"363 332 CURVE",
"412 357 LINE",
"398 471 OFFCURVE"
);
},
{
closed = 1;
nodes = (
"464 72 OFFCURVE",
"439 105 OFFCURVE",
"439 131 CURVE SMOOTH",
"439 152 OFFCURVE",
"455 170 OFFCURVE",
"486 170 CURVE SMOOTH",
"526 170 OFFCURVE",
"570 141 OFFCURVE",
"570 78 CURVE",
"553 74 OFFCURVE",
"536 72 OFFCURVE",
"524 72 CURVE SMOOTH"
);
},
{
closed = 1;
nodes = (
"105 243 LINE",
"61 202 OFFCURVE",
"42 154 OFFCURVE",
"42 109 CURVE SMOOTH",
"42 44 OFFCURVE",
"84 -12 OFFCURVE",
"163 -12 CURVE SMOOTH",
"205 -12 OFFCURVE",
"234 35 OFFCURVE",
"234 64 CURVE SMOOTH",
"234 75 OFFCURVE",
"230 84 OFFCURVE",
"220 85 CURVE SMOOTH",
"173 90 OFFCURVE",
"118 97 OFFCURVE",
"118 145 CURVE SMOOTH",
"118 172 OFFCURVE",
"133 189 OFFCURVE",
"160 200 CURVE"
);
}
);
width = 750;
},
{
associatedMasterId = "59118767-2CA9-48AA-9373-694D24C960D8";
background = {
paths = (
{
closed = 1;
nodes = (
"607 -18 OFFCURVE",
"624 72 OFFCURVE",
"538 72 CURVE SMOOTH",
"478 72 OFFCURVE",
"453 105 OFFCURVE",
"453 131 CURVE SMOOTH",
"453 152 OFFCURVE",
"469 170 OFFCURVE",
"500 170 CURVE SMOOTH",
"539 170 OFFCURVE",
"584 140 OFFCURVE",
"584 82 CURVE SMOOTH",
"584 67 OFFCURVE",
"581 52 OFFCURVE",
"574 35 CURVE",
"621 75 LINE",
"662 149 OFFCURVE",
"632 263 OFFCURVE",
"539 263 CURVE SMOOTH",
"446 263 OFFCURVE",
"381 167 OFFCURVE",
"381 87 CURVE SMOOTH",
"381 31 OFFCURVE",
"413 -18 OFFCURVE",
"488 -18 CURVE SMOOTH"
);
},
{
closed = 1;
nodes = (
"384 297 LINE",
"428 338 OFFCURVE",
"472 363 OFFCURVE",
"520 363 CURVE SMOOTH",
"584 363 OFFCURVE",
"664 317 OFFCURVE",
"664 200 CURVE SMOOTH",
"664 134 OFFCURVE",
"634 72 OFFCURVE",
"538 72 CURVE SMOOTH",
"475 72 OFFCURVE",
"414 -18 OFFCURVE",
"488 -18 CURVE SMOOTH",
"596 -18 OFFCURVE",
"733 83 OFFCURVE",
"733 257 CURVE SMOOTH",
"733 370 OFFCURVE",
"680 463 OFFCURVE",
"564 463 CURVE SMOOTH",
"486 463 OFFCURVE",
"409 421 OFFCURVE",
"339 357 CURVE"
);
}
);
};
layerId = "077D147B-5994-4760-AB34-A088E1A2AB8E";
name = "Regular Sep 20 15, 11:21";
paths = (
{
closed = 1;
nodes = (
"499 462 OFFCURVE",
"436 445 OFFCURVE",
"378 358 CURVE",
"436 367 LINE",
"383 481 OFFCURVE",
"320 523 OFFCURVE",
"227 523 CURVE SMOOTH",
"136 523 OFFCURVE",
"41 437 OFFCURVE",
"41 329 CURVE SMOOTH",
"41 289 OFFCURVE",
"56 249 OFFCURVE",
"85 222 CURVE",
"55 186 OFFCURVE",
"42 147 OFFCURVE",
"42 109 CURVE SMOOTH",
"42 44 OFFCURVE",
"84 -12 OFFCURVE",
"163 -12 CURVE SMOOTH",
"205 -12 OFFCURVE",
"234 35 OFFCURVE",
"234 64 CURVE SMOOTH",
"234 75 OFFCURVE",
"230 84 OFFCURVE",
"220 85 CURVE SMOOTH",
"173 90 OFFCURVE",
"118 97 OFFCURVE",
"118 145 CURVE SMOOTH",
"118 166 OFFCURVE",
"127 180 OFFCURVE",
"143 191 CURVE",
"156 188 OFFCURVE",
"170 186 OFFCURVE",
"186 186 CURVE SMOOTH",
"232 186 OFFCURVE",
"279 207 OFFCURVE",
"296 249 CURVE SMOOTH",
"303 266 OFFCURVE",
"302 281 OFFCURVE",
"283 289 CURVE SMOOTH",
"250 303 OFFCURVE",
"188 288 OFFCURVE",
"142 261 CURVE",
"225 269 LINE",
"162 270 OFFCURVE",
"129 323 OFFCURVE",
"129 360 CURVE SMOOTH",
"129 423 OFFCURVE",
"166 450 OFFCURVE",
"209 450 CURVE SMOOTH",
"264 450 OFFCURVE",
"328 404 OFFCURVE",
"328 332 CURVE SMOOTH",
"328 308 OFFCURVE",
"334 302 OFFCURVE",
"347 302 CURVE SMOOTH",
"382 302 OFFCURVE",
"382 374 OFFCURVE",
"502 373 CURVE SMOOTH",
"577 372 OFFCURVE",
"640 317 OFFCURVE",
"640 206 CURVE SMOOTH",
"640 155 OFFCURVE",
"624 124 OFFCURVE",
"604 106 CURVE",
"608 126 OFFCURVE",
"610 144 OFFCURVE",
"610 160 CURVE SMOOTH",
"610 234 OFFCURVE",
"571 268 OFFCURVE",
"515 268 CURVE SMOOTH",
"422 268 OFFCURVE",
"373 172 OFFCURVE",
"357 92 CURVE SMOOTH",
"348 46 OFFCURVE",
"389 -13 OFFCURVE",
"463 -13 CURVE SMOOTH",
"464 -13 LINE SMOOTH",
"770 -13 OFFCURVE",
"831 462 OFFCURVE",
"552 462 CURVE SMOOTH"
);
},
{
closed = 1;
nodes = (
"454 77 OFFCURVE",
"429 110 OFFCURVE",
"429 136 CURVE SMOOTH",
"429 157 OFFCURVE",
"445 175 OFFCURVE",
"476 175 CURVE SMOOTH",
"516 175 OFFCURVE",
"560 146 OFFCURVE",
"560 83 CURVE",
"543 79 OFFCURVE",
"526 77 OFFCURVE",
"514 77 CURVE SMOOTH"
);
}
);
width = 750;
}
);
unicode = 0C23;
},
{
color = 6;
glyphname = tlTA;
lastChange = "2015-10-30 12:45:06 +0000";
layers = (
{
associatedMasterId = "59118767-2CA9-48AA-9373-694D24C960D8";
components = (
{
name = tlTick;
transform = "{1, 0, 0, 1, 57, 0}";
}
);
layerId = "79BCB5AC-3F9F-492E-909C-BB01EEFB915A";
name = "Regular Aug 30 15, 09:30";
paths = (
{
closed = 1;
nodes = (
"323 -124 LINE",
"269 -122 OFFCURVE",
"220 -120 OFFCURVE",
"190 -120 CURVE SMOOTH",
"122 -120 OFFCURVE",
"71 -72 OFFCURVE",
"72 1 CURVE SMOOTH",
"74 112 OFFCURVE",
"150 193 OFFCURVE",
"198 193 CURVE SMOOTH",
"246 193 OFFCURVE",
"233 145 OFFCURVE",
"184 117 CURVE SMOOTH",
"135 89 OFFCURVE",
"160 27 OFFCURVE",
"201 32 CURVE SMOOTH",
"303 44 OFFCURVE",
"323 122 OFFCURVE",
"323 169 CURVE SMOOTH",
"323 224 OFFCURVE",
"265 254 OFFCURVE",
"219 254 CURVE SMOOTH",
"141 254 OFFCURVE",
"-17 149 OFFCURVE",
"-10 -63 CURVE SMOOTH",
"-6 -177 OFFCURVE",
"58 -226 OFFCURVE",
"143 -226 CURVE SMOOTH",
"144 -226 OFFCURVE",
"235 -225 OFFCURVE",
"323 -225 CURVE"
);
},
{
closed = 1;
nodes = (
"471 41 OFFCURVE",
"443 73 OFFCURVE",
"443 118 CURVE SMOOTH",
"443 184 OFFCURVE",
"472 196 OFFCURVE",
"500 196 CURVE SMOOTH",
"532 196 OFFCURVE",
"549 155 OFFCURVE",
"549 114 CURVE SMOOTH",
"549 77 OFFCURVE",
"534 41 OFFCURVE",
"501 41 CURVE SMOOTH"
);
},
{
closed = 1;
nodes = (
"308 -200 LINE",
"759 -250 OFFCURVE",
"791 155 OFFCURVE",
"720 234 CURVE SMOOTH",
"610 357 OFFCURVE",
"372 262 OFFCURVE",
"372 61 CURVE SMOOTH",
"372 19 OFFCURVE",
"389 -35 OFFCURVE",
"457 -35 CURVE SMOOTH",
"538 -35 OFFCURVE",
"682 83 OFFCURVE",
"553 238 CURVE",
"534 199 LINE",
"644 194 OFFCURVE",
"688 141 OFFCURVE",
"688 55 CURVE SMOOTH",
"688 -35 OFFCURVE",
"424 -191 OFFCURVE",
"287 -122 CURVE"
);
},
{
closed = 1;
nodes = (
"591 250 LINE",
"599 396 OFFCURVE",
"522 463 OFFCURVE",
"372 463 CURVE SMOOTH",
"270 463 OFFCURVE",
"152 428 OFFCURVE",
"70 374 CURVE",
"61 362 OFFCURVE",
"58 351 OFFCURVE",
"58 336 CURVE SMOOTH",
"58 313 OFFCURVE",
"74 310 OFFCURVE",
"89 310 CURVE SMOOTH",
"110 310 OFFCURVE",
"172 340 OFFCURVE",
"199 353 CURVE SMOOTH",
"209 358 OFFCURVE",
"219 345 OFFCURVE",
"230 349 CURVE SMOOTH",
"359 400 OFFCURVE",
"528 350 OFFCURVE",
"513 209 CURVE"
);
}
);
width = 555;
},
{
associatedMasterId = "59118767-2CA9-48AA-9373-694D24C960D8";
components = (
{
name = tlTick;
transform = "{1, 0, 0, 1, 101, 0}";
}
);
layerId = "6F55F090-5E0E-427B-9AC4-6CAB072ABB82";
name = "Regular Aug 30 15, 09:42";
paths = (
{
closed = 1;
nodes = (
"535 326 LINE",
"455 296 OFFCURVE",
"386 218 OFFCURVE",
"386 111 CURVE SMOOTH",
"386 69 OFFCURVE",
"403 15 OFFCURVE",
"471 15 CURVE SMOOTH",
"544 15 OFFCURVE",
"668 110 OFFCURVE",
"598 242 CURVE",
"672 225 OFFCURVE",
"702 177 OFFCURVE",
"702 105 CURVE SMOOTH",
"702 -11 OFFCURVE",
"502 -91 OFFCURVE",
"330 -91 CURVE SMOOTH",
"193 -91 OFFCURVE",
"99 -29 OFFCURVE",
"99 56 CURVE SMOOTH",
"99 116 OFFCURVE",
"154 183 OFFCURVE",
"222 183 CURVE SMOOTH",
"270 183 OFFCURVE",
"257 135 OFFCURVE",
"208 107 CURVE SMOOTH",
"159 79 OFFCURVE",
"184 17 OFFCURVE",
"225 22 CURVE SMOOTH",
"327 34 OFFCURVE",
"347 112 OFFCURVE",
"347 159 CURVE SMOOTH",
"347 214 OFFCURVE",
"289 244 OFFCURVE",
"243 244 CURVE SMOOTH",
"120 244 OFFCURVE",
"20 117 OFFCURVE",
"20 -3 CURVE SMOOTH",
"20 -117 OFFCURVE",
"103 -202 OFFCURVE",
"269 -202 CURVE SMOOTH",
"523 -202 OFFCURVE",
"777 -30 OFFCURVE",
"777 173 CURVE SMOOTH",
"777 213 OFFCURVE",
"763 251 OFFCURVE",
"734 284 CURVE SMOOTH",
"696 326 OFFCURVE",
"642 343 OFFCURVE",
"589 338 CURVE"
);
},
{
closed = 1;
nodes = (
"485 91 OFFCURVE",
"457 123 OFFCURVE",
"457 168 CURVE SMOOTH",
"457 234 OFFCURVE",
"486 246 OFFCURVE",
"514 246 CURVE SMOOTH",
"546 246 OFFCURVE",
"563 205 OFFCURVE",
"563 164 CURVE SMOOTH",
"563 127 OFFCURVE",
"548 91 OFFCURVE",
"515 91 CURVE SMOOTH"
);
},
{
closed = 1;
nodes = (
"586 269 LINE",
"563 357 OFFCURVE",
"507 463 OFFCURVE",
"386 463 CURVE SMOOTH",
"284 463 OFFCURVE",
"196 428 OFFCURVE",
"114 374 CURVE",
"105 362 OFFCURVE",
"102 351 OFFCURVE",
"102 336 CURVE SMOOTH",
"102 313 OFFCURVE",
"118 302 OFFCURVE",
"133 302 CURVE SMOOTH",
"148 302 OFFCURVE",
"266 368 OFFCURVE",
"347 368 CURVE SMOOTH",
"434 368 OFFCURVE",
"497 343 OFFCURVE",
"507 302 CURVE"
);
}
);
width = 797;
},
{
associatedMasterId = "59118767-2CA9-48AA-9373-694D24C960D8";
components = (
{
name = tlTick;
transform = "{1, 0, 0, 1, 101, 0}";
}
);
layerId = "EE5E14B2-34D8-49E0-A14B-41F34D65B28B";
name = "Regular Aug 30 15, 09:49";
paths = (
{
closed = 1;
nodes = (
"378 423 OFFCURVE",
"378 186 CURVE SMOOTH",
"378 153 OFFCURVE",
"397 99 OFFCURVE",
"461 99 CURVE SMOOTH",
"550 99 OFFCURVE",
"629 185 OFFCURVE",
"579 286 CURVE",
"673 268 OFFCURVE",
"700 162 OFFCURVE",
"620 102 CURVE SMOOTH",
"556 54 OFFCURVE",
"438 30 OFFCURVE",
"324 30 CURVE SMOOTH",
"186 30 OFFCURVE",
"129 84 OFFCURVE",
"129 131 CURVE SMOOTH",
"129 179 OFFCURVE",
"161 200 OFFCURVE",
"196 200 CURVE SMOOTH",
"240 200 OFFCURVE",
"248 157 OFFCURVE",
"218 143 CURVE SMOOTH",
"171 121 OFFCURVE",
"195 75 OFFCURVE",
"234 77 CURVE SMOOTH",
"300 80 OFFCURVE",
"330 126 OFFCURVE",
"330 162 CURVE SMOOTH",
"330 309 OFFCURVE",
"33 264 OFFCURVE",
"33 93 CURVE SMOOTH",
"33 18 OFFCURVE",
"105 -55 OFFCURVE",
"266 -55 CURVE SMOOTH",
"516 -55 OFFCURVE",
"749 71 OFFCURVE",
"749 233 CURVE SMOOTH",
"749 433 OFFCURVE"
);
},
{
closed = 1;
nodes = (
"472 170 OFFCURVE",
"444 195 OFFCURVE",
"444 229 CURVE SMOOTH",
"444 280 OFFCURVE",
"473 289 OFFCURVE",
"499 289 CURVE SMOOTH",
"530 289 OFFCURVE",
"546 258 OFFCURVE",
"546 226 CURVE SMOOTH",
"546 198 OFFCURVE",
"531 170 OFFCURVE",
"500 170 CURVE SMOOTH"
);
},
{
closed = 1;
nodes = (
"567 313 LINE",
"546 381 OFFCURVE",
"493 462 OFFCURVE",
"378 462 CURVE SMOOTH",
"280 462 OFFCURVE",
"190 415 OFFCURVE",
"112 374 CURVE",
"103 365 OFFCURVE",
"100 356 OFFCURVE",
"100 345 CURVE SMOOTH",
"100 327 OFFCURVE",
"116 303 OFFCURVE",
"129 303 CURVE SMOOTH",
"144 303 OFFCURVE",
"262 374 OFFCURVE",
"340 374 CURVE SMOOTH",
"423 374 OFFCURVE",
"465 373 OFFCURVE",
"493 326 CURVE"
);
}
);
width = 797;
},
{
associatedMasterId = "59118767-2CA9-48AA-9373-694D24C960D8";
background = {
paths = (
{
closed = 1;
nodes = (
"268 91 LINE",
"191 82 OFFCURVE",
"131 132 OFFCURVE",
"132 211 CURVE SMOOTH",
"134 322 OFFCURVE",
"210 403 OFFCURVE",
"258 403 CURVE SMOOTH",
"306 403 OFFCURVE",
"293 355 OFFCURVE",
"244 327 CURVE SMOOTH",
"195 299 OFFCURVE",
"220 237 OFFCURVE",
"261 242 CURVE SMOOTH",
"363 254 OFFCURVE",
"383 332 OFFCURVE",
"383 379 CURVE SMOOTH",
"383 434 OFFCURVE",
"325 464 OFFCURVE",
"279 464 CURVE SMOOTH",
"201 464 OFFCURVE",
"43 359 OFFCURVE",
"50 147 CURVE SMOOTH",
"54 26 OFFCURVE",
"126 -22 OFFCURVE",
"219 -15 CURVE"
);
},
{
closed = 1;
nodes = (
"227 63 LINE",
"247 16 OFFCURVE",
"294 -13 OFFCURVE",
"382 -13 CURVE SMOOTH",
"548 -13 OFFCURVE",
"636 105 OFFCURVE",
"636 180 CURVE SMOOTH",
"636 341 OFFCURVE",
"395 299 OFFCURVE",
"377 142 CURVE SMOOTH",
"372 101 OFFCURVE",
"451 106 OFFCURVE",
"479 155 CURVE SMOOTH",
"507 204 OFFCURVE",
"555 187 OFFCURVE",
"555 139 CURVE SMOOTH",
"555 110 OFFCURVE",
"523 62 OFFCURVE",
"426 62 CURVE SMOOTH",
"337 62 OFFCURVE",
"319 108 OFFCURVE",
"305 158 CURVE",
"300 181 OFFCURVE",
"265 173 OFFCURVE",
"243 128 CURVE"
);
}
);
};
components = (
{
name = tlTick;
transform = "{1, 0, 0, 1, 449, 0}";
}
);
layerId = "9405C041-3388-4EBD-B2EF-6BB26AC92815";
name = "Regular Aug 30 15, 12:11";
paths = (
{
closed = 1;
nodes = (
"268 91 LINE",
"191 82 OFFCURVE",
"131 132 OFFCURVE",
"132 211 CURVE SMOOTH",
"134 322 OFFCURVE",
"210 403 OFFCURVE",
"258 403 CURVE SMOOTH",
"306 403 OFFCURVE",
"293 355 OFFCURVE",
"244 327 CURVE SMOOTH",
"195 299 OFFCURVE",
"220 237 OFFCURVE",
"261 242 CURVE SMOOTH",
"363 254 OFFCURVE",
"383 332 OFFCURVE",
"383 379 CURVE SMOOTH",
"383 434 OFFCURVE",
"325 464 OFFCURVE",
"279 464 CURVE SMOOTH",
"201 464 OFFCURVE",
"43 359 OFFCURVE",
"50 147 CURVE SMOOTH",
"54 26 OFFCURVE",
"126 -22 OFFCURVE",
"219 -15 CURVE"
);
},
{
closed = 1;
nodes = (
"227 63 LINE",
"247 16 OFFCURVE",
"294 -13 OFFCURVE",
"382 -13 CURVE SMOOTH",
"548 -13 OFFCURVE",
"636 105 OFFCURVE",
"636 180 CURVE SMOOTH",
"636 341 OFFCURVE",
"395 299 OFFCURVE",
"377 142 CURVE SMOOTH",
"372 101 OFFCURVE",
"451 106 OFFCURVE",
"479 155 CURVE SMOOTH",
"507 204 OFFCURVE",
"555 187 OFFCURVE",
"555 139 CURVE SMOOTH",
"555 110 OFFCURVE",
"523 62 OFFCURVE",
"426 62 CURVE SMOOTH",
"337 62 OFFCURVE",
"319 108 OFFCURVE",
"305 158 CURVE",
"300 181 OFFCURVE",
"265 173 OFFCURVE",
"243 128 CURVE"
);
}
);
width = 797;
},
{
associatedMasterId = "59118767-2CA9-48AA-9373-694D24C960D8";
background = {
paths = (
{
closed = 1;
nodes = (
"268 91 LINE",
"191 82 OFFCURVE",
"131 132 OFFCURVE",
"132 211 CURVE SMOOTH",
"134 322 OFFCURVE",
"210 403 OFFCURVE",
"258 403 CURVE SMOOTH",
"306 403 OFFCURVE",
"293 355 OFFCURVE",
"244 327 CURVE SMOOTH",
"195 299 OFFCURVE",
"220 237 OFFCURVE",
"261 242 CURVE SMOOTH",
"363 254 OFFCURVE",
"383 332 OFFCURVE",
"383 379 CURVE SMOOTH",
"383 434 OFFCURVE",
"325 464 OFFCURVE",
"279 464 CURVE SMOOTH",
"201 464 OFFCURVE",
"43 359 OFFCURVE",
"50 147 CURVE SMOOTH",
"54 26 OFFCURVE",
"126 -22 OFFCURVE",
"219 -15 CURVE"
);
},
{
closed = 1;
nodes = (
"227 63 LINE",
"247 16 OFFCURVE",
"294 -13 OFFCURVE",
"382 -13 CURVE SMOOTH",
"548 -13 OFFCURVE",
"636 105 OFFCURVE",
"636 180 CURVE SMOOTH",
"636 341 OFFCURVE",
"395 299 OFFCURVE",
"377 142 CURVE SMOOTH",
"372 101 OFFCURVE",
"451 106 OFFCURVE",
"479 155 CURVE SMOOTH",
"507 204 OFFCURVE",
"555 187 OFFCURVE",
"555 139 CURVE SMOOTH",
"555 110 OFFCURVE",
"523 62 OFFCURVE",
"426 62 CURVE SMOOTH",
"337 62 OFFCURVE",
"319 108 OFFCURVE",
"305 158 CURVE",
"300 181 OFFCURVE",
"265 173 OFFCURVE",
"243 128 CURVE"
);
}
);
};
components = (
{
name = tlTick;
transform = "{1, 0, 0, 1, 449, 0}";
}
);
layerId = "7ABDB322-88D7-42E5-B73F-7FB979E971C8";
name = "Regular Aug 30 15, 14:53";
paths = (
{
closed = 1;
nodes = (
"334 47 OFFCURVE",
"407 4 CURVE",
"424 72 OFFCURVE",
"443 115 OFFCURVE",
"463 142 CURVE SMOOTH",
"484 169 OFFCURVE",
"516 185 OFFCURVE",
"542 185 CURVE SMOOTH",
"571 185 OFFCURVE",
"590 171 OFFCURVE",
"590 151 CURVE SMOOTH",
"590 102 OFFCURVE",
"535 55 OFFCURVE",
"456 55 CURVE SMOOTH",
"106 55 OFFCURVE",
"146 385 OFFCURVE",
"276 385 CURVE SMOOTH",
"292 385 OFFCURVE",
"303 375 OFFCURVE",
"303 352 CURVE SMOOTH",
"303 335 OFFCURVE",
"288 308 OFFCURVE",
"264 297 CURVE SMOOTH",
"227 280 OFFCURVE",
"240 246 OFFCURVE",
"281 252 CURVE SMOOTH",
"344 262 OFFCURVE",
"399 317 OFFCURVE",
"399 378 CURVE SMOOTH",
"399 434 OFFCURVE",
"360 461 OFFCURVE",
"317 461 CURVE SMOOTH",
"193 461 OFFCURVE",
"88 331 OFFCURVE",
"88 209 CURVE SMOOTH",
"88 -124 OFFCURVE",
"676 -38 OFFCURVE",
"676 180 CURVE SMOOTH",
"676 251 OFFCURVE",
"630 282 OFFCURVE",
"576 282 CURVE SMOOTH",
"434 282 OFFCURVE"
);
},
{
closed = 1;
nodes = (
"626 477 OFFCURVE",
"567 447 OFFCURVE",
"459 377 CURVE",
"449 359 OFFCURVE",
"449 353 OFFCURVE",
"449 342 CURVE SMOOTH",
"449 322 OFFCURVE",
"460 315 OFFCURVE",
"476 315 CURVE SMOOTH",
"518 315 OFFCURVE",
"553 351 OFFCURVE",
"563 320 CURVE SMOOTH",
"573 290 OFFCURVE",
"510 254 OFFCURVE",
"492 246 CURVE",
"580 254 LINE",
"631 294 OFFCURVE",
"660 411 OFFCURVE",
"646 438 CURVE SMOOTH"
);
}
);
width = 797;
},
{
associatedMasterId = "59118767-2CA9-48AA-9373-694D24C960D8";
components = (
{
name = tlTick;
transform = "{1, 0, 0, 1, 219, 0}";
}
);
layerId = "C2F4B590-E32B-4DBD-BDF8-4063FFA81452";
name = "Regular Aug 31 15, 16:19";
paths = (
{
closed = 1;
nodes = (
"749 433 OFFCURVE",
"378 423 OFFCURVE",
"378 186 CURVE SMOOTH",
"378 153 OFFCURVE",
"397 99 OFFCURVE",
"461 99 CURVE SMOOTH",
"550 99 OFFCURVE",
"629 185 OFFCURVE",
"579 286 CURVE",
"673 268 OFFCURVE",
"700 162 OFFCURVE",
"620 102 CURVE SMOOTH",
"556 54 OFFCURVE",
"438 35 OFFCURVE",
"324 35 CURVE SMOOTH",
"186 35 OFFCURVE",
"129 89 OFFCURVE",
"129 136 CURVE SMOOTH",
"129 184 OFFCURVE",
"161 205 OFFCURVE",
"196 205 CURVE SMOOTH",
"240 205 OFFCURVE",
"248 162 OFFCURVE",
"218 148 CURVE SMOOTH",
"171 126 OFFCURVE",
"195 80 OFFCURVE",
"234 82 CURVE SMOOTH",
"300 85 OFFCURVE",
"330 131 OFFCURVE",
"330 167 CURVE SMOOTH",
"330 314 OFFCURVE",
"33 269 OFFCURVE",
"33 98 CURVE SMOOTH",
"33 23 OFFCURVE",
"105 -50 OFFCURVE",
"266 -50 CURVE SMOOTH",
"516 -50 OFFCURVE",
"749 71 OFFCURVE",
"749 233 CURVE SMOOTH"
);
},
{
closed = 1;
nodes = (
"472 170 OFFCURVE",
"444 195 OFFCURVE",
"444 229 CURVE SMOOTH",
"444 280 OFFCURVE",
"473 289 OFFCURVE",
"499 289 CURVE SMOOTH",
"530 289 OFFCURVE",
"546 258 OFFCURVE",
"546 226 CURVE SMOOTH",
"546 198 OFFCURVE",
"531 170 OFFCURVE",
"500 170 CURVE SMOOTH"
);
},
{
closed = 1;
nodes = (
"527 283 LINE",
"620 402 OFFCURVE",
"543 462 OFFCURVE",
"461 462 CURVE SMOOTH",
"397 462 OFFCURVE",
"315 430 OFFCURVE",
"230 374 CURVE",
"221 362 OFFCURVE",
"218 351 OFFCURVE",
"218 336 CURVE SMOOTH",
"218 313 OFFCURVE",
"234 310 OFFCURVE",
"249 310 CURVE SMOOTH",
"306 310 OFFCURVE",
"519 438 OFFCURVE",
"507 315 CURVE"
);
}
);
width = 797;
},
{
associatedMasterId = "59118767-2CA9-48AA-9373-694D24C960D8";
background = {
paths = (
{
closed = 1;
nodes = (
"746 433 OFFCURVE",
"375 423 OFFCURVE",
"375 186 CURVE SMOOTH",
"375 35 OFFCURVE",
"630 91 OFFCURVE",
"576 286 CURVE",
"670 268 OFFCURVE",
"697 162 OFFCURVE",
"617 102 CURVE SMOOTH",
"553 54 OFFCURVE",
"435 35 OFFCURVE",
"321 35 CURVE SMOOTH",
"183 35 OFFCURVE",
"126 89 OFFCURVE",
"126 136 CURVE SMOOTH",
"126 184 OFFCURVE",
"158 205 OFFCURVE",
"193 205 CURVE SMOOTH",
"237 205 OFFCURVE",
"245 162 OFFCURVE",
"215 148 CURVE SMOOTH",
"168 126 OFFCURVE",
"192 80 OFFCURVE",
"231 82 CURVE SMOOTH",
"297 85 OFFCURVE",
"327 131 OFFCURVE",
"327 167 CURVE SMOOTH",
"327 314 OFFCURVE",
"30 269 OFFCURVE",
"30 98 CURVE SMOOTH",
"30 -136 OFFCURVE",
"746 -88 OFFCURVE",
"746 233 CURVE SMOOTH"
);
},
{
closed = 1;
nodes = (
"469 170 OFFCURVE",
"441 195 OFFCURVE",
"441 229 CURVE SMOOTH",
"441 280 OFFCURVE",
"470 289 OFFCURVE",
"496 289 CURVE SMOOTH",
"527 289 OFFCURVE",
"543 258 OFFCURVE",
"543 226 CURVE SMOOTH",
"543 198 OFFCURVE",
"528 170 OFFCURVE",
"497 170 CURVE SMOOTH"
);
},
{
closed = 1;
nodes = (
"564 283 LINE",
"565 411 OFFCURVE",
"497 452 OFFCURVE",
"415 452 CURVE SMOOTH",
"351 452 OFFCURVE",
"322 430 OFFCURVE",
"237 374 CURVE",
"228 362 OFFCURVE",
"225 351 OFFCURVE",
"225 336 CURVE SMOOTH",
"225 313 OFFCURVE",
"241 310 OFFCURVE",
"256 310 CURVE SMOOTH",
"314 310 OFFCURVE",
"400 435 OFFCURVE",
"544 312 CURVE"
);
}
);
};
components = (
{
name = tlTick;
transform = "{1, 0, 0, 1, 225, 0}";
}
);
layerId = "17A8263A-785A-4AD3-8E4E-4ECBA7988FB4";
name = "Regular Sep 17 15, 20:50";
paths = (
{
closed = 1;
nodes = (
"746 433 OFFCURVE",
"375 423 OFFCURVE",
"375 186 CURVE SMOOTH",
"375 35 OFFCURVE",
"630 91 OFFCURVE",
"576 286 CURVE",
"670 268 OFFCURVE",
"697 162 OFFCURVE",
"617 102 CURVE SMOOTH",
"553 54 OFFCURVE",
"435 35 OFFCURVE",
"321 35 CURVE SMOOTH",
"183 35 OFFCURVE",
"126 89 OFFCURVE",
"126 136 CURVE SMOOTH",
"126 184 OFFCURVE",
"158 205 OFFCURVE",
"193 205 CURVE SMOOTH",
"237 205 OFFCURVE",
"245 162 OFFCURVE",
"215 148 CURVE SMOOTH",
"168 126 OFFCURVE",
"192 80 OFFCURVE",
"231 82 CURVE SMOOTH",
"297 85 OFFCURVE",
"327 131 OFFCURVE",
"327 167 CURVE SMOOTH",
"327 314 OFFCURVE",
"30 269 OFFCURVE",
"30 98 CURVE SMOOTH",
"30 -136 OFFCURVE",
"746 -88 OFFCURVE",
"746 233 CURVE SMOOTH"
);
},
{
closed = 1;
nodes = (
"469 170 OFFCURVE",
"441 195 OFFCURVE",
"441 229 CURVE SMOOTH",
"441 280 OFFCURVE",
"470 289 OFFCURVE",
"496 289 CURVE SMOOTH",
"527 289 OFFCURVE",
"543 258 OFFCURVE",
"543 226 CURVE SMOOTH",
"543 198 OFFCURVE",
"528 170 OFFCURVE",
"497 170 CURVE SMOOTH"
);
},
{
closed = 1;
nodes = (
"564 283 LINE",
"565 411 OFFCURVE",
"497 452 OFFCURVE",
"415 452 CURVE SMOOTH",
"351 452 OFFCURVE",
"322 430 OFFCURVE",
"237 374 CURVE",
"228 362 OFFCURVE",
"225 351 OFFCURVE",
"225 336 CURVE SMOOTH",
"225 313 OFFCURVE",
"241 310 OFFCURVE",
"256 310 CURVE SMOOTH",
"314 310 OFFCURVE",
"400 435 OFFCURVE",
"544 312 CURVE"
);
}
);
width = 776;
},
{
associatedMasterId = "59118767-2CA9-48AA-9373-694D24C960D8";
background = {
paths = (
{
closed = 1;
nodes = (
"746 433 OFFCURVE",
"375 423 OFFCURVE",
"375 186 CURVE SMOOTH",
"375 35 OFFCURVE",
"630 91 OFFCURVE",
"576 286 CURVE",
"670 268 OFFCURVE",
"697 162 OFFCURVE",
"617 102 CURVE SMOOTH",
"553 54 OFFCURVE",
"435 35 OFFCURVE",
"321 35 CURVE SMOOTH",
"183 35 OFFCURVE",
"126 89 OFFCURVE",
"126 136 CURVE SMOOTH",
"126 184 OFFCURVE",
"158 205 OFFCURVE",
"193 205 CURVE SMOOTH",
"237 205 OFFCURVE",
"245 162 OFFCURVE",
"215 148 CURVE SMOOTH",
"168 126 OFFCURVE",
"192 80 OFFCURVE",
"231 82 CURVE SMOOTH",
"297 85 OFFCURVE",
"327 131 OFFCURVE",
"327 167 CURVE SMOOTH",
"327 314 OFFCURVE",
"30 269 OFFCURVE",
"30 98 CURVE SMOOTH",
"30 -136 OFFCURVE",
"746 -88 OFFCURVE",
"746 233 CURVE SMOOTH"
);
},
{
closed = 1;
nodes = (
"469 170 OFFCURVE",
"441 195 OFFCURVE",
"441 229 CURVE SMOOTH",
"441 280 OFFCURVE",
"470 289 OFFCURVE",
"496 289 CURVE SMOOTH",
"527 289 OFFCURVE",
"543 258 OFFCURVE",
"543 226 CURVE SMOOTH",
"543 198 OFFCURVE",
"528 170 OFFCURVE",
"497 170 CURVE SMOOTH"
);
},
{
closed = 1;
nodes = (
"564 283 LINE",
"565 411 OFFCURVE",
"497 452 OFFCURVE",
"415 452 CURVE SMOOTH",
"351 452 OFFCURVE",
"322 430 OFFCURVE",
"237 374 CURVE",
"228 362 OFFCURVE",
"225 351 OFFCURVE",
"225 336 CURVE SMOOTH",
"225 313 OFFCURVE",
"241 310 OFFCURVE",
"256 310 CURVE SMOOTH",
"314 310 OFFCURVE",
"400 435 OFFCURVE",
"544 312 CURVE"
);
}
);
};
components = (
{
name = tlTick;
transform = "{1, 0, 0, 1, 225, 0}";
}
);
layerId = "9E382DDA-37DB-45BD-BE38-2A15D62C81A3";
name = "Regular Sep 17 15, 20:53";
paths = (
{
closed = 1;
nodes = (
"602 248 LINE",
"604 483 OFFCURVE",
"338 460 OFFCURVE",
"230 360 CURVE",
"226 352 OFFCURVE",
"225 345 OFFCURVE",
"225 336 CURVE SMOOTH",
"225 313 OFFCURVE",
"243 301 OFFCURVE",
"256 310 CURVE SMOOTH",
"363 383 OFFCURVE",
"466 380 OFFCURVE",
"529 281 CURVE"
);
},
{
closed = 1;
nodes = (
"744 192 LINE",
"744 304 OFFCURVE",
"692 394 OFFCURVE",
"581 394 CURVE SMOOTH",
"470 394 OFFCURVE",
"365 307 OFFCURVE",
"365 187 CURVE SMOOTH",
"365 113 OFFCURVE",
"411 82 OFFCURVE",
"466 82 CURVE SMOOTH",
"526 82 OFFCURVE",
"602 145 OFFCURVE",
"602 247 CURVE SMOOTH",
"602 285 OFFCURVE",
"590 324 OFFCURVE",
"561 367 CURVE",
"538 303 LINE",
"634 295 OFFCURVE",
"677 221 OFFCURVE",
"677 139 CURVE"
);
},
{
closed = 1;
nodes = (
"463 156 OFFCURVE",
"432 183 OFFCURVE",
"432 231 CURVE SMOOTH",
"433 279 OFFCURVE",
"460 304 OFFCURVE",
"487 304 CURVE SMOOTH",
"515 304 OFFCURVE",
"543 277 OFFCURVE",
"543 226 CURVE SMOOTH",
"543 178 OFFCURVE",
"518 156 OFFCURVE",
"492 156 CURVE SMOOTH"
);
}
);
width = 776;
},
{
associatedMasterId = "59118767-2CA9-48AA-9373-694D24C960D8";
background = {
paths = (
{
closed = 1;
nodes = (
"746 433 OFFCURVE",
"375 423 OFFCURVE",
"375 186 CURVE SMOOTH",
"375 35 OFFCURVE",
"630 91 OFFCURVE",
"576 286 CURVE",
"670 268 OFFCURVE",
"697 162 OFFCURVE",
"617 102 CURVE SMOOTH",
"553 54 OFFCURVE",
"435 35 OFFCURVE",
"321 35 CURVE SMOOTH",
"183 35 OFFCURVE",
"126 89 OFFCURVE",
"126 136 CURVE SMOOTH",
"126 184 OFFCURVE",
"158 205 OFFCURVE",
"193 205 CURVE SMOOTH",
"237 205 OFFCURVE",
"245 162 OFFCURVE",
"215 148 CURVE SMOOTH",
"168 126 OFFCURVE",
"192 80 OFFCURVE",
"231 82 CURVE SMOOTH",
"297 85 OFFCURVE",
"327 131 OFFCURVE",
"327 167 CURVE SMOOTH",
"327 314 OFFCURVE",
"30 269 OFFCURVE",
"30 98 CURVE SMOOTH",
"30 -136 OFFCURVE",
"746 -88 OFFCURVE",
"746 233 CURVE SMOOTH"
);
},
{
closed = 1;
nodes = (
"469 170 OFFCURVE",
"441 195 OFFCURVE",
"441 229 CURVE SMOOTH",
"441 280 OFFCURVE",
"470 289 OFFCURVE",
"496 289 CURVE SMOOTH",
"527 289 OFFCURVE",
"543 258 OFFCURVE",
"543 226 CURVE SMOOTH",
"543 198 OFFCURVE",
"528 170 OFFCURVE",
"497 170 CURVE SMOOTH"
);
},
{
closed = 1;
nodes = (
"564 283 LINE",
"565 411 OFFCURVE",
"497 452 OFFCURVE",
"415 452 CURVE SMOOTH",
"351 452 OFFCURVE",
"322 430 OFFCURVE",
"237 374 CURVE",
"228 362 OFFCURVE",
"225 351 OFFCURVE",
"225 336 CURVE SMOOTH",
"225 313 OFFCURVE",
"241 310 OFFCURVE",
"256 310 CURVE SMOOTH",
"314 310 OFFCURVE",
"400 435 OFFCURVE",
"544 312 CURVE"
);
}
);
};
components = (
{
name = tlTick;
transform = "{1, 0, 0, 1, 225, 0}";
}
);
layerId = "43FEB972-354A-4317-9570-1CB170C477E5";
name = "Regular Sep 17 15, 21:01";
paths = (
{
closed = 1;
nodes = (
"745 328 OFFCURVE",
"685 394 OFFCURVE",
"583 394 CURVE SMOOTH",
"570 394 OFFCURVE",
"558 393 OFFCURVE",
"547 391 CURVE",
"514 419 OFFCURVE",
"470 432 OFFCURVE",
"423 432 CURVE SMOOTH",
"352 432 OFFCURVE",
"277 403 OFFCURVE",
"230 360 CURVE",
"226 352 OFFCURVE",
"225 344 OFFCURVE",
"225 338 CURVE SMOOTH",
"225 319 OFFCURVE",
"234 307 OFFCURVE",
"246 307 CURVE SMOOTH",
"249 307 OFFCURVE",
"253 308 OFFCURVE",
"256 310 CURVE",
"298 336 OFFCURVE",
"342 361 OFFCURVE",
"391 361 CURVE SMOOTH",
"410 361 OFFCURVE",
"429 357 OFFCURVE",
"450 350 CURVE",
"396 312 OFFCURVE",
"365 251 OFFCURVE",
"365 189 CURVE SMOOTH",
"365 113 OFFCURVE",
"412 82 OFFCURVE",
"460 82 CURVE SMOOTH",
"529 82 OFFCURVE",
"602 145 OFFCURVE",
"602 247 CURVE SMOOTH",
"602 248 LINE SMOOTH",
"602 292 OFFCURVE",
"590 315 OFFCURVE",
"575 337 CURVE",
"565 321 LINE",
"763 231 OFFCURVE",
"601 32 OFFCURVE",
"328 32 CURVE SMOOTH",
"215 32 OFFCURVE",
"128 61 OFFCURVE",
"128 128 CURVE SMOOTH",
"128 184 OFFCURVE",
"164 207 OFFCURVE",
"196 207 CURVE SMOOTH",
"218 207 OFFCURVE",
"228 199 OFFCURVE",
"228 183 CURVE SMOOTH",
"228 168 OFFCURVE",
"219 160 OFFCURVE",
"203 151 CURVE",
"199 149 OFFCURVE",
"195 142 OFFCURVE",
"195 128 CURVE SMOOTH",
"195 106 OFFCURVE",
"206 76 OFFCURVE",
"233 76 CURVE SMOOTH",
"261 76 OFFCURVE",
"323 107 OFFCURVE",
"323 173 CURVE SMOOTH",
"323 222 OFFCURVE",
"290 268 OFFCURVE",
"214 268 CURVE SMOOTH",
"108 268 OFFCURVE",
"37 175 OFFCURVE",
"37 83 CURVE SMOOTH",
"37 -5 OFFCURVE",
"144 -48 OFFCURVE",
"306 -48 CURVE SMOOTH",
"545 -48 OFFCURVE",
"745 47 OFFCURVE",
"745 229 CURVE SMOOTH"
);
},
{
closed = 1;
nodes = (
"463 156 OFFCURVE",
"432 183 OFFCURVE",
"432 231 CURVE SMOOTH",
"433 279 OFFCURVE",
"460 304 OFFCURVE",
"487 304 CURVE SMOOTH",
"515 304 OFFCURVE",
"543 277 OFFCURVE",
"543 226 CURVE SMOOTH",
"543 178 OFFCURVE",
"518 156 OFFCURVE",
"492 156 CURVE SMOOTH"
);
}
);
width = 776;
},
{
components = (
{
name = tlTick;
transform = "{1, 0, 0, 1, 184, 0}";
}
);
layerId = "59118767-2CA9-48AA-9373-694D24C960D8";
name = Regular;
paths = (
{
closed = 1;
nodes = (
"584 435 OFFCURVE",
"485 403 CURVE",
"530 385 LINE",
"496 440 OFFCURVE",
"442 462 OFFCURVE",
"385 462 CURVE SMOOTH",
"313 462 OFFCURVE",
"236 426 OFFCURVE",
"189 372 CURVE",
"189 361 OFFCURVE",
"197 320 OFFCURVE",
"219 330 CURVE SMOOTH",
"265 352 OFFCURVE",
"314 375 OFFCURVE",
"370 375 CURVE SMOOTH",
"399 375 OFFCURVE",
"423 369 OFFCURVE",
"445 356 CURVE",
"440 386 LINE",
"370 353 OFFCURVE",
"328 288 OFFCURVE",
"328 217 CURVE SMOOTH",
"328 137 OFFCURVE",
"381 107 OFFCURVE",
"431 107 CURVE SMOOTH",
"498 107 OFFCURVE",
"565 165 OFFCURVE",
"565 267 CURVE SMOOTH",
"565 268 LINE SMOOTH",
"565 291 OFFCURVE",
"562 314 OFFCURVE",
"561 332 CURVE",
"529 314 LINE",
"590 320 OFFCURVE",
"628 265 OFFCURVE",
"628 212 CURVE SMOOTH",
"628 -20 OFFCURVE",
"84 -13 OFFCURVE",
"84 156 CURVE SMOOTH",
"84 205 OFFCURVE",
"126 230 OFFCURVE",
"157 230 CURVE SMOOTH",
"176 230 OFFCURVE",
"191 221 OFFCURVE",
"191 203 CURVE SMOOTH",
"191 188 OFFCURVE",
"182 180 OFFCURVE",
"166 171 CURVE",
"162 169 OFFCURVE",
"158 162 OFFCURVE",
"158 148 CURVE SMOOTH",
"158 126 OFFCURVE",
"169 96 OFFCURVE",
"196 96 CURVE SMOOTH",
"223 96 OFFCURVE",
"286 124 OFFCURVE",
"286 198 CURVE SMOOTH",
"286 261 OFFCURVE",
"240 289 OFFCURVE",
"185 289 CURVE SMOOTH",
"102 289 OFFCURVE",
"-3 222 OFFCURVE",
"-3 118 CURVE SMOOTH",
"-3 19 OFFCURVE",
"103 -49 OFFCURVE",
"269 -49 CURVE SMOOTH",
"513 -49 OFFCURVE",
"716 65 OFFCURVE",
"716 252 CURVE SMOOTH",
"716 378 OFFCURVE"
);
},
{
closed = 1;
nodes = (
"480 181 OFFCURVE",
"454 181 CURVE SMOOTH",
"425 181 OFFCURVE",
"395 202 OFFCURVE",
"395 251 CURVE SMOOTH",
"395 297 OFFCURVE",
"422 324 OFFCURVE",
"450 324 CURVE SMOOTH",
"478 324 OFFCURVE",
"506 297 OFFCURVE",
"506 247 CURVE SMOOTH",
"506 198 OFFCURVE"
);
}
);
width = 743;
},
{
associatedMasterId = "59118767-2CA9-48AA-9373-694D24C960D8";
background = {
paths = (
{
closed = 1;
nodes = (
"746 433 OFFCURVE",
"375 423 OFFCURVE",
"375 186 CURVE SMOOTH",
"375 35 OFFCURVE",
"630 91 OFFCURVE",
"576 286 CURVE",
"670 268 OFFCURVE",
"697 162 OFFCURVE",
"617 102 CURVE SMOOTH",
"553 54 OFFCURVE",
"435 35 OFFCURVE",
"321 35 CURVE SMOOTH",
"183 35 OFFCURVE",
"126 89 OFFCURVE",
"126 136 CURVE SMOOTH",
"126 184 OFFCURVE",
"158 205 OFFCURVE",
"193 205 CURVE SMOOTH",
"237 205 OFFCURVE",
"245 162 OFFCURVE",
"215 148 CURVE SMOOTH",
"168 126 OFFCURVE",
"192 80 OFFCURVE",
"231 82 CURVE SMOOTH",
"297 85 OFFCURVE",
"327 131 OFFCURVE",
"327 167 CURVE SMOOTH",
"327 314 OFFCURVE",
"30 269 OFFCURVE",
"30 98 CURVE SMOOTH",
"30 -136 OFFCURVE",
"746 -88 OFFCURVE",
"746 233 CURVE SMOOTH"
);
},
{
closed = 1;
nodes = (
"469 170 OFFCURVE",
"441 195 OFFCURVE",
"441 229 CURVE SMOOTH",
"441 280 OFFCURVE",
"470 289 OFFCURVE",
"496 289 CURVE SMOOTH",
"527 289 OFFCURVE",
"543 258 OFFCURVE",
"543 226 CURVE SMOOTH",
"543 198 OFFCURVE",
"528 170 OFFCURVE",
"497 170 CURVE SMOOTH"
);
},
{
closed = 1;
nodes = (
"564 283 LINE",
"565 411 OFFCURVE",
"497 452 OFFCURVE",
"415 452 CURVE SMOOTH",
"351 452 OFFCURVE",
"322 430 OFFCURVE",
"237 374 CURVE",
"228 362 OFFCURVE",
"225 351 OFFCURVE",
"225 336 CURVE SMOOTH",
"225 313 OFFCURVE",
"241 310 OFFCURVE",
"256 310 CURVE SMOOTH",
"314 310 OFFCURVE",
"400 435 OFFCURVE",
"544 312 CURVE"
);
}
);
};
components = (
{
name = tlTick;
transform = "{1, 0, 0, 1, 225, 0}";
}
);
layerId = "37E85715-161B-477B-AB5B-B6820C3908EE";
name = "Regular Sep 17 15, 21:03";
paths = (
{
closed = 1;
nodes = (
"121 138 LINE",
"121 187 OFFCURVE",
"161 207 OFFCURVE",
"196 207 CURVE SMOOTH",
"218 207 OFFCURVE",
"228 199 OFFCURVE",
"228 183 CURVE SMOOTH",
"228 168 OFFCURVE",
"219 160 OFFCURVE",
"203 151 CURVE",
"199 149 OFFCURVE",
"195 142 OFFCURVE",
"195 128 CURVE SMOOTH",
"195 106 OFFCURVE",
"206 76 OFFCURVE",
"233 76 CURVE SMOOTH",
"261 76 OFFCURVE",
"323 107 OFFCURVE",
"323 174 CURVE SMOOTH",
"323 222 OFFCURVE",
"291 268 OFFCURVE",
"211 268 CURVE SMOOTH",
"104 268 OFFCURVE",
"30 175 OFFCURVE",
"30 98 CURVE"
);
},
{
closed = 1;
nodes = (
"570 394 OFFCURVE",
"558 393 OFFCURVE",
"547 391 CURVE",
"464 463 OFFCURVE",
"307 431 OFFCURVE",
"230 360 CURVE",
"226 352 OFFCURVE",
"225 344 OFFCURVE",
"225 338 CURVE SMOOTH",
"225 314 OFFCURVE",
"240 301 OFFCURVE",
"256 310 CURVE SMOOTH",
"313 345 OFFCURVE",
"371 378 OFFCURVE",
"450 350 CURVE",
"396 312 OFFCURVE",
"365 251 OFFCURVE",
"365 189 CURVE SMOOTH",
"365 113 OFFCURVE",
"412 82 OFFCURVE",
"460 82 CURVE SMOOTH",
"529 82 OFFCURVE",
"602 145 OFFCURVE",
"602 247 CURVE SMOOTH",
"602 248 LINE SMOOTH",
"602 261 OFFCURVE",
"601 274 OFFCURVE",
"600 286 CURVE",
"646 266 OFFCURVE",
"667 224 OFFCURVE",
"667 179 CURVE",
"734 232 LINE",
"734 322 OFFCURVE",
"665 394 OFFCURVE",
"581 394 CURVE SMOOTH"
);
},
{
closed = 1;
nodes = (
"463 156 OFFCURVE",
"432 183 OFFCURVE",
"432 231 CURVE SMOOTH",
"433 279 OFFCURVE",
"460 304 OFFCURVE",
"487 304 CURVE SMOOTH",
"515 304 OFFCURVE",
"543 277 OFFCURVE",
"543 226 CURVE SMOOTH",
"543 178 OFFCURVE",
"518 156 OFFCURVE",
"492 156 CURVE SMOOTH"
);
},
{
closed = 1;
nodes = (
"667 179 LINE",
"667 93 OFFCURVE",
"491 35 OFFCURVE",
"321 35 CURVE SMOOTH",
"179 35 OFFCURVE",
"121 90 OFFCURVE",
"121 138 CURVE",
"30 98 LINE",
"30 1 OFFCURVE",
"155 -47 OFFCURVE",
"300 -47 CURVE SMOOTH",
"498 -47 OFFCURVE",
"734 26 OFFCURVE",
"734 232 CURVE"
);
}
);
width = 776;
}
);
rightMetricsKey = knTA;
unicode = 0C24;
},
{
color = 6;
glyphname = tlPA;
lastChange = "2015-10-30 12:45:06 +0000";
layers = (
{
components = (
{
name = "CC-pa-telugu";
transform = "{1, 0, 0, 1, -9, 0}";
},
{
name = "CC-rightarm";
transform = "{1, 0, 0, 1, 357, 0}";
},
{
name = tlTick;
transform = "{1, 0, 0, 1, 121, 0}";
}
);
layerId = "59118767-2CA9-48AA-9373-694D24C960D8";
name = Regular;
paths = (
{
closed = 1;
nodes = (
"533 117 LINE",
"504 94 OFFCURVE",
"467 83 OFFCURVE",
"432 83 CURVE SMOOTH",
"372 83 OFFCURVE",
"315 114 OFFCURVE",
"300 172 CURVE",
"230 93 LINE",
"234 48 OFFCURVE",
"276 -14 OFFCURVE",
"372 -14 CURVE SMOOTH",
"437 -14 OFFCURVE",
"522 14 OFFCURVE",
"572 73 CURVE"
);
}
);
width = 674;
},
{
associatedMasterId = "59118767-2CA9-48AA-9373-694D24C960D8";
background = {
paths = (
{
closed = 1;
nodes = (
"572 292 OFFCURVE",
"572 184 CURVE SMOOTH",
"572 131 OFFCURVE",
"541 87 OFFCURVE",
"479 87 CURVE SMOOTH",
"416 87 OFFCURVE",
"328 150 OFFCURVE",
"295 190 CURVE SMOOTH",
"259 232 OFFCURVE",
"220 253 OFFCURVE",
"182 253 CURVE SMOOTH",
"130 253 OFFCURVE",
"81 216 OFFCURVE",
"42 143 CURVE SMOOTH",
"4 70 OFFCURVE",
"12 -14 OFFCURVE",
"91 -14 CURVE SMOOTH",
"149 -14 OFFCURVE",
"229 33 OFFCURVE",
"302 156 CURVE",
"206 72 OFFCURVE",
"85 58 OFFCURVE",
"85 110 CURVE SMOOTH",
"85 133 OFFCURVE",
"108 163 OFFCURVE",
"140 163 CURVE SMOOTH",
"184 163 OFFCURVE",
"206 118 OFFCURVE",
"241 79 CURVE SMOOTH",
"297 17 OFFCURVE",
"360 -11 OFFCURVE",
"419 -11 CURVE SMOOTH",
"561 -11 OFFCURVE",
"651 118 OFFCURVE",
"651 240 CURVE SMOOTH",
"651 351 OFFCURVE",
"554 456 OFFCURVE",
"448 462 CURVE SMOOTH",
"400 465 OFFCURVE",
"345 377 OFFCURVE",
"384 364 CURVE SMOOTH",
"482 334 OFFCURVE"
);
}
);
};
components = (
{
name = "CC-tlTick.alt";
transform = "{1, 0, 0, 1, 30, 0}";
}
);
layerId = "1863D2D2-0AF3-4214-AE50-E1175D108CEA";
name = "Regular Aug 29 15, 22:18";
paths = (
{
closed = 1;
nodes = (
"572 292 OFFCURVE",
"572 184 CURVE SMOOTH",
"572 55 OFFCURVE",
"363 51 OFFCURVE",
"304 163 CURVE SMOOTH",
"243 276 OFFCURVE",
"100 235 OFFCURVE",
"32 107 CURVE SMOOTH",
"-85 -117 OFFCURVE",
"257 -103 OFFCURVE",
"292 148 CURVE",
"285 132 OFFCURVE",
"231 128 OFFCURVE",
"231 104 CURVE SMOOTH",
"231 12 OFFCURVE",
"85 15 OFFCURVE",
"85 85 CURVE SMOOTH",
"85 113 OFFCURVE",
"114 139 OFFCURVE",
"149 135 CURVE SMOOTH",
"184 132 OFFCURVE",
"215 98 OFFCURVE",
"235 57 CURVE SMOOTH",
"314 -104 OFFCURVE",
"651 29 OFFCURVE",
"651 240 CURVE SMOOTH",
"651 351 OFFCURVE",
"554 456 OFFCURVE",
"448 462 CURVE SMOOTH",
"400 465 OFFCURVE",
"345 377 OFFCURVE",
"384 364 CURVE SMOOTH",
"482 334 OFFCURVE"
);
}
);
width = 673;
}
);
unicode = 0C2A;
},
{
color = 6;
glyphname = tlBA;
lastChange = "2015-10-30 12:45:06 +0000";
layers = (
{
components = (
{
name = "CC_Ofirsthalf-kannada";
transform = "{1, 0, 0, 1, 32, 0}";
},
{
name = "CC-UTALL";
transform = "{1, 0, 0, 1, 297, 0}";
}
);
layerId = "59118767-2CA9-48AA-9373-694D24C960D8";
name = Regular;
width = 712;
},
{
associatedMasterId = "59118767-2CA9-48AA-9373-694D24C960D8";
background = {
components = (
{
name = "CC_Ofirsthalf-kannada";
transform = "{1, 0, 0, 1, 30, 0}";
}
);
paths = (
{
closed = 1;
nodes = (
"640 281 OFFCURVE",
"625 312 OFFCURVE",
"597 312 CURVE SMOOTH",
"554 312 OFFCURVE",
"519 235 OFFCURVE",
"519 215 CURVE SMOOTH",
"519 196 OFFCURVE",
"553 188 OFFCURVE",
"553 148 CURVE SMOOTH",
"553 108 OFFCURVE",
"509 83 OFFCURVE",
"466 83 CURVE SMOOTH",
"418 83 OFFCURVE",
"383 114 OFFCURVE",
"370 157 CURVE",
"299 78 LINE",
"304 15 OFFCURVE",
"348 -14 OFFCURVE",
"407 -14 CURVE SMOOTH",
"523 -14 OFFCURVE",
"640 97 OFFCURVE",
"640 232 CURVE SMOOTH"
);
}
);
};
components = (
{
name = "CC_Ofirsthalf-kannada";
transform = "{1, 0, 0, 1, 30, 0}";
}
);
layerId = "C3777B4E-B647-45D0-A3E1-BFECA6064147";
name = "Regular Sep 19 15, 22:08";
paths = (
{
closed = 1;
nodes = (
"573 -12 OFFCURVE",
"700 114 OFFCURVE",
"700 296 CURVE SMOOTH",
"700 406 OFFCURVE",
"640 532 OFFCURVE",
"583 532 CURVE SMOOTH",
"547 532 OFFCURVE",
"508 480 OFFCURVE",
"508 447 CURVE SMOOTH",
"508 433 OFFCURVE",
"515 427 OFFCURVE",
"521 423 CURVE SMOOTH",
"557 395 OFFCURVE",
"616 321 OFFCURVE",
"616 240 CURVE SMOOTH",
"616 146 OFFCURVE",
"550 85 OFFCURVE",
"484 85 CURVE SMOOTH",
"438 85 OFFCURVE",
"390 110 OFFCURVE",
"362 165 CURVE",
"287 72 LINE",
"321 13 OFFCURVE",
"390 -12 OFFCURVE",
"441 -12 CURVE SMOOTH"
);
}
);
width = 740;
}
);
leftKerningGroup = knO;
leftMetricsKey = knO;
rightMetricsKey = tlJHA;
unicode = 0C2C;
},
{
color = 6;
glyphname = tlBHA;
lastChange = "2015-10-30 12:45:06 +0000";
layers = (
{
components = (
{
name = "CC_Ofirsthalf-kannada";
transform = "{1, 0, 0, 1, 32, 0}";
},
{
name = tlTeardrop;
transform = "{1, 0, 0, 1, 252, 0}";
}
);
layerId = "59118767-2CA9-48AA-9373-694D24C960D8";
name = Regular;
paths = (
{
closed = 1;
nodes = (
"557 -13 OFFCURVE",
"690 152 OFFCURVE",
"690 302 CURVE SMOOTH",
"690 399 OFFCURVE",
"634 462 OFFCURVE",
"533 462 CURVE SMOOTH",
"487 462 OFFCURVE",
"430 449 OFFCURVE",
"374 424 CURVE",
"365 411 OFFCURVE",
"358 390 OFFCURVE",
"358 374 CURVE SMOOTH",
"358 359 OFFCURVE",
"364 348 OFFCURVE",
"376 348 CURVE SMOOTH",
"387 348 OFFCURVE",
"433 358 OFFCURVE",
"467 358 CURVE SMOOTH",
"542 358 OFFCURVE",
"593 308 OFFCURVE",
"593 236 CURVE SMOOTH",
"593 163 OFFCURVE",
"547 83 OFFCURVE",
"469 83 CURVE SMOOTH",
"431 83 OFFCURVE",
"383 107 OFFCURVE",
"372 157 CURVE",
"298 73 LINE",
"315 13 OFFCURVE",
"364 -13 OFFCURVE",
"418 -13 CURVE SMOOTH"
);
},
{
closed = 1;
nodes = (
"418 403 LINE",
"437 439 OFFCURVE",
"464 483 OFFCURVE",
"504 517 CURVE SMOOTH",
"576 579 OFFCURVE",
"629 558 OFFCURVE",
"645 574 CURVE SMOOTH",
"654 583 OFFCURVE",
"684 636 OFFCURVE",
"684 666 CURVE SMOOTH",
"684 680 OFFCURVE",
"678 690 OFFCURVE",
"659 690 CURVE SMOOTH",
"626 690 OFFCURVE",
"576 661 OFFCURVE",
"527 618 CURVE SMOOTH",
"452 553 OFFCURVE",
"398 472 OFFCURVE",
"369 415 CURVE"
);
}
);
width = 722;
},
{
associatedMasterId = "59118767-2CA9-48AA-9373-694D24C960D8";
components = (
{
name = "CC_Ofirsthalf-kannada";
transform = "{1, 0, 0, 1, -47, 0}";
},
{
name = tlTick;
transform = "{1, 0, 0, 1, 460, 0}";
},
{
name = tlTeardrop;
transform = "{1, 0, 0, 1, 24, 0}";
}
);
layerId = "ADD2C919-9EC1-4872-A09B-CA2338CEFD23";
name = "Regular Sep 4 15, 13:50";
paths = (
{
closed = 1;
nodes = (
"292 52 LINE",
"343 0 OFFCURVE",
"384 -14 OFFCURVE",
"434 -14 CURVE SMOOTH",
"570 -14 OFFCURVE",
"681 133 OFFCURVE",
"710 283 CURVE SMOOTH",
"722 347 OFFCURVE",
"715 512 OFFCURVE",
"589 449 CURVE SMOOTH",
"554 431 OFFCURVE",
"514 406 OFFCURVE",
"470 377 CURVE",
"460 359 OFFCURVE",
"460 353 OFFCURVE",
"460 342 CURVE SMOOTH",
"460 322 OFFCURVE",
"471 315 OFFCURVE",
"487 315 CURVE SMOOTH",
"505 315 OFFCURVE",
"529 326 OFFCURVE",
"552 336 CURVE SMOOTH",
"618 365 OFFCURVE",
"627 305 OFFCURVE",
"627 260 CURVE SMOOTH",
"627 171 OFFCURVE",
"575 88 OFFCURVE",
"467 88 CURVE SMOOTH",
"422 88 OFFCURVE",
"391 109 OFFCURVE",
"371 158 CURVE"
);
}
);
width = 823;
}
);
leftMetricsKey = knO;
unicode = 0C2D;
},
{
color = 6;
glyphname = tlYA;
lastChange = "2015-10-30 12:45:06 +0000";
layers = (
{
components = (
{
name = "CC-YA";
transform = "{1, 0, 0, 1, 17, 0}";
},
{
disableAlignment = 1;
name = knmU;
transform = "{1, 0, 0, 1, 871, 0}";
}
);
guideLines = (
{
position = "{24, 49}";
}
);
layerId = "59118767-2CA9-48AA-9373-694D24C960D8";
name = Regular;
paths = (
{
closed = 1;
nodes = (
"563 403 LINE",
"582 439 OFFCURVE",
"609 483 OFFCURVE",
"649 517 CURVE SMOOTH",
"721 579 OFFCURVE",
"774 558 OFFCURVE",
"790 574 CURVE SMOOTH",
"799 583 OFFCURVE",
"829 636 OFFCURVE",
"829 666 CURVE SMOOTH",
"829 680 OFFCURVE",
"823 690 OFFCURVE",
"804 690 CURVE SMOOTH",
"771 690 OFFCURVE",
"721 661 OFFCURVE",
"672 618 CURVE SMOOTH",
"597 553 OFFCURVE",
"543 472 OFFCURVE",
"514 415 CURVE"
);
}
);
width = 1065;
},
{
associatedMasterId = "59118767-2CA9-48AA-9373-694D24C960D8";
layerId = "C3E41EC8-992E-4608-A9A4-6A36C2EE283D";
name = "Regular Sep 4 15, 13:45";
paths = (
{
closed = 1;
nodes = (
"137 346 LINE",
"59 282 OFFCURVE",
"25 201 OFFCURVE",
"25 125 CURVE SMOOTH",
"25 29 OFFCURVE",
"78 -16 OFFCURVE",
"165 -16 CURVE SMOOTH",
"344 -16 OFFCURVE",
"458 172 OFFCURVE",
"458 302 CURVE SMOOTH",
"458 507 OFFCURVE",
"219 497 OFFCURVE",
"30 374 CURVE",
"21 362 OFFCURVE",
"18 351 OFFCURVE",
"18 336 CURVE SMOOTH",
"18 313 OFFCURVE",
"34 310 OFFCURVE",
"49 310 CURVE SMOOTH",
"65 310 OFFCURVE",
"106 328 OFFCURVE",
"136 342 CURVE",
"194 352 LINE",
"211 352 OFFCURVE",
"231 356 OFFCURVE",
"249 356 CURVE SMOOTH",
"338 356 OFFCURVE",
"372 306 OFFCURVE",
"372 239 CURVE SMOOTH",
"372 126 OFFCURVE",
"274 90 OFFCURVE",
"212 90 CURVE SMOOTH",
"144 90 OFFCURVE",
"104 132 OFFCURVE",
"104 185 CURVE SMOOTH",
"104 248 OFFCURVE",
"172 341 OFFCURVE",
"241 379 CURVE SMOOTH"
);
}
);
width = 858;
},
{
associatedMasterId = "59118767-2CA9-48AA-9373-694D24C960D8";
components = (
{
name = tlTick;
transform = "{1, 0, 0, 1, 515, 0}";
},
{
disableAlignment = 1;
name = knmU;
transform = "{1, 0, 0, 1, 836, 0}";
}
);
layerId = "E8E620C4-A046-42FC-850A-C595B3B858D1";
name = "Regular Sep 4 15, 13:48";
paths = (
{
closed = 1;
nodes = (
"142 346 LINE",
"64 282 OFFCURVE",
"30 201 OFFCURVE",
"30 125 CURVE SMOOTH",
"30 29 OFFCURVE",
"83 -16 OFFCURVE",
"170 -16 CURVE SMOOTH",
"349 -16 OFFCURVE",
"463 172 OFFCURVE",
"463 302 CURVE SMOOTH",
"463 414 OFFCURVE",
"391 462 OFFCURVE",
"295 462 CURVE SMOOTH",
"263 462 OFFCURVE",
"228 457 OFFCURVE",
"192 447 CURVE SMOOTH",
"141 432 OFFCURVE",
"67 318 OFFCURVE",
"141 342 CURVE",
"199 352 LINE",
"216 352 OFFCURVE",
"236 356 OFFCURVE",
"254 356 CURVE SMOOTH",
"343 356 OFFCURVE",
"377 306 OFFCURVE",
"377 239 CURVE SMOOTH",
"377 126 OFFCURVE",
"279 90 OFFCURVE",
"217 90 CURVE SMOOTH",
"149 90 OFFCURVE",
"109 132 OFFCURVE",
"109 185 CURVE SMOOTH",
"109 248 OFFCURVE",
"177 341 OFFCURVE",
"246 379 CURVE SMOOTH"
);
},
{
closed = 1;
nodes = (
"327 52 LINE",
"378 0 OFFCURVE",
"419 -14 OFFCURVE",
"490 -14 CURVE SMOOTH",
"605 -14 OFFCURVE",
"736 133 OFFCURVE",
"765 283 CURVE SMOOTH",
"777 347 OFFCURVE",
"770 512 OFFCURVE",
"644 449 CURVE SMOOTH",
"609 431 OFFCURVE",
"569 406 OFFCURVE",
"525 377 CURVE",
"515 359 OFFCURVE",
"515 353 OFFCURVE",
"515 342 CURVE SMOOTH",
"515 322 OFFCURVE",
"526 315 OFFCURVE",
"542 315 CURVE SMOOTH",
"560 315 OFFCURVE",
"584 326 OFFCURVE",
"607 336 CURVE SMOOTH",
"673 365 OFFCURVE",
"682 305 OFFCURVE",
"682 260 CURVE SMOOTH",
"682 171 OFFCURVE",
"610 88 OFFCURVE",
"523 88 CURVE SMOOTH",
"457 88 OFFCURVE",
"426 109 OFFCURVE",
"406 158 CURVE"
);
}
);
width = 1080;
},
{
associatedMasterId = "59118767-2CA9-48AA-9373-694D24C960D8";
background = {
paths = (
{
closed = 1;
nodes = (
"726 652 OFFCURVE",
"622 567 OFFCURVE",
"570 489 CURVE SMOOTH",
"557 469 OFFCURVE",
"540 443 OFFCURVE",
"527 416 CURVE",
"559 390 LINE",
"589 436 OFFCURVE",
"667 516 OFFCURVE",
"730 537 CURVE SMOOTH",
"781 554 OFFCURVE",
"814 569 OFFCURVE",
"832 622 CURVE SMOOTH",
"849 676 OFFCURVE",
"825 701 OFFCURVE",
"776 677 CURVE SMOOTH"
);
},
{
closed = 1;
nodes = (
"848 51 OFFCURVE",
"848 302 CURVE SMOOTH",
"848 399 OFFCURVE",
"792 462 OFFCURVE",
"691 462 CURVE SMOOTH",
"645 462 OFFCURVE",
"588 449 OFFCURVE",
"532 424 CURVE",
"523 411 OFFCURVE",
"516 390 OFFCURVE",
"516 374 CURVE SMOOTH",
"516 359 OFFCURVE",
"522 348 OFFCURVE",
"534 348 CURVE SMOOTH",
"545 348 OFFCURVE",
"591 358 OFFCURVE",
"625 358 CURVE SMOOTH",
"700 358 OFFCURVE",
"751 308 OFFCURVE",
"751 236 CURVE SMOOTH",
"751 80 OFFCURVE",
"443 9 OFFCURVE",
"410 157 CURVE",
"336 73 LINE",
"420 -128 OFFCURVE"
);
}
);
};
components = (
{
name = tlTick;
transform = "{1, 0, 0, 1, 493, 0}";
},
{
name = knmU;
transform = "{1, 0, 0, 0.878, 814, -2}";
}
);
layerId = "0EC44471-7E6B-4C17-A078-05E502947CD5";
name = "Regular Sep 19 15, 22:14";
paths = (
{
closed = 1;
nodes = (
"142 346 LINE",
"64 282 OFFCURVE",
"30 201 OFFCURVE",
"30 125 CURVE SMOOTH",
"30 29 OFFCURVE",
"83 -16 OFFCURVE",
"170 -16 CURVE SMOOTH",
"349 -16 OFFCURVE",
"463 172 OFFCURVE",
"463 302 CURVE SMOOTH",
"463 414 OFFCURVE",
"391 462 OFFCURVE",
"295 462 CURVE SMOOTH",
"263 462 OFFCURVE",
"228 457 OFFCURVE",
"192 447 CURVE SMOOTH",
"141 432 OFFCURVE",
"67 318 OFFCURVE",
"141 342 CURVE",
"199 352 LINE",
"216 352 OFFCURVE",
"236 356 OFFCURVE",
"254 356 CURVE SMOOTH",
"343 356 OFFCURVE",
"377 306 OFFCURVE",
"377 239 CURVE SMOOTH",
"377 126 OFFCURVE",
"279 90 OFFCURVE",
"217 90 CURVE SMOOTH",
"149 90 OFFCURVE",
"109 132 OFFCURVE",
"109 185 CURVE SMOOTH",
"109 248 OFFCURVE",
"177 341 OFFCURVE",
"246 379 CURVE SMOOTH"
);
},
{
closed = 1;
nodes = (
"336 52 LINE",
"387 0 OFFCURVE",
"417 -14 OFFCURVE",
"488 -14 CURVE SMOOTH",
"666 -14 OFFCURVE",
"730 139 OFFCURVE",
"730 263 CURVE SMOOTH",
"730 383 OFFCURVE",
"633 463 OFFCURVE",
"503 377 CURVE",
"493 359 OFFCURVE",
"493 353 OFFCURVE",
"493 342 CURVE SMOOTH",
"493 322 OFFCURVE",
"504 311 OFFCURVE",
"520 315 CURVE SMOOTH",
"619 340 OFFCURVE",
"667 289 OFFCURVE",
"667 200 CURVE SMOOTH",
"667 130 OFFCURVE",
"607 87 OFFCURVE",
"531 87 CURVE SMOOTH",
"477 87 OFFCURVE",
"430 109 OFFCURVE",
"410 158 CURVE"
);
}
);
width = 1058;
},
{
associatedMasterId = "59118767-2CA9-48AA-9373-694D24C960D8";
background = {
paths = (
{
closed = 1;
nodes = (
"726 652 OFFCURVE",
"622 567 OFFCURVE",
"570 489 CURVE SMOOTH",
"557 469 OFFCURVE",
"540 443 OFFCURVE",
"527 416 CURVE",
"559 390 LINE",
"589 436 OFFCURVE",
"667 516 OFFCURVE",
"730 537 CURVE SMOOTH",
"781 554 OFFCURVE",
"814 569 OFFCURVE",
"832 622 CURVE SMOOTH",
"849 676 OFFCURVE",
"825 701 OFFCURVE",
"776 677 CURVE SMOOTH"
);
},
{
closed = 1;
nodes = (
"848 51 OFFCURVE",
"848 302 CURVE SMOOTH",
"848 399 OFFCURVE",
"792 462 OFFCURVE",
"691 462 CURVE SMOOTH",
"645 462 OFFCURVE",
"588 449 OFFCURVE",
"532 424 CURVE",
"523 411 OFFCURVE",
"516 390 OFFCURVE",
"516 374 CURVE SMOOTH",
"516 359 OFFCURVE",
"522 348 OFFCURVE",
"534 348 CURVE SMOOTH",
"545 348 OFFCURVE",
"591 358 OFFCURVE",
"625 358 CURVE SMOOTH",
"700 358 OFFCURVE",
"751 308 OFFCURVE",
"751 236 CURVE SMOOTH",
"751 80 OFFCURVE",
"443 9 OFFCURVE",
"410 157 CURVE",
"336 73 LINE",
"420 -128 OFFCURVE"
);
}
);
};
components = (
{
name = knmU;
transform = "{1, 0, 0, 0.878, 955, -2}";
}
);
layerId = "14FA4D77-1E8F-410A-8248-8B77D3CB1468";
name = "Regular Sep 20 15, 10:24";
paths = (
{
closed = 1;
nodes = (
"142 346 LINE",
"64 282 OFFCURVE",
"30 201 OFFCURVE",
"30 125 CURVE SMOOTH",
"30 29 OFFCURVE",
"83 -16 OFFCURVE",
"170 -16 CURVE SMOOTH",
"349 -16 OFFCURVE",
"463 172 OFFCURVE",
"463 302 CURVE SMOOTH",
"463 414 OFFCURVE",
"391 462 OFFCURVE",
"295 462 CURVE SMOOTH",
"263 462 OFFCURVE",
"228 457 OFFCURVE",
"192 447 CURVE SMOOTH",
"141 432 OFFCURVE",
"67 318 OFFCURVE",
"141 342 CURVE",
"199 352 LINE",
"216 352 OFFCURVE",
"236 356 OFFCURVE",
"254 356 CURVE SMOOTH",
"343 356 OFFCURVE",
"377 306 OFFCURVE",
"377 239 CURVE SMOOTH",
"377 126 OFFCURVE",
"279 90 OFFCURVE",
"217 90 CURVE SMOOTH",
"149 90 OFFCURVE",
"109 132 OFFCURVE",
"109 185 CURVE SMOOTH",
"109 248 OFFCURVE",
"177 341 OFFCURVE",
"246 379 CURVE SMOOTH"
);
},
{
closed = 1;
nodes = (
"726 652 OFFCURVE",
"622 567 OFFCURVE",
"570 489 CURVE SMOOTH",
"557 469 OFFCURVE",
"540 443 OFFCURVE",
"527 416 CURVE",
"559 390 LINE",
"589 436 OFFCURVE",
"667 516 OFFCURVE",
"730 537 CURVE SMOOTH",
"781 554 OFFCURVE",
"814 569 OFFCURVE",
"832 622 CURVE SMOOTH",
"849 676 OFFCURVE",
"825 701 OFFCURVE",
"776 677 CURVE SMOOTH"
);
},
{
closed = 1;
nodes = (
"848 51 OFFCURVE",
"848 302 CURVE SMOOTH",
"848 399 OFFCURVE",
"792 462 OFFCURVE",
"691 462 CURVE SMOOTH",
"645 462 OFFCURVE",
"588 449 OFFCURVE",
"532 424 CURVE",
"523 411 OFFCURVE",
"516 390 OFFCURVE",
"516 374 CURVE SMOOTH",
"516 359 OFFCURVE",
"522 348 OFFCURVE",
"534 348 CURVE SMOOTH",
"545 348 OFFCURVE",
"591 358 OFFCURVE",
"625 358 CURVE SMOOTH",
"700 358 OFFCURVE",
"751 308 OFFCURVE",
"751 236 CURVE SMOOTH",
"751 80 OFFCURVE",
"443 9 OFFCURVE",
"410 157 CURVE",
"336 73 LINE",
"420 -128 OFFCURVE"
);
}
);
width = 1146;
}
);
leftMetricsKey = knYA;
rightMetricsKey = tlJHA;
unicode = 0C2F;
},
